<svg width="19" height="18" viewBox="0 0 19 18" fill="none" xmlns="http://www.w3.org/2000/svg">
<path fill-rule="evenodd" clip-rule="evenodd" d="M13.6236 10.7866C13.3996 10.6751 12.2986 10.1359 12.0933 10.0616C11.8881 9.98719 11.7388 9.94999 11.5895 10.1731C11.4402 10.3962 11.0111 10.8982 10.8804 11.047C10.7498 11.1957 10.6192 11.2143 10.3953 11.1027C10.1713 10.9912 9.44978 10.7558 8.59443 9.99654C7.92871 9.40563 7.47928 8.67573 7.34862 8.45262C7.21801 8.22951 7.33472 8.10891 7.44686 7.99778C7.54756 7.89797 7.67076 7.73751 7.78273 7.60735C7.89471 7.4772 7.93203 7.38424 8.00668 7.23553C8.08132 7.08677 8.044 6.95662 7.98799 6.84506C7.93203 6.7335 7.48419 5.63654 7.29757 5.19032C7.11581 4.75575 6.93118 4.81455 6.79372 4.80773C6.66324 4.80126 6.51381 4.79989 6.36452 4.79989C6.21522 4.79989 5.97264 4.85569 5.76734 5.07876C5.56208 5.30187 4.98358 5.8411 4.98358 6.93802C4.98358 8.03498 5.78602 9.09474 5.89799 9.2435C6.00996 9.39226 7.47708 11.6434 9.72348 12.6087C10.2578 12.8383 10.6749 12.9754 11.0001 13.0782C11.5366 13.2478 12.0248 13.2239 12.4106 13.1665C12.8409 13.1025 13.7355 12.6273 13.9222 12.1067C14.1087 11.5861 14.1087 11.1399 14.0528 11.047C13.9968 10.954 13.8475 10.8982 13.6236 10.7866ZM9.53768 16.3389H9.53467C8.19798 16.3384 6.88696 15.981 5.74327 15.3055L5.47124 15.1448L2.6519 15.8809L3.40444 13.1452L3.22729 12.8648C2.48164 11.6844 2.08782 10.3201 2.08838 8.91936C2.09002 4.83185 5.43172 1.50637 9.54065 1.50637C11.5303 1.50715 13.4006 2.2793 14.807 3.68054C16.2135 5.08183 16.9876 6.94448 16.9868 8.92536C16.9851 13.0132 13.6435 16.3389 9.53768 16.3389ZM15.8774 2.61581C14.1853 0.929865 11.9351 0.000944138 9.53756 0C4.59765 0 0.577144 4.00099 0.575164 8.91885C0.574518 10.4909 0.987189 12.0254 1.77146 13.378L0.5 18L5.2511 16.7597C6.56014 17.4703 8.03398 17.8447 9.53399 17.8454H9.53765H9.53769C14.4771 17.8454 18.498 13.8439 18.5 8.92597C18.5009 6.5427 17.5696 4.30171 15.8774 2.61581Z" fill="#0C7479"/>
</svg>
