<svg width="160" height="160" viewBox="0 0 160 160" fill="none" xmlns="http://www.w3.org/2000/svg">
<path d="M42.2131 38.6849C42.2131 38.6849 26.7667 53.3223 29.7149 73.6292C32.6627 93.9361 50.7363 109.621 64.9738 122.669C79.2112 135.718 99.3901 137.511 113.954 127.523C128.518 117.534 120.623 104.907 128.87 86.8999C137.117 68.8929 142.468 65.0775 138.053 46.4436C133.637 27.8097 107.21 16.0375 80.888 20.9636C54.5661 25.89 42.2131 38.6849 42.2131 38.6849Z" fill="#0B7DFF"/>
<path opacity="0.7" d="M42.2131 38.6849C42.2131 38.6849 26.7667 53.3223 29.7149 73.6292C32.6627 93.9361 50.7363 109.621 64.9738 122.669C79.2112 135.718 99.3901 137.511 113.954 127.523C128.518 117.534 120.623 104.907 128.87 86.8999C137.117 68.8929 142.468 65.0775 138.053 46.4436C133.637 27.8097 107.21 16.0375 80.888 20.9636C54.5661 25.89 42.2131 38.6849 42.2131 38.6849Z" fill="white"/>
<path d="M108.772 35.5559H85.6605L85.8944 32.1841H109.005L108.772 35.5559Z" fill="white"/>
<path d="M108.772 40.2766H85.6605L85.8944 36.9048H109.005L108.772 40.2766Z" fill="white"/>
<path d="M108.772 44.9971H85.6605L85.8944 41.6252H109.005L108.772 44.9971Z" fill="white"/>
<path d="M108.772 49.7178H85.6605L85.8944 46.3459H109.005L108.772 49.7178Z" fill="white"/>
<path d="M108.772 54.4385H85.6605L85.8944 51.0667H109.005L108.772 54.4385Z" fill="white"/>
<path d="M108.772 59.1592H85.6605L85.8944 55.7874H109.005L108.772 59.1592Z" fill="white"/>
<path d="M108.772 63.8796H85.6605L85.8944 60.5078H109.005L108.772 63.8796Z" fill="white"/>
<path d="M108.772 68.6004H85.6605L85.8944 65.2285H109.005L108.772 68.6004Z" fill="white"/>
<path d="M108.772 73.3211H85.6605L85.8944 69.9492H109.005L108.772 73.3211Z" fill="white"/>
<path d="M108.772 78.0418H85.6605L85.8944 74.6699H109.005L108.772 78.0418Z" fill="white"/>
<path d="M108.772 82.7622H85.6605L85.8944 79.3904H109.005L108.772 82.7622Z" fill="white"/>
<path d="M133.208 35.5559H110.097L110.331 32.1841H133.442L133.208 35.5559Z" fill="white"/>
<path d="M133.208 40.2766H110.097L110.331 36.9048H133.442L133.208 40.2766Z" fill="white"/>
<path d="M133.208 44.9971H110.097L110.331 41.6252H133.442L133.208 44.9971Z" fill="white"/>
<path d="M133.208 49.7178H110.097L110.331 46.3459H133.442L133.208 49.7178Z" fill="white"/>
<path d="M133.208 54.4385H110.097L110.331 51.0667H133.442L133.208 54.4385Z" fill="white"/>
<path d="M133.208 59.1592H110.097L110.331 55.7874H133.442L133.208 59.1592Z" fill="white"/>
<path d="M133.208 63.8796H110.097L110.331 60.5078H133.442L133.208 63.8796Z" fill="white"/>
<path d="M133.208 68.6004H110.097L110.331 65.2285H133.442L133.208 68.6004Z" fill="white"/>
<path d="M133.208 73.3211H110.097L110.331 69.9492H133.442L133.208 73.3211Z" fill="white"/>
<path d="M133.208 78.0418H110.097L110.331 74.6699H133.442L133.208 78.0418Z" fill="white"/>
<path d="M133.208 82.7622H110.097L110.331 79.3904H133.442L133.208 82.7622Z" fill="white"/>
<path d="M82.4173 31.999H34.6685V72.9651H82.4173V31.999Z" fill="#FFBF0F"/>
<path d="M80.0298 34.0474H37.0557V70.9168H80.0298V34.0474Z" fill="white"/>
<mask id="mask0_1_190" style="mask-type:luminance" maskUnits="userSpaceOnUse" x="37" y="34" width="44" height="37">
<path d="M80.0298 34.0474H37.0557V70.9168H80.0298V34.0474Z" fill="white"/>
</mask>
<g mask="url(#mask0_1_190)">
<path d="M80.0298 45.2263C72.3008 50.7233 61.2317 54.3697 48.3895 60.1025C43.7405 62.178 40.0218 64.5271 37.0557 66.8778V70.9169H80.0298V45.2263Z" fill="#FFBF0F"/>
</g>
<mask id="mask1_1_190" style="mask-type:luminance" maskUnits="userSpaceOnUse" x="37" y="34" width="44" height="37">
<path d="M80.0298 34.0474H37.0557V70.9168H80.0298V34.0474Z" fill="white"/>
</mask>
<g mask="url(#mask1_1_190)">
<path d="M80.0298 34.0474H62.7834C60.8707 35.6886 58.5949 37.5245 55.9152 39.4896C46.0995 46.6877 50.353 53.8858 62.1319 48.6509C68.1767 45.9645 74.9063 39.7472 80.0301 34.3283L80.0298 34.0474Z" fill="#FFBF0F"/>
</g>
<mask id="mask2_1_190" style="mask-type:luminance" maskUnits="userSpaceOnUse" x="37" y="34" width="44" height="37">
<path d="M80.0298 34.0474H37.0557V70.9168H80.0298V34.0474Z" fill="white"/>
</mask>
<g mask="url(#mask2_1_190)">
<path d="M44.4634 38.1812C44.4634 35.1792 40.7232 37.5344 37.0557 40.5636V48.1492C40.6458 44.6484 44.4634 40.8695 44.4634 38.1812Z" fill="#FFBF0F"/>
</g>
<mask id="mask3_1_190" style="mask-type:luminance" maskUnits="userSpaceOnUse" x="37" y="34" width="44" height="37">
<path d="M80.0298 34.0474H37.0557V70.9168H80.0298V34.0474Z" fill="white"/>
</mask>
<g mask="url(#mask3_1_190)">
<path d="M48.0624 50.1235C48.0624 52.0208 46.5242 53.559 44.6269 53.559C42.7296 53.559 41.1914 52.0208 41.1914 50.1235C41.1914 48.2262 42.7296 46.688 44.6269 46.688C46.5245 46.688 48.0624 48.2262 48.0624 50.1235Z" fill="#FFBF0F"/>
</g>
<mask id="mask4_1_190" style="mask-type:luminance" maskUnits="userSpaceOnUse" x="37" y="34" width="44" height="37">
<path d="M80.0298 34.0474H37.0557V70.9168H80.0298V34.0474Z" fill="white"/>
</mask>
<g mask="url(#mask4_1_190)">
<path opacity="0.75" d="M80.0298 45.2263C72.3008 50.7233 61.2317 54.3697 48.3895 60.1025C43.7405 62.178 40.0218 64.5271 37.0557 66.8778V70.9169H80.0298V45.2263Z" fill="white"/>
</g>
<mask id="mask5_1_190" style="mask-type:luminance" maskUnits="userSpaceOnUse" x="37" y="34" width="44" height="37">
<path d="M80.0298 34.0474H37.0557V70.9168H80.0298V34.0474Z" fill="white"/>
</mask>
<g mask="url(#mask5_1_190)">
<path opacity="0.75" d="M80.0298 34.0474H62.7834C60.8707 35.6886 58.5949 37.5245 55.9152 39.4896C46.0995 46.6877 50.353 53.8858 62.1319 48.6509C68.1767 45.9645 74.9063 39.7472 80.0301 34.3283L80.0298 34.0474Z" fill="white"/>
</g>
<mask id="mask6_1_190" style="mask-type:luminance" maskUnits="userSpaceOnUse" x="37" y="34" width="44" height="37">
<path d="M80.0298 34.0474H37.0557V70.9168H80.0298V34.0474Z" fill="white"/>
</mask>
<g mask="url(#mask6_1_190)">
<g opacity="0.75">
<path d="M44.4634 38.1812C44.4634 35.1792 40.7232 37.5344 37.0557 40.5636V48.1492C40.6458 44.6484 44.4634 40.8695 44.4634 38.1812Z" fill="white"/>
</g>
</g>
<mask id="mask7_1_190" style="mask-type:luminance" maskUnits="userSpaceOnUse" x="37" y="34" width="44" height="37">
<path d="M80.0298 34.0474H37.0557V70.9168H80.0298V34.0474Z" fill="white"/>
</mask>
<g mask="url(#mask7_1_190)">
<path opacity="0.75" d="M48.0624 50.1235C48.0624 52.0208 46.5242 53.559 44.6269 53.559C42.7296 53.559 41.1914 52.0208 41.1914 50.1235C41.1914 48.2262 42.7296 46.688 44.6269 46.688C46.5245 46.688 48.0624 48.2262 48.0624 50.1235Z" fill="white"/>
</g>
<path d="M72.6016 61.0841C72.6016 63.6141 70.5507 65.6649 68.0208 65.6649C65.4909 65.6649 63.4403 63.6141 63.4403 61.0841C63.4403 58.5542 65.4912 56.5037 68.0208 56.5037C70.5507 56.5037 72.6016 58.5545 72.6016 61.0841Z" fill="white"/>
<path d="M137.197 116.442C135.964 117.864 135.64 119.407 135.572 119.819L132.311 121.648V113.005L132.375 113.092L137.569 109.29C138.224 109.393 140.746 109.678 143.044 108.441C145.71 107.005 147.659 102.082 147.659 102.082C147.659 102.082 141.3 101.363 139.146 104.03C137.397 106.195 137.339 108.292 137.379 109.005L132.311 112.714V106.331C132.92 106.062 135.366 104.804 136.171 101.671C137.094 98.0809 132.171 91.0034 132.171 91.0034C132.171 91.0034 127.042 98.286 128.068 101.978C128.937 105.107 131.273 106.097 131.968 106.328V120.169L128.31 117.121C128.395 116.393 128.459 114.111 126.427 111.825C123.965 109.056 117.401 109.261 117.401 109.261C117.401 109.261 120.171 114.8 122.53 116.646C124.591 118.259 127.436 117.601 128.121 117.41L131.968 120.616V124.824H126.25L128.583 139.405H135.581L137.915 124.824H132.311V122.041L135.893 120.032C136.765 120.274 139.199 120.773 141.505 119.62C144.377 118.184 146.736 115.107 146.736 115.107C146.736 115.107 139.864 113.364 137.197 116.442Z" fill="#17CB0E"/>
<path opacity="0.5" d="M137.197 116.442C135.964 117.864 135.64 119.407 135.572 119.819L132.311 121.648V113.005L132.375 113.092L137.569 109.29C138.224 109.393 140.746 109.678 143.044 108.441C145.71 107.005 147.659 102.082 147.659 102.082C147.659 102.082 141.3 101.363 139.146 104.03C137.397 106.195 137.339 108.292 137.379 109.005L132.311 112.714V106.331C132.92 106.062 135.366 104.804 136.171 101.671C137.094 98.0809 132.171 91.0034 132.171 91.0034C132.171 91.0034 127.042 98.286 128.068 101.978C128.937 105.107 131.273 106.097 131.968 106.328V120.169L128.31 117.121C128.395 116.393 128.459 114.111 126.427 111.825C123.965 109.056 117.401 109.261 117.401 109.261C117.401 109.261 120.171 114.8 122.53 116.646C124.591 118.259 127.436 117.601 128.121 117.41L131.968 120.616V124.824H126.25L128.583 139.405H135.581L137.915 124.824H132.311V122.041L135.893 120.032C136.765 120.274 139.199 120.773 141.505 119.62C144.377 118.184 146.736 115.107 146.736 115.107C146.736 115.107 139.864 113.364 137.197 116.442Z" fill="white"/>
<path d="M130.731 72.3949L121.312 72.4727C121.312 72.4727 120.689 72.3949 120.533 72.8618C120.533 72.8618 118.899 76.9873 118.821 78.4663C118.743 79.9453 119.132 79.7117 118.509 81.6577C117.887 83.6036 116.096 88.1962 115.084 91.9329C113.724 96.9546 113.37 102.285 113.284 107.468C113.27 108.3 112.772 115.457 114.067 115.457C115.142 115.457 125.052 116.77 125.171 114.86C125.647 107.245 124.272 99.8049 126.916 92.3994C127.944 89.5236 129.122 86.4858 129.993 83.4772C130.868 80.4561 131.017 77.3418 131.587 74.2628C131.976 72.1613 130.731 72.3949 130.731 72.3949Z" fill="#263238"/>
<path d="M131.653 73.3275C131.56 72.2405 130.731 72.395 130.731 72.395L121.312 72.4728C121.312 72.4728 120.689 72.395 120.533 72.8619C120.533 72.8619 118.899 76.9877 118.821 78.4664C118.791 79.0382 118.83 79.3537 118.854 79.6385L119.054 79.9451C119.054 79.9451 119.366 82.6696 123.102 82.8251C126.838 82.981 128.94 81.2683 129.719 79.6337C130.497 77.9992 130.808 75.3525 131.431 73.7957C131.493 73.6398 131.571 73.4837 131.653 73.3275Z" fill="#FF8793"/>
<path d="M129.469 76.3678C128.838 78.6417 129.217 79.2734 128.585 83.1898C127.953 87.1063 125.679 91.5278 124.795 95.5707C123.911 99.6132 124.29 113.889 124.416 114.521C124.464 114.761 124.476 115.149 124.471 115.536C124.895 115.377 125.152 115.158 125.171 114.86C125.646 107.246 124.271 99.8055 126.916 92.4001C127.943 89.5243 129.121 86.4865 129.993 83.4779C130.868 80.4567 131.016 77.3425 131.587 74.2635C131.826 72.9719 131.448 72.5636 131.121 72.4395L131.112 72.4519C131.112 72.4519 130.101 74.0939 129.469 76.3678Z" fill="#FF8793"/>
<path d="M111.277 133.849L111.214 133.799V125.006H112.478V119.448H107.804V125.006H109.067V133.95L97.8864 137.513V138.398C97.8864 138.956 98.3389 139.408 98.8969 139.408C99.4553 139.408 99.9075 138.956 99.9075 138.398V138.271L109.256 137.184V138.524C109.256 139.012 109.652 139.408 110.141 139.408C110.629 139.408 111.025 139.013 111.025 138.524V137.14L120.753 138.272V138.398C120.753 138.956 121.205 139.408 121.763 139.408C122.321 139.408 122.774 138.956 122.774 138.398V137.513L111.277 133.849Z" fill="#263238"/>
<path d="M124.607 120.472H96.8409C96.1341 120.472 95.5609 119.898 95.5609 119.192V115.304C95.5609 114.597 96.1341 114.024 96.8409 114.024H124.607C125.314 114.024 125.887 114.597 125.887 115.304V119.192C125.887 119.898 125.314 120.472 124.607 120.472Z" fill="#263238"/>
<path d="M15.3092 72.3949L24.7281 72.4727C24.7281 72.4727 25.3508 72.3949 25.5066 72.8618C25.5066 72.8618 27.1412 76.9873 27.2193 78.4663C27.297 79.9453 26.9079 79.7117 27.5306 81.6577C28.1534 83.6036 29.9438 88.1962 30.9556 91.9329C32.3156 96.9546 32.6702 102.285 32.7562 107.468C32.77 108.3 33.2673 115.457 31.9726 115.457C30.898 115.457 20.9882 116.77 20.8689 114.86C20.393 107.245 21.7681 99.8049 19.1233 92.3994C18.0961 89.5236 16.9182 86.4858 16.0468 83.4772C15.1719 80.4561 15.0228 77.3418 14.4529 74.2628C14.0638 72.1613 15.3092 72.3949 15.3092 72.3949Z" fill="#263238"/>
<path d="M14.3866 73.3275C14.4794 72.2405 15.3088 72.395 15.3088 72.395L24.7277 72.4728C24.7277 72.4728 25.3504 72.395 25.5062 72.8619C25.5062 72.8619 27.1408 76.9877 27.2189 78.4664C27.249 79.0382 27.2093 79.3537 27.1853 79.6385L26.9853 79.9451C26.9853 79.9451 26.6739 82.6696 22.9376 82.8251C19.2013 82.981 17.0995 81.2683 16.321 79.6337C15.5424 77.9992 15.2314 75.3525 14.6083 73.7957C14.5459 73.6398 14.4688 73.4837 14.3866 73.3275Z" fill="#FF8793"/>
<path d="M16.5699 76.3678C17.2016 78.6417 16.8227 79.2734 17.4544 83.1898C18.0861 87.1063 20.36 91.5278 21.2445 95.5707C22.1286 99.6132 21.7498 113.889 21.6234 114.521C21.5754 114.761 21.5638 115.149 21.568 115.536C21.144 115.377 20.887 115.158 20.8685 114.86C20.3926 107.246 21.7677 99.8055 19.1229 92.4001C18.0957 89.5243 16.9178 86.4865 16.0464 83.4779C15.1715 80.4567 15.0227 77.3425 14.4525 74.2635C14.2134 72.9719 14.5914 72.5636 14.9184 72.4395L14.9277 72.4519C14.9277 72.4519 15.9382 74.0939 16.5699 76.3678Z" fill="#FF8793"/>
<path d="M34.7619 133.849L34.825 133.799V125.006H33.5616V119.448H38.2358V125.006H36.9725V133.95L48.153 137.513V138.398C48.153 138.956 47.7005 139.408 47.1424 139.408C46.5843 139.408 46.1318 138.956 46.1318 138.398V138.271L36.783 137.184V138.524C36.783 139.012 36.3872 139.408 35.8986 139.408C35.4102 139.408 35.0144 139.013 35.0144 138.524V137.14L25.2867 138.272V138.398C25.2867 138.956 24.8342 139.408 24.2762 139.408C23.7181 139.408 23.2656 138.956 23.2656 138.398V137.513L34.7619 133.849Z" fill="#263238"/>
<path d="M21.4323 120.472H49.1984C49.9053 120.472 50.4784 119.898 50.4784 119.192V115.304C50.4784 114.597 49.9053 114.024 49.1984 114.024H21.4323C20.7254 114.024 20.1523 114.597 20.1523 115.304V119.192C20.1523 119.898 20.7254 120.472 21.4323 120.472Z" fill="#263238"/>
<path d="M119.04 95.9172H43.0096V139.615H119.04V95.9172Z" fill="#CCCCCC"/>
<path d="M118.98 96.9661H43.0458V98.175H118.98V96.9661Z" fill="#263238"/>
<path d="M119.604 95.2007H41.3168V97.1111H119.604V95.2007Z" fill="#CCCCCC"/>
<path d="M63.2521 91.4058C63.2521 91.4058 64.1478 95.4096 64.095 96.5158C64.0422 97.6221 61.935 100.625 61.8825 99.9402C61.8297 99.2554 62.2512 98.2544 62.2512 98.2544C62.2512 98.2544 61.5136 99.2554 61.2502 99.2026C60.9869 99.1498 61.4608 97.7802 61.4608 97.7802C61.4608 97.7802 60.6707 98.5702 60.4073 98.4122C60.144 98.2541 60.9869 97.095 60.9869 97.095C60.9869 97.095 60.0387 98.096 59.9859 97.7798C59.9331 97.4637 60.8288 96.1469 60.8288 96.1469C60.8288 96.1469 59.9331 94.2502 59.8806 93.4602C59.8278 92.6701 60.4073 91.9325 60.4073 91.9325L63.2521 91.4058Z" fill="white"/>
<mask id="mask8_1_190" style="mask-type:luminance" maskUnits="userSpaceOnUse" x="59" y="91" width="6" height="10">
<path d="M63.2521 91.4058C63.2521 91.4058 64.1478 95.4096 64.095 96.5158C64.0422 97.6221 61.935 100.625 61.8825 99.9402C61.8297 99.2554 62.2512 98.2544 62.2512 98.2544C62.2512 98.2544 61.5136 99.2554 61.2502 99.2026C60.9869 99.1498 61.4608 97.7802 61.4608 97.7802C61.4608 97.7802 60.6707 98.5702 60.4073 98.4122C60.144 98.2541 60.9869 97.095 60.9869 97.095C60.9869 97.095 60.0387 98.096 59.9859 97.7798C59.9331 97.4637 60.8288 96.1469 60.8288 96.1469C60.8288 96.1469 59.9331 94.2502 59.8806 93.4602C59.8278 92.6701 60.4073 91.9325 60.4073 91.9325L63.2521 91.4058Z" fill="white"/>
</mask>
<g mask="url(#mask8_1_190)">
<path d="M63.2521 91.4058C63.2521 91.4058 64.1478 95.4096 64.095 96.5158C64.0422 97.6221 61.935 100.625 61.8825 99.9402C61.8297 99.2554 62.2512 98.2544 62.2512 98.2544C62.2512 98.2544 61.5136 99.2554 61.2502 99.2026C60.9869 99.1498 61.4608 97.7802 61.4608 97.7802C61.4608 97.7802 60.6707 98.5702 60.4073 98.4122C60.144 98.2541 60.9869 97.095 60.9869 97.095C60.9869 97.095 60.0387 98.096 59.9859 97.7798C59.9331 97.4637 60.8288 96.1469 60.8288 96.1469C60.8288 96.1469 59.9331 94.2502 59.8806 93.4602C59.8278 92.6701 60.4073 91.9325 60.4073 91.9325L63.2521 91.4058Z" fill="#FFAC88"/>
</g>
<path d="M63.2521 91.4058C63.2521 91.4058 64.1478 95.4096 64.095 96.5158C64.0422 97.6221 61.935 100.625 61.8825 99.9402C61.8297 99.2554 62.2512 98.2544 62.2512 98.2544C62.2512 98.2544 61.5136 99.2554 61.2502 99.2026C60.9869 99.1498 61.4608 97.7802 61.4608 97.7802C61.4608 97.7802 60.6707 98.5702 60.4073 98.4122C60.144 98.2541 60.9869 97.095 60.9869 97.095C60.9869 97.095 60.0387 98.096 59.9859 97.7798C59.9331 97.4637 60.8288 96.1469 60.8288 96.1469C60.8288 96.1469 59.9331 94.2502 59.8806 93.4602C59.8278 92.6701 60.4073 91.9325 60.4073 91.9325L63.2521 91.4058Z" stroke="#263238" stroke-width="0.6" stroke-miterlimit="10" stroke-linecap="round" stroke-linejoin="round"/>
<path d="M63.0416 91.4058C63.0416 91.4058 63.6736 94.1978 63.6211 94.9878C63.5683 95.7779 62.7782 98.096 62.1987 97.6746C61.6192 97.2531 62.5673 95.6726 62.5673 95.6726C62.5673 95.6726 60.9392 94.5315 60.5654 93.4602C60.1917 92.3888 60.4073 91.9325 60.4073 91.9325L63.0416 91.4058Z" fill="white"/>
<mask id="mask9_1_190" style="mask-type:luminance" maskUnits="userSpaceOnUse" x="60" y="91" width="4" height="7">
<path d="M63.0416 91.4058C63.0416 91.4058 63.6736 94.1978 63.6211 94.9878C63.5683 95.7779 62.7782 98.096 62.1987 97.6746C61.6192 97.2531 62.5673 95.6726 62.5673 95.6726C62.5673 95.6726 60.9392 94.5315 60.5654 93.4602C60.1917 92.3888 60.4073 91.9325 60.4073 91.9325L63.0416 91.4058Z" fill="white"/>
</mask>
<g mask="url(#mask9_1_190)">
<path d="M63.0416 91.4058C63.0416 91.4058 63.6736 94.1978 63.6211 94.9878C63.5683 95.7779 62.7782 98.096 62.1987 97.6746C61.6192 97.2531 62.5673 95.6726 62.5673 95.6726C62.5673 95.6726 60.9392 94.5315 60.5654 93.4602C60.1917 92.3888 60.4073 91.9325 60.4073 91.9325L63.0416 91.4058Z" fill="#FFAC88"/>
</g>
<path d="M63.0416 91.4058C63.0416 91.4058 63.6736 94.1978 63.6211 94.9878C63.5683 95.7779 62.7782 98.096 62.1987 97.6746C61.6192 97.2531 62.5673 95.6726 62.5673 95.6726C62.5673 95.6726 60.9392 94.5315 60.5654 93.4602C60.1917 92.3888 60.4073 91.9325 60.4073 91.9325L63.0416 91.4058Z" stroke="#263238" stroke-width="0.6" stroke-miterlimit="10" stroke-linecap="round" stroke-linejoin="round"/>
<path d="M61.1098 78.3127L63.3536 91.675L60.1917 92.3889L57.0298 82.0868L61.1098 78.3127Z" fill="#263238" stroke="#263238" stroke-width="0.6" stroke-miterlimit="10" stroke-linecap="round" stroke-linejoin="round"/>
<path d="M60.1917 84.841C60.1917 84.841 60.3958 100.753 60.7018 105.037C61.0077 109.321 59.8858 115.033 58.8656 116.665C57.8454 118.297 53.3574 128.497 53.5616 129.11C53.7658 129.722 54.6835 131.558 54.6835 132.068C54.6835 132.578 54.6835 134.21 54.6835 134.21C54.6835 134.21 59.7837 137.576 60.1917 137.576C60.5997 137.576 61.1098 138.392 60.0896 139.004C59.0694 139.616 47.6454 139.616 47.1354 139.208C46.6253 138.8 46.4214 138.086 46.4214 138.086C46.4214 138.086 44.7894 138.698 44.8915 137.168C44.9936 135.638 46.8294 129.11 46.8294 129.11C46.8294 129.11 45.7075 121.969 46.1155 117.379C46.5235 112.789 47.9517 107.281 47.9517 106.159C47.9517 105.037 46.5235 97.5911 46.3197 96.3671C46.1158 95.1431 43.1578 91.675 44.4835 88.921C45.8096 86.1671 46.8294 81.7809 47.2374 81.475C47.6454 81.169 53.1536 80.9649 55.3974 81.475C57.6416 81.9847 60.0896 81.9847 60.1917 84.841Z" fill="#263238" stroke="#263238" stroke-width="0.6" stroke-miterlimit="10" stroke-linecap="round" stroke-linejoin="round"/>
<path d="M50.0787 52.7705C50.0787 52.7705 48.337 54.3321 48.0365 54.8729C47.7363 55.4133 44.072 60.6393 44.0122 64.3634C43.952 68.0876 46.7152 79.3801 46.7152 79.3801L42.5706 89.9621L43.7718 90.4428L44.9731 89.1212V91.1033C44.9731 91.1033 46.3546 92.3647 49.9587 93.566C53.5626 94.7673 58.1878 93.3858 58.1878 93.3858L59.5693 84.606V93.2658L61.191 92.1846L61.311 77.7583C61.311 77.7583 62.6326 70.0098 62.6326 67.8473C62.6326 65.6847 58.9686 58.8972 57.3469 56.9151C55.7251 54.933 53.0221 53.3113 52.2413 52.7103C51.4605 52.11 50.0787 52.7705 50.0787 52.7705Z" fill="#263238"/>
<mask id="mask10_1_190" style="mask-type:luminance" maskUnits="userSpaceOnUse" x="42" y="52" width="21" height="43">
<path d="M50.0787 52.7705C50.0787 52.7705 48.337 54.3321 48.0365 54.8729C47.7363 55.4133 44.072 60.6393 44.0122 64.3634C43.952 68.0876 46.7152 79.3801 46.7152 79.3801L42.5706 89.9621L43.7718 90.4428L44.9731 89.1212V91.1033C44.9731 91.1033 46.3546 92.3647 49.9587 93.566C53.5626 94.7673 58.1878 93.3858 58.1878 93.3858L59.5693 84.606V93.2658L61.191 92.1846L61.311 77.7583C61.311 77.7583 62.6326 70.0098 62.6326 67.8473C62.6326 65.6847 58.9686 58.8972 57.3469 56.9151C55.7251 54.933 53.0221 53.3113 52.2413 52.7103C51.4605 52.11 50.0787 52.7705 50.0787 52.7705Z" fill="white"/>
</mask>
<g mask="url(#mask10_1_190)">
<path opacity="0.17" d="M50.0787 52.7705C50.0787 52.7705 48.337 54.3321 48.0365 54.8729C47.7363 55.4133 44.072 60.6393 44.0122 64.3634C43.952 68.0876 46.7152 79.3801 46.7152 79.3801L42.5706 89.9621L43.7718 90.4428L44.9731 89.1212V91.1033C44.9731 91.1033 46.3546 92.3647 49.9587 93.566C53.5626 94.7673 58.1878 93.3858 58.1878 93.3858L59.5693 84.606V93.2658L61.191 92.1846L61.311 77.7583C61.311 77.7583 62.6326 70.0098 62.6326 67.8473C62.6326 65.6847 58.9686 58.8972 57.3469 56.9151C55.7251 54.933 53.0221 53.3113 52.2413 52.7103C51.4605 52.11 50.0787 52.7705 50.0787 52.7705Z" fill="white"/>
<path d="M44.9488 65.5613C44.9488 65.5613 47.1296 67.1059 48.5834 67.6512" stroke="#263238" stroke-width="0.6" stroke-miterlimit="10" stroke-linecap="round" stroke-linejoin="round"/>
<path d="M45.585 67.1968C45.585 67.1968 48.0384 67.8329 49.3104 67.8329" stroke="#263238" stroke-width="0.6" stroke-miterlimit="10" stroke-linecap="round" stroke-linejoin="round"/>
<path d="M49.1286 81.7349L56.0342 82.5528L55.5798 84.0065L49.2195 83.2798" stroke="#263238" stroke-width="0.6" stroke-miterlimit="10" stroke-linecap="round" stroke-linejoin="round"/>
</g>
<path d="M50.0787 52.7705C50.0787 52.7705 48.337 54.3321 48.0365 54.8729C47.7363 55.4133 44.072 60.6393 44.0122 64.3634C43.952 68.0876 46.7152 79.3801 46.7152 79.3801L42.5706 89.9621L43.7718 90.4428L44.9731 89.1212V91.1033C44.9731 91.1033 46.3546 92.3647 49.9587 93.566C53.5626 94.7673 58.1878 93.3858 58.1878 93.3858L59.5693 84.606V93.2658L61.191 92.1846L61.311 77.7583C61.311 77.7583 62.6326 70.0098 62.6326 67.8473C62.6326 65.6847 58.9686 58.8972 57.3469 56.9151C55.7251 54.933 53.0221 53.3113 52.2413 52.7103C51.4605 52.11 50.0787 52.7705 50.0787 52.7705Z" stroke="#263238" stroke-width="0.6" stroke-miterlimit="10" stroke-linecap="round" stroke-linejoin="round"/>
<path d="M49.7184 53.1311L56.3859 60.3391L60.2902 67.7874C60.2902 67.7874 59.4493 62.2613 58.7286 60.7596C58.008 59.2578 54.7641 55.4738 54.4038 54.6329C54.0432 53.7916 49.7184 53.1311 49.7184 53.1311Z" fill="white" stroke="#263238" stroke-width="0.6" stroke-miterlimit="10" stroke-linecap="round" stroke-linejoin="round"/>
<path d="M58.4442 64.266L60.2902 67.7876C60.2902 67.7876 59.7168 64.0219 59.1114 61.8632L58.7286 60.7601C58.44 60.1585 57.7456 59.1905 56.9949 58.1924L55.9491 57.9832L56.3859 60.3393L57.7386 61.4427L58.4442 64.266Z" fill="#263238" stroke="#263238" stroke-width="0.6" stroke-miterlimit="10" stroke-linecap="round" stroke-linejoin="round"/>
<path d="M56.6646 55.8354L57.0099 56.2383L58.0963 57.5055L58.7286 60.7593L55.9491 57.9827C55.9491 57.9827 56.3069 56.3126 56.6646 55.8354Z" fill="white" stroke="#263238" stroke-width="0.6" stroke-miterlimit="10" stroke-linecap="round" stroke-linejoin="round"/>
<path d="M59.8096 42.4395C59.8096 42.4395 61.271 43.5599 61.4512 44.6411C61.6314 45.7224 61.0909 46.9237 61.1507 47.3442C61.2109 47.7647 62.2918 48.7256 62.232 49.2063C62.1718 49.6869 61.271 49.8671 61.271 49.8671C61.271 49.8671 60.2902 53.4319 60.0499 54.0325C59.8096 54.6331 58.6083 54.453 57.7072 54.333L56.0854 59.1384L50.7395 52.8315L51.5805 50.3087C51.5805 50.3087 49.2979 47.5458 49.1178 44.6024C48.9376 41.6591 51.2803 39.6168 54.6438 39.1963C58.0077 38.7759 60.8307 40.3976 61.191 41.0584C61.5517 41.7186 59.8096 42.4395 59.8096 42.4395Z" fill="white"/>
<mask id="mask11_1_190" style="mask-type:luminance" maskUnits="userSpaceOnUse" x="49" y="39" width="14" height="21">
<path d="M59.8096 42.4395C59.8096 42.4395 61.271 43.5599 61.4512 44.6411C61.6314 45.7224 61.0909 46.9237 61.1507 47.3442C61.2109 47.7647 62.2918 48.7256 62.232 49.2063C62.1718 49.6869 61.271 49.8671 61.271 49.8671C61.271 49.8671 60.2902 53.4319 60.0499 54.0325C59.8096 54.6331 58.6083 54.453 57.7072 54.333L56.0854 59.1384L50.7395 52.8315L51.5805 50.3087C51.5805 50.3087 49.2979 47.5458 49.1178 44.6024C48.9376 41.6591 51.2803 39.6168 54.6438 39.1963C58.0077 38.7759 60.8307 40.3976 61.191 41.0584C61.5517 41.7186 59.8096 42.4395 59.8096 42.4395Z" fill="white"/>
</mask>
<g mask="url(#mask11_1_190)">
<path d="M59.8096 42.4395C59.8096 42.4395 61.271 43.5599 61.4512 44.6411C61.6314 45.7224 61.0909 46.9237 61.1507 47.3442C61.2109 47.7647 62.2918 48.7256 62.232 49.2063C62.1718 49.6869 61.271 49.8671 61.271 49.8671C61.271 49.8671 60.2902 53.4319 60.0499 54.0325C59.8096 54.6331 58.6083 54.453 57.7072 54.333L56.0854 59.1384L50.7395 52.8315L51.5805 50.3087C51.5805 50.3087 49.2979 47.5458 49.1178 44.6024C48.9376 41.6591 51.2803 39.6168 54.6438 39.1963C58.0077 38.7759 60.8307 40.3976 61.191 41.0584C61.5517 41.7186 59.8096 42.4395 59.8096 42.4395Z" fill="#FFAC88"/>
</g>
<mask id="mask12_1_190" style="mask-type:luminance" maskUnits="userSpaceOnUse" x="49" y="39" width="14" height="21">
<path d="M59.8096 42.4395C59.8096 42.4395 61.271 43.5599 61.4512 44.6411C61.6314 45.7224 61.0909 46.9237 61.1507 47.3442C61.2109 47.7647 62.2918 48.7256 62.232 49.2063C62.1718 49.6869 61.271 49.8671 61.271 49.8671C61.271 49.8671 60.2902 53.4319 60.0499 54.0325C59.8096 54.6331 58.6083 54.453 57.7072 54.333L56.0854 59.1384L50.7395 52.8315L51.5805 50.3087C51.5805 50.3087 49.2979 47.5458 49.1178 44.6024C48.9376 41.6591 51.2803 39.6168 54.6438 39.1963C58.0077 38.7759 60.8307 40.3976 61.191 41.0584C61.5517 41.7186 59.8096 42.4395 59.8096 42.4395Z" fill="white"/>
</mask>
<g mask="url(#mask12_1_190)">
<path d="M53.5789 56.1806C54.4816 55.9976 55.9929 55.685 57.3555 55.3752L57.7072 54.3326C58.4585 54.4328 59.4166 54.573 59.8541 54.2693C58.8281 53.8482 56.2941 53.1064 55.7757 52.156C55.1315 50.9752 57.3862 47.5394 57.3862 45.8216C57.3862 44.1038 55.239 42.1714 55.239 42.1714C54.2035 41.1874 52.319 40.9035 50.6451 40.8728C49.6048 41.8123 49.0249 43.0862 49.1177 44.6021C49.2979 47.5454 51.5805 50.3083 51.5805 50.3083L50.7395 52.8312L53.5789 56.1806Z" fill="#FF8234"/>
</g>
<path d="M59.8096 42.4395C59.8096 42.4395 61.271 43.5599 61.4512 44.6411C61.6314 45.7224 61.0909 46.9237 61.1507 47.3442C61.2109 47.7647 62.2918 48.7256 62.232 49.2063C62.1718 49.6869 61.271 49.8671 61.271 49.8671C61.271 49.8671 60.2902 53.4319 60.0499 54.0325C59.8096 54.6331 58.6083 54.453 57.7072 54.333L56.0854 59.1384L50.7395 52.8315L51.5805 50.3087C51.5805 50.3087 49.2979 47.5458 49.1178 44.6024C48.9376 41.6591 51.2803 39.6168 54.6438 39.1963C58.0077 38.7759 60.8307 40.3976 61.191 41.0584C61.5517 41.7186 59.8096 42.4395 59.8096 42.4395Z" stroke="#263238" stroke-width="0.6" stroke-miterlimit="10" stroke-linecap="round" stroke-linejoin="round"/>
<path d="M59.8096 42.4394C59.8096 42.4394 61.5517 41.7184 61.191 41.0579C60.8307 40.3971 58.0077 38.7754 54.6438 39.1958C51.28 39.6163 48.9376 41.6586 49.1178 44.6019C49.2979 47.5453 51.5805 50.3082 51.5805 50.3082L51.4528 50.6918C52.6982 51.2982 53.9834 50.3082 53.9834 50.3082C53.9834 50.3082 53.2627 50.7286 52.5418 50.0678C51.8211 49.407 51.761 47.3046 52.6621 47.1245C53.5632 46.9443 54.1638 47.3046 54.1638 47.9654C54.1638 48.6262 54.344 48.2058 54.8246 48.1456C55.3053 48.0854 54.8848 46.6438 55.185 46.4038C55.4854 46.1635 55.9059 45.9834 56.4464 45.2624C56.9869 44.5418 55.4253 43.9411 55.2451 43.2803C55.0643 42.6195 59.8096 42.4394 59.8096 42.4394Z" fill="#263238" stroke="#263238" stroke-width="0.6" stroke-miterlimit="10" stroke-linecap="round" stroke-linejoin="round"/>
<path d="M60.2413 47.1299L59.1277 47.5011H60.1354" stroke="#263238" stroke-width="0.6" stroke-miterlimit="10" stroke-linecap="round" stroke-linejoin="round"/>
<path d="M60.6656 46.0162C60.6656 46.0162 60.1882 45.3266 59.6579 45.645C59.1277 45.9631 59.0746 46.1753 59.0746 46.1753" stroke="#263238" stroke-width="0.6" stroke-miterlimit="10" stroke-linecap="round" stroke-linejoin="round"/>
<path d="M59.5232 50.8411C59.5232 50.8411 59.951 51.1835 60.6355 51.0977" stroke="#263238" stroke-width="0.6" stroke-miterlimit="10" stroke-linecap="round" stroke-linejoin="round"/>
<path d="M50.4995 51.6897L57.2269 58.2971L56.6262 61.1201L49.4781 53.4315L50.4995 51.6897Z" fill="white" stroke="#263238" stroke-width="0.6" stroke-miterlimit="10" stroke-linecap="round" stroke-linejoin="round"/>
<path d="M76.3392 76.9533C76.3392 76.9533 73.9715 75.5453 73.5875 75.6733C73.2035 75.8013 69.4918 78.4889 69.7478 79.1289C70.0038 79.7689 71.9875 80.6009 73.1395 81.0486C74.2915 81.4966 76.6592 80.5366 76.6592 80.5366L76.3392 76.9533Z" fill="#FFB97B" stroke="#263238" stroke-width="0.6" stroke-miterlimit="10" stroke-linecap="round" stroke-linejoin="round"/>
<path d="M69.4278 76.4413C69.4278 76.4413 71.4755 75.2893 71.7955 75.2893C72.1155 75.2893 73.9712 76.953 73.9712 76.953L73.2032 78.105C73.2032 78.105 75.6349 79.321 75.3789 79.769C75.1229 80.217 74.1629 80.921 73.1392 81.049C72.1152 81.177 69.2355 79.321 69.2355 79.321L69.4278 76.4413Z" fill="white"/>
<mask id="mask13_1_190" style="mask-type:luminance" maskUnits="userSpaceOnUse" x="69" y="75" width="7" height="7">
<path d="M69.4278 76.4413C69.4278 76.4413 71.4755 75.2893 71.7955 75.2893C72.1155 75.2893 73.9712 76.953 73.9712 76.953L73.2032 78.105C73.2032 78.105 75.6349 79.321 75.3789 79.769C75.1229 80.217 74.1629 80.921 73.1392 81.049C72.1152 81.177 69.2355 79.321 69.2355 79.321L69.4278 76.4413Z" fill="white"/>
</mask>
<g mask="url(#mask13_1_190)">
<path d="M69.4278 76.4413C69.4278 76.4413 71.4755 75.2893 71.7955 75.2893C72.1155 75.2893 73.9712 76.953 73.9712 76.953L73.2032 78.105C73.2032 78.105 75.6349 79.321 75.3789 79.769C75.1229 80.217 74.1629 80.921 73.1392 81.049C72.1152 81.177 69.2355 79.321 69.2355 79.321L69.4278 76.4413Z" fill="#FFAC88"/>
</g>
<path d="M69.4278 76.4413C69.4278 76.4413 71.4755 75.2893 71.7955 75.2893C72.1155 75.2893 73.9712 76.953 73.9712 76.953L73.2032 78.105C73.2032 78.105 75.6349 79.321 75.3789 79.769C75.1229 80.217 74.1629 80.921 73.1392 81.049C72.1152 81.177 69.2355 79.321 69.2355 79.321L69.4278 76.4413Z" stroke="#263238" stroke-width="0.6" stroke-miterlimit="10" stroke-linecap="round" stroke-linejoin="round"/>
<path d="M68.0202 75.9292L69.8118 76.2492L69.2358 79.3209L67.7002 78.8089L68.0202 75.9292Z" fill="white" stroke="#263238" stroke-width="0.6" stroke-miterlimit="10" stroke-linecap="round" stroke-linejoin="round"/>
<path d="M47.2221 58.0752C47.2221 58.0752 45.4944 61.4029 45.3024 63.0666C45.1104 64.7302 52.1497 77.977 52.6617 78.425C53.1737 78.873 68.1481 79.321 68.1481 79.321L68.7881 76.0573L55.9894 72.4096L51.6377 59.0349" fill="#263238"/>
<mask id="mask14_1_190" style="mask-type:luminance" maskUnits="userSpaceOnUse" x="45" y="58" width="24" height="22">
<path d="M47.2221 58.0752C47.2221 58.0752 45.4944 61.4029 45.3024 63.0666C45.1104 64.7302 52.1497 77.977 52.6617 78.425C53.1737 78.873 68.1481 79.321 68.1481 79.321L68.7881 76.0573L55.9894 72.4096L51.6377 59.0349" fill="white"/>
</mask>
<g mask="url(#mask14_1_190)">
<path opacity="0.17" d="M47.2221 58.0752C47.2221 58.0752 45.4944 61.4029 45.3024 63.0666C45.1104 64.7302 52.1497 77.977 52.6617 78.425C53.1737 78.873 68.1481 79.321 68.1481 79.321L68.7881 76.0573L55.9894 72.4096L51.6377 59.0349" fill="white"/>
</g>
<path d="M47.2221 58.0752C47.2221 58.0752 45.4944 61.4029 45.3024 63.0666C45.1104 64.7302 52.1497 77.977 52.6617 78.425C53.1737 78.873 68.1481 79.321 68.1481 79.321L68.7881 76.0573L55.9894 72.4096L51.6377 59.0349" stroke="#263238" stroke-width="0.6" stroke-miterlimit="10" stroke-linecap="round" stroke-linejoin="round"/>
<path d="M74.0995 75.9934C74.0995 75.9934 73.2035 75.2254 72.8835 76.1214C72.5635 77.0174 70.5798 79.193 71.4755 79.257C72.3715 79.321 74.0352 77.4654 74.0352 77.4654" fill="#FFB97B"/>
<path d="M74.0995 75.9934C74.0995 75.9934 73.2035 75.2254 72.8835 76.1214C72.5635 77.0174 70.5798 79.193 71.4755 79.257C72.3715 79.321 74.0352 77.4654 74.0352 77.4654" stroke="#263238" stroke-width="0.6" stroke-miterlimit="10" stroke-linecap="round" stroke-linejoin="round"/>
<path d="M70.1318 79.5771C70.1318 79.5771 69.9002 80.6574 70.4518 81.1127C70.8371 81.4311 71.0576 80.5361 70.9638 79.8967C70.8666 79.2359 70.3238 79.0651 70.1318 79.5771Z" fill="white" stroke="#263238" stroke-width="0.6" stroke-miterlimit="10" stroke-linecap="round" stroke-linejoin="round"/>
<path d="M71.0275 79.8329C71.0275 79.8329 70.7958 80.9132 71.3475 81.3686C71.7328 81.687 71.9533 80.792 71.8595 80.1526C71.7625 79.4918 71.2195 79.3209 71.0275 79.8329Z" fill="white" stroke="#263238" stroke-width="0.6" stroke-miterlimit="10" stroke-linecap="round" stroke-linejoin="round"/>
<path d="M71.9235 80.2169C71.9235 80.2169 71.6918 81.2973 72.2435 81.7526C72.6288 82.071 72.8493 81.176 72.7555 80.5366C72.6586 79.8758 72.1155 79.7049 71.9235 80.2169Z" fill="white" stroke="#263238" stroke-width="0.6" stroke-miterlimit="10" stroke-linecap="round" stroke-linejoin="round"/>
<path d="M72.8106 80.7385C72.8106 80.7385 72.5978 81.4671 73.1046 81.7743C73.4589 81.9891 73.6614 81.3855 73.5754 80.9542C73.4864 80.5084 72.9872 80.3932 72.8106 80.7385Z" fill="white" stroke="#263238" stroke-width="0.6" stroke-miterlimit="10" stroke-linecap="round" stroke-linejoin="round"/>
<path d="M76.3392 76.9534L76.5312 81.0488L77.9389 80.6648L77.6189 76.8894L76.3392 76.9534Z" stroke="#263238" stroke-width="0.6" stroke-miterlimit="10" stroke-linecap="round" stroke-linejoin="round"/>
<path d="M77.2989 76.5692L77.9389 81.4326L88.6259 80.2809L88.8819 73.9456L77.2989 76.5692Z" fill="#263238" stroke="#263238" stroke-width="0.6" stroke-miterlimit="10" stroke-linecap="round" stroke-linejoin="round"/>
<path d="M58.5597 95.959C58.5597 95.959 56.6217 108.913 56.6217 113.299C56.6217 117.685 53.6637 125.029 53.5616 129.109" stroke="white" stroke-width="0.6" stroke-miterlimit="10" stroke-linecap="round" stroke-linejoin="round"/>
<path d="M47.1357 139.207C47.6458 139.615 59.0698 139.615 60.0899 139.003C61.1101 138.391 60.6 137.575 60.192 137.575C59.784 137.575 54.6838 134.209 54.6838 134.209C54.6838 134.209 51.9299 136.351 50.3997 136.861C48.8698 137.371 46.4218 137.473 46.4218 137.473V138.085C46.4218 138.085 46.6256 138.799 47.1357 139.207Z" fill="white" stroke="#263238" stroke-width="0.6" stroke-miterlimit="10" stroke-linecap="round" stroke-linejoin="round"/>
<path d="M60.0896 139.003C60.6275 138.681 60.7379 138.302 60.6643 138.015C59.5264 138.261 58.0137 138.442 56.1117 138.493C53.0301 138.576 48.1824 138.388 46.5062 138.316C46.6086 138.56 46.8086 138.946 47.1357 139.207C47.6454 139.615 59.0697 139.615 60.0896 139.003Z" fill="white" stroke="#263238" stroke-width="0.6" stroke-miterlimit="10" stroke-linecap="round" stroke-linejoin="round"/>
<path d="M46.1251 138.165L46.4218 137.473L46.8298 129.109C46.8298 129.109 44.9936 135.637 44.8918 137.167C44.8173 138.281 45.6598 138.26 46.1251 138.165Z" fill="#263238" stroke="#263238" stroke-width="0.6" stroke-miterlimit="10" stroke-linecap="round" stroke-linejoin="round"/>
<path d="M90.1802 93.4089C90.1802 93.4089 89.16 108.607 90.1802 114.727C91.2003 120.847 93.7501 131.455 94.1581 132.781C94.5661 134.107 94.464 135.229 94.464 135.229L100.176 136.045C100.176 136.045 98.4419 115.951 98.4419 113.605C98.4419 111.259 100.38 93.7145 100.38 93.7145L90.1802 93.4089Z" fill="#263238" stroke="#263238" stroke-width="0.6" stroke-miterlimit="10" stroke-linecap="round" stroke-linejoin="round"/>
<path d="M94.464 135.229C94.464 135.229 88.2419 137.882 87.528 138.391C86.8141 138.901 89.0579 139.615 91.8122 139.615C94.5661 139.615 97.3203 139.309 97.3203 139.309L98.4422 138.697L98.5443 139.411H101.502C101.502 139.411 102.012 136.963 101.808 136.351C101.604 135.739 101.298 135.127 101.298 135.127L94.464 135.229Z" fill="#263238" stroke="#263238" stroke-width="0.6" stroke-miterlimit="10" stroke-linecap="round" stroke-linejoin="round"/>
<path d="M89.2621 92.1849C89.2621 92.1849 89.7722 106.771 90.9962 111.973C92.2202 117.175 94.3622 129.823 94.3622 131.149C94.3622 132.475 94.0563 133.394 94.0563 133.394L93.6483 134.72C93.7504 135.23 93.9542 135.638 93.9542 135.638C93.9542 135.638 96.6064 136.25 98.3402 136.25C100.074 136.25 101.548 135.768 101.548 135.768C101.548 135.768 101.604 132.578 101.706 131.048C101.808 129.518 101.298 119.726 101.298 117.38C101.298 115.034 100.686 113.708 100.686 110.852C100.686 107.996 100.176 100.346 100.278 99.1216C100.38 97.8976 101.808 96.5715 102.115 95.0416C102.42 93.5116 102.727 91.8796 102.727 91.8796L89.2621 92.1849Z" fill="#263238" stroke="#263238" stroke-width="0.6" stroke-miterlimit="10" stroke-linecap="round" stroke-linejoin="round"/>
<path d="M90.4845 107.524C90.4845 107.524 93.3354 127.303 94.0483 128.55C94.761 129.798 94.3619 131.149 94.3619 131.149" stroke="white" stroke-width="0.6" stroke-miterlimit="10" stroke-linecap="round" stroke-linejoin="round"/>
<path d="M86.8141 80.659C86.8141 80.659 86.4317 84.5604 86.4317 87.5441C86.4317 89.2071 86.416 91.3691 86.4019 92.9572C86.3901 94.2894 87.3216 95.4436 88.6265 95.7118C89.303 95.8507 90.0333 95.9591 90.6649 95.9591L88.2678 81.1179C88.2678 81.1179 87.1965 79.2817 86.8141 80.659Z" fill="#263238" stroke="#263238" stroke-width="0.6" stroke-miterlimit="10" stroke-linecap="round" stroke-linejoin="round"/>
<path d="M98.136 54.0874C98.136 54.0874 99.207 54.6484 99.7171 55.2606C100.227 55.8724 100.788 56.9435 100.788 56.9435C100.788 56.9435 105.123 61.9415 105.225 62.4516C105.327 62.9617 102.777 79.0266 102.777 79.0266L105.684 94.2247C105.684 94.2247 100.992 96.8257 97.4224 96.9787C94.9082 97.0865 91.1293 96.2836 89.1139 95.7991C88.2848 95.5998 87.6774 94.8983 87.5987 94.0491C87.4013 91.914 87.0307 87.6628 86.8141 83.6161C86.5629 78.9271 87.273 69.642 87.783 66.378C88.2931 63.114 89.8739 58.6769 91.0979 56.8411C92.3219 55.0055 95.688 53.1185 98.136 54.0874Z" fill="#263238" stroke="#263238" stroke-width="0.6" stroke-miterlimit="10" stroke-linecap="round" stroke-linejoin="round"/>
<path d="M100.788 56.9437C100.788 56.9437 100.227 55.8726 99.7171 55.2608C99.207 54.6486 98.136 54.0877 98.136 54.0877C96.1024 53.2825 93.4393 54.4496 91.8928 55.92C91.6909 56.3753 90.0771 60.0547 89.3126 63.0637C88.4966 66.2768 88.5987 70.3056 88.5987 70.3056C88.5987 70.3056 91.3017 66.8377 94.9737 62.7574C97.416 60.0438 99.6989 58.1212 100.955 57.1369C100.85 57.0144 100.788 56.9437 100.788 56.9437Z" fill="#263238"/>
<mask id="mask15_1_190" style="mask-type:luminance" maskUnits="userSpaceOnUse" x="88" y="53" width="13" height="18">
<path d="M100.788 56.9437C100.788 56.9437 100.227 55.8726 99.7171 55.2608C99.207 54.6486 98.136 54.0877 98.136 54.0877C96.1024 53.2825 93.4393 54.4496 91.8928 55.92C91.6909 56.3753 90.0771 60.0547 89.3126 63.0637C88.4966 66.2768 88.5987 70.3056 88.5987 70.3056C88.5987 70.3056 91.3017 66.8377 94.9737 62.7574C97.416 60.0438 99.6989 58.1212 100.955 57.1369C100.85 57.0144 100.788 56.9437 100.788 56.9437Z" fill="white"/>
</mask>
<g mask="url(#mask15_1_190)">
<path opacity="0.17" d="M100.788 56.9437C100.788 56.9437 100.227 55.8726 99.7171 55.2608C99.207 54.6486 98.136 54.0877 98.136 54.0877C96.1024 53.2825 93.4393 54.4496 91.8928 55.92C91.6909 56.3753 90.0771 60.0547 89.3126 63.0637C88.4966 66.2768 88.5987 70.3056 88.5987 70.3056C88.5987 70.3056 91.3017 66.8377 94.9737 62.7574C97.416 60.0438 99.6989 58.1212 100.955 57.1369C100.85 57.0144 100.788 56.9437 100.788 56.9437Z" fill="white"/>
</g>
<path d="M100.788 56.9437C100.788 56.9437 100.227 55.8726 99.7171 55.2608C99.207 54.6486 98.136 54.0877 98.136 54.0877C96.1024 53.2825 93.4393 54.4496 91.8928 55.92C91.6909 56.3753 90.0771 60.0547 89.3126 63.0637C88.4966 66.2768 88.5987 70.3056 88.5987 70.3056C88.5987 70.3056 91.3017 66.8377 94.9737 62.7574C97.416 60.0438 99.6989 58.1212 100.955 57.1369C100.85 57.0144 100.788 56.9437 100.788 56.9437Z" stroke="#263238" stroke-width="0.6" stroke-miterlimit="10" stroke-linecap="round" stroke-linejoin="round"/>
<path d="M91.5571 58.2824C91.5571 58.2824 90.1802 62.6046 89.7594 63.8286C89.3386 65.0526 89.3005 66.9652 89.3005 66.9652C89.3005 66.9652 94.4643 59.2385 95.7264 57.938C96.9888 56.6376 98.6336 54.6104 98.6336 54.6104L97.5245 54.3044L91.5571 58.2824Z" fill="white" stroke="#263238" stroke-width="0.6" stroke-miterlimit="10" stroke-linecap="round" stroke-linejoin="round"/>
<path d="M91.9395 56.7139C91.9395 56.7139 91.3274 58.5116 91.3274 58.6265C91.3274 58.7414 91.1744 60.4627 91.1744 60.4627L93.3546 57.5174L91.9395 56.7139Z" fill="white" stroke="#263238" stroke-width="0.6" stroke-miterlimit="10" stroke-linecap="round" stroke-linejoin="round"/>
<path d="M97.4857 53.1184L91.5187 57.9763L92.4368 60.6538L98.5568 54.4189L97.4857 53.1184Z" fill="white" stroke="#263238" stroke-width="0.6" stroke-miterlimit="10" stroke-linecap="round" stroke-linejoin="round"/>
<path d="M96.7149 91.6477C96.7149 91.6477 95.8653 93.7559 95.6134 94.4483C95.3616 95.1405 95.4877 97.8468 95.519 98.13C95.5504 98.4132 96.0541 98.4762 96.0541 98.4762C96.0541 98.4762 96.2115 100.647 96.4003 100.71C96.5891 100.773 96.9981 100.805 96.9981 100.805C96.9981 100.805 97.3443 101.906 97.7846 101.812C98.2253 101.717 98.288 101.214 98.288 101.214C98.288 101.214 98.76 101.277 99.0432 100.868C99.3264 100.459 99.4838 100.018 99.4838 100.018C99.4838 100.018 100.239 99.6407 100.302 99.3575C100.365 99.0743 100.554 98.0672 100.554 98.0672C100.554 98.0672 100.774 98.0042 100.774 97.3434C100.774 96.6826 100.271 92.6234 100.271 92.6234L96.7149 91.6477Z" fill="#FFB97B" stroke="#263238" stroke-width="0.6" stroke-miterlimit="10" stroke-linecap="round" stroke-linejoin="round"/>
<path d="M96.0541 98.4761L96.1469 96.5635" stroke="#263238" stroke-width="0.6" stroke-miterlimit="10" stroke-linecap="round" stroke-linejoin="round"/>
<path d="M96.9981 100.804L97.2032 97.9722" stroke="#263238" stroke-width="0.6" stroke-miterlimit="10" stroke-linecap="round" stroke-linejoin="round"/>
<path d="M98.288 101.214L98.4358 98.1482" stroke="#263238" stroke-width="0.6" stroke-miterlimit="10" stroke-linecap="round" stroke-linejoin="round"/>
<path d="M99.4838 100.018L99.6682 97.8843" stroke="#263238" stroke-width="0.6" stroke-miterlimit="10" stroke-linecap="round" stroke-linejoin="round"/>
<path d="M102.93 61.0745L105.225 62.4514L104.46 78.3125L100.38 93.3068L96.504 92.2866L97.728 80.4546L97.1158 68.5205C97.1158 68.5205 97.9827 65.741 99.9718 64.2111" fill="#263238"/>
<path d="M102.93 61.0745L105.225 62.4514L104.46 78.3125L100.38 93.3068L96.504 92.2866L97.728 80.4546L97.1158 68.5205C97.1158 68.5205 97.9827 65.741 99.9718 64.2111" stroke="#263238" stroke-width="0.6" stroke-miterlimit="10" stroke-linecap="round" stroke-linejoin="round"/>
<path d="M98.2125 63.752C98.2125 63.752 97.167 66.4041 97.1158 68.5206" stroke="white" stroke-width="0.6" stroke-miterlimit="10" stroke-linecap="round" stroke-linejoin="round"/>
<path d="M99.0819 65.0156C99.0819 65.0156 97.295 67.9311 97.295 69.2476C97.295 70.5641 97.7654 81.5676 97.7654 81.5676L96.5427 91.0662" stroke="white" stroke-width="0.6" stroke-miterlimit="10" stroke-linecap="round" stroke-linejoin="round"/>
<path d="M87.9997 43.4031C87.9997 43.4031 86.7757 46.884 86.8902 47.381C87.0051 47.8783 87.1197 48.6434 87.1197 48.6434C87.1197 48.6434 85.207 51.0149 85.4368 51.2827C85.6662 51.5506 86.7373 51.8565 86.7373 51.8565C86.7373 51.8565 87.617 55.5285 87.9613 55.8728C88.3056 56.2171 90.4477 55.452 90.4477 55.452L92.7427 58.3592L97.4474 53.8456L96.8736 51.4741C96.8736 51.4741 99.36 47.1135 99.3216 45.0482C99.2832 42.9826 95.0374 40.2287 92.0157 40.2667C88.9939 40.3051 86.1635 41.4143 86.7373 42.2175C87.3114 43.0207 87.9997 43.4031 87.9997 43.4031Z" fill="#FFB97B"/>
<mask id="mask16_1_190" style="mask-type:luminance" maskUnits="userSpaceOnUse" x="85" y="40" width="15" height="19">
<path d="M87.9997 43.4031C87.9997 43.4031 86.7757 46.884 86.8902 47.381C87.0051 47.8783 87.1197 48.6434 87.1197 48.6434C87.1197 48.6434 85.207 51.0149 85.4368 51.2827C85.6662 51.5506 86.7373 51.8565 86.7373 51.8565C86.7373 51.8565 87.617 55.5285 87.9613 55.8728C88.3056 56.2171 90.4477 55.452 90.4477 55.452L92.7427 58.3592L97.4474 53.8456L96.8736 51.4741C96.8736 51.4741 99.36 47.1135 99.3216 45.0482C99.2832 42.9826 95.0374 40.2287 92.0157 40.2667C88.9939 40.3051 86.1635 41.4143 86.7373 42.2175C87.3114 43.0207 87.9997 43.4031 87.9997 43.4031Z" fill="white"/>
</mask>
<g mask="url(#mask16_1_190)">
<path d="M97.8352 42.6575C97.2758 42.7423 96.7034 42.8911 96.144 43.1375L91.6349 44.9627C91.6349 44.9627 89.4877 46.788 89.7024 48.1835C89.9171 49.5794 91.8496 51.5119 91.4201 52.9074C90.9907 54.3032 88.3065 55.8063 88.3065 55.8063L89.1485 55.8367C89.7923 55.6856 90.448 55.452 90.448 55.452L90.7987 55.8962L95.1462 56.0533L97.4477 53.8453L96.8739 51.4738C96.8739 51.4738 99.3603 47.1132 99.3219 45.0479C99.3078 44.2866 98.7209 43.4316 97.8352 42.6575Z" fill="#FF8234"/>
</g>
<path d="M87.9997 43.4031C87.9997 43.4031 86.7757 46.884 86.8902 47.381C87.0051 47.8783 87.1197 48.6434 87.1197 48.6434C87.1197 48.6434 85.207 51.0149 85.4368 51.2827C85.6662 51.5506 86.7373 51.8565 86.7373 51.8565C86.7373 51.8565 87.617 55.5285 87.9613 55.8728C88.3056 56.2171 90.4477 55.452 90.4477 55.452L92.7427 58.3592L97.4474 53.8456L96.8736 51.4741C96.8736 51.4741 99.36 47.1135 99.3216 45.0482C99.2832 42.9826 95.0374 40.2287 92.0157 40.2667C88.9939 40.3051 86.1635 41.4143 86.7373 42.2175C87.3114 43.0207 87.9997 43.4031 87.9997 43.4031Z" stroke="#263238" stroke-width="0.6" stroke-miterlimit="10" stroke-linecap="round" stroke-linejoin="round"/>
<path d="M96.8739 51.4736C96.8739 51.4736 99.3603 47.113 99.3219 45.0477C99.2835 42.9821 95.0378 40.2282 92.016 40.2663C88.9942 40.3047 86.1638 41.4138 86.7376 42.217C87.3114 43.0202 88 43.4029 88 43.4029C88 43.4029 89.8742 44.2826 89.8742 44.512C89.8742 44.7415 88.7651 45.9655 89.1475 46.5011C89.5299 47.0365 91.3661 47.6871 91.3661 47.6871C91.3661 47.6871 91.0602 48.7197 91.519 48.8346C91.9779 48.9495 92.2077 48.4903 92.5136 48.1843C92.8195 47.8784 93.8906 47.4576 94.0435 48.7581C94.1965 50.0586 93.5082 51.2826 93.3549 51.3975C93.2019 51.5123 95.3056 52.9274 96.2237 52.5066C96.4656 52.3959 96.7443 52.2531 97.0262 52.1031L96.8739 51.4736Z" fill="#263238" stroke="#263238" stroke-width="0.6" stroke-miterlimit="10" stroke-linecap="round" stroke-linejoin="round"/>
<path d="M87.6937 49.5995C87.8417 49.5995 87.9616 49.1371 87.9616 48.5668C87.9616 47.9965 87.8417 47.5342 87.6937 47.5342C87.5458 47.5342 87.4259 47.9965 87.4259 48.5668C87.4259 49.1371 87.5458 49.5995 87.6937 49.5995Z" stroke="#263238" stroke-width="0.6" stroke-miterlimit="10" stroke-linecap="round" stroke-linejoin="round"/>
<path d="M87.9997 48.146L92.5133 48.1844" stroke="#263238" stroke-width="0.6" stroke-miterlimit="10" stroke-linecap="round" stroke-linejoin="round"/>
<path d="M87.2582 46.902C87.2582 46.902 87.6861 46.2175 88.1139 47.0732" stroke="#263238" stroke-width="0.6" stroke-miterlimit="10" stroke-linecap="round" stroke-linejoin="round"/>
<path d="M87.1728 52.4636C87.1728 52.4636 87.8573 52.207 88.4563 51.6934" stroke="#263238" stroke-width="0.6" stroke-miterlimit="10" stroke-linecap="round" stroke-linejoin="round"/>
<path d="M17.0451 139.615H142.99" stroke="#263238" stroke-width="2" stroke-miterlimit="10"/>
</svg>
