<svg width="160" height="160" viewBox="0 0 160 160" fill="none" xmlns="http://www.w3.org/2000/svg">
<path d="M76.928 57.9236C78.04 56.601 82.2605 55.7159 84.5907 57.8052C84.5907 57.8052 83.7879 56.5649 84.5907 55.505C84.5907 55.505 83.5309 56.1933 82.5837 55.505C81.6365 54.8167 81.4096 51.3767 81.4096 51.3767C81.4096 51.3767 81.1869 54.8708 79.6295 55.1901C78.072 55.5092 77.0746 53.2935 77.0746 53.2935C77.0746 53.2935 77.9216 55.7239 77.4979 56.1034C77.0746 56.4826 76.2275 56.1034 76.2275 56.1034L76.928 57.9236Z" fill="#E0E0E0"/>
<path d="M73.8656 61.2934C73.8656 61.2934 72.3322 64.2697 73.8656 66.9312C73.2227 66.5203 72.425 66.4329 71.7082 66.6944C71.7082 66.6944 72.3104 66.0582 72.224 65.3836C72.1376 64.7094 69.3661 63.7561 69.3661 63.7561C69.3661 63.7561 71.5498 63.9568 72.0253 63.2003C72.5008 62.4435 70.8211 60.9785 70.8211 60.9785C70.8211 60.9785 72.6576 61.9699 73.055 61.6528C73.4525 61.3356 73.055 60.342 73.055 60.342L73.8656 61.2934Z" fill="#E0E0E0"/>
<path d="M87.5837 67.288C87.5837 67.288 89.1332 65.1405 87.9009 61.879L88.9645 61.241C88.9645 61.241 88.5633 61.9213 88.8058 62.353C89.0487 62.7843 91.3066 62.4854 91.3066 62.4854C91.3066 62.4854 89.5204 62.8448 89.4423 63.7878C89.3639 64.7312 91.6641 66.1101 91.6641 66.1101C91.6641 66.1101 89.5607 65.5843 89.1252 66.1101C88.6897 66.6358 89.6209 67.6554 89.6209 67.6554C89.6209 67.6554 88.5773 66.9066 87.5837 67.288Z" fill="#E0E0E0"/>
<path d="M26.2435 46.0438C25.4032 47.3235 24.8381 48.7292 24.537 50.1791L22.2279 50.3968L22.2275 54.8687L24.537 55.0863C24.8378 56.5359 25.4032 57.9417 26.2435 59.2217L24.7687 61.0031L27.9309 64.1654L29.7123 62.6905C30.9923 63.5308 32.3978 64.0959 33.8477 64.3967L34.065 66.7062L38.537 66.7059L38.7546 64.3967C40.2045 64.0956 41.6103 63.5305 42.8899 62.6902L44.6714 64.1651L47.8339 61.0028L46.3591 59.2214C47.1991 57.9414 47.7645 56.5359 48.0653 55.086L50.3744 54.8684L50.3747 50.3964L48.0656 50.1788C47.7645 48.7292 47.1991 47.3238 46.3587 46.0438L47.8336 44.262L44.6714 41.0998L42.8899 42.5747C41.6099 41.7344 40.2042 41.1689 38.7546 40.8678L38.537 38.5583L34.0647 38.5587L33.8474 40.8678C32.3978 41.1689 30.992 41.7337 29.7123 42.5743L27.9306 41.0995L24.7683 44.262L26.2435 46.0438ZM40.5821 48.3516C42.9459 50.7158 42.9463 54.5494 40.5821 56.9135C38.2176 59.278 34.3843 59.2777 32.0202 56.9139C29.656 54.5494 29.656 50.7164 32.0202 48.352C34.3847 45.9875 38.2176 45.9875 40.5821 48.3516Z" fill="#E0E0E0"/>
<path d="M53.8822 24.4545C53.4246 25.1515 53.1168 25.9169 52.9529 26.7067L51.6953 26.8251V29.2606L52.9532 29.379C53.1171 30.1684 53.4249 30.9339 53.8825 31.6311L53.0793 32.6014L54.8016 34.3236L55.7718 33.5204C56.4688 33.978 57.2342 34.2859 58.024 34.4497L58.1424 35.7076H60.5779L60.6963 34.45C61.4857 34.2859 62.2515 33.9783 62.9484 33.5207L63.9187 34.3239L65.6409 32.6017L64.8377 31.6315C65.2953 30.9345 65.6032 30.1687 65.767 29.3793L67.0246 29.2609L67.0249 26.8254L65.7673 26.707C65.6035 25.9175 65.2953 25.1521 64.8377 24.4551L65.6409 23.4849L63.9187 21.7627L62.9484 22.5659C62.2512 22.1083 61.4857 21.8001 60.6963 21.6363L60.5779 20.3787H58.1424L58.024 21.6363C57.2345 21.8001 56.4691 22.1079 55.7718 22.5655L54.8016 21.7623L53.0793 23.4846L53.8822 24.4545ZM61.6912 25.7115C62.9785 26.9991 62.9788 29.0868 61.6912 30.3742C60.4035 31.6619 58.3158 31.6619 57.0281 30.3742C55.7404 29.0865 55.7404 26.9988 57.0281 25.7111C58.3161 24.4241 60.4035 24.4241 61.6912 25.7115Z" fill="#F0F0F0"/>
<path d="M98.561 70.629C98.2394 71.1189 98.0231 71.6568 97.9076 72.212L97.0234 72.2952V74.0072L97.9076 74.0904C98.0228 74.6453 98.2391 75.1835 98.561 75.6734L97.9966 76.3554L99.2071 77.5659L99.889 77.0014C100.379 77.323 100.917 77.5397 101.472 77.6546L101.555 78.5387H103.267L103.35 77.6549C103.905 77.5397 104.444 77.3234 104.934 77.0014L105.615 77.5659L106.826 76.3554L106.262 75.6734C106.583 75.1835 106.799 74.6453 106.915 74.0904L107.798 74.0072V72.2952L106.915 72.212C106.799 71.6571 106.583 71.1189 106.261 70.6293L106.826 69.9474L105.615 68.7368L104.933 69.3013C104.443 68.9797 103.905 68.763 103.35 68.6478L103.267 67.7637H101.555L101.472 68.6475C100.917 68.7627 100.379 68.979 99.8887 69.3006L99.2068 68.7362L97.9962 69.9467L98.561 70.629ZM104.05 71.5125C104.955 72.4174 104.955 73.885 104.05 74.7899C103.145 75.6949 101.677 75.6949 100.772 74.7899C99.8673 73.885 99.8673 72.4174 100.772 71.5125C101.678 70.6075 103.145 70.6075 104.05 71.5125Z" fill="#E0E0E0"/>
<path d="M93.8513 84.8824C93.3937 85.5793 93.0858 86.3448 92.9217 87.1346L91.6641 87.2529V89.6885L92.922 89.8069C93.0858 90.5963 93.3937 91.3617 93.8513 92.059L93.0481 93.0293L94.7703 94.7515L95.7405 93.9483C96.4375 94.4059 97.2029 94.7137 97.9927 94.8776L98.1111 96.1355H100.547L100.665 94.8779C101.454 94.7141 102.22 94.4062 102.917 93.9483L103.887 94.7515L105.61 93.0293L104.806 92.059C105.264 91.3621 105.572 90.5966 105.736 89.8069L106.993 89.6885L106.994 87.2529L105.736 87.1342C105.572 86.3448 105.264 85.5793 104.806 84.8824L105.61 83.9121L103.887 82.1899L102.917 82.9931C102.22 82.5355 101.454 82.2273 100.665 82.0635L100.547 80.8059H98.1111L97.9927 82.0635C97.2033 82.2273 96.4378 82.5352 95.7405 82.9928L94.7703 82.1896L93.0481 83.9118L93.8513 84.8824ZM101.66 86.1393C102.948 87.427 102.948 89.5147 101.66 90.8024C100.373 92.0901 98.2849 92.0901 96.9972 90.8024C95.7095 89.5147 95.7095 87.4273 96.9972 86.1393C98.2849 84.8517 100.373 84.8517 101.66 86.1393Z" fill="#E0E0E0"/>
<path d="M111.948 80.1047C111.302 81.089 110.867 82.1706 110.636 83.2858L108.859 83.4532V86.8935L110.636 87.0608C110.867 88.176 111.302 89.2573 111.948 90.2423L110.814 91.6128L113.247 94.0455L114.617 92.9108C115.602 93.5572 116.683 93.992 117.798 94.2234L117.966 96H121.406L121.573 94.2237C122.689 93.992 123.77 93.5572 124.755 92.9108L126.125 94.0455L128.558 91.6128L127.423 90.2423C128.07 89.2576 128.505 88.1764 128.736 87.0612L130.512 86.8938L130.513 83.4535L128.736 83.2861C128.505 82.1709 128.07 81.0896 127.423 80.105L128.558 78.7344L126.125 76.3018L124.755 77.4365C123.77 76.7901 122.689 76.3549 121.574 76.1236L121.406 74.3469L117.966 74.3472L117.799 76.1239C116.684 76.3556 115.602 76.7901 114.618 77.4365L113.247 76.3018L110.814 78.7348L111.948 80.1047ZM122.979 81.8804C124.797 83.6992 124.797 86.648 122.979 88.4669C121.16 90.2858 118.211 90.2858 116.392 88.4669C114.573 86.648 114.573 83.6992 116.392 81.8804C118.211 80.0615 121.16 80.0615 122.979 81.8804Z" fill="#F0F0F0"/>
<path d="M94.6119 27.5388C94.0759 28.3548 93.7155 29.2511 93.5235 30.1756L92.0509 30.3142V33.1657L93.5235 33.3046C93.7152 34.2291 94.0759 35.1254 94.6119 35.9414L93.6714 37.0774L95.6877 39.0937L96.8237 38.1532C97.6397 38.6889 98.536 39.0495 99.4605 39.2412L99.5991 40.7139L102.451 40.7135L102.589 39.2412C103.514 39.0492 104.41 38.6889 105.227 38.1529L106.363 39.0934L108.379 37.0771L107.439 35.9411C107.974 35.1251 108.335 34.2287 108.527 33.3043L109.999 33.1654L109.999 30.3139L108.527 30.175C108.335 29.2508 107.974 28.3545 107.439 27.5382L108.379 26.4022L106.363 24.3859L105.227 25.3263C104.411 24.7907 103.514 24.43 102.59 24.238L102.452 22.7654H99.5997L99.4611 24.238C98.5367 24.43 97.6403 24.7903 96.8243 25.3263L95.6883 24.3859L93.672 26.4025L94.6119 27.5388ZM103.755 29.0105C105.262 30.518 105.262 32.9625 103.755 34.47C102.247 35.9775 99.8029 35.9775 98.2954 34.47C96.7879 32.9625 96.7879 30.518 98.2954 29.0105C99.8029 27.503 102.247 27.503 103.755 29.0105Z" fill="#F0F0F0"/>
<path d="M21.7773 89.0326C21.2714 89.8029 20.9312 90.6489 20.7501 91.5216L19.3604 91.6525V94.344L20.7504 94.4749C20.9316 95.3475 21.2717 96.1933 21.7776 96.9638L20.89 98.0361L22.7933 99.9395L23.8656 99.0518C24.6359 99.5574 25.482 99.8979 26.3546 100.079L26.4855 101.469L29.177 101.468L29.3079 100.079C30.1805 99.8976 31.0266 99.5574 31.7968 99.0515L32.8692 99.9392L34.7725 98.0358L33.8848 96.9635C34.3904 96.1933 34.7306 95.3472 34.9117 94.4745L36.3015 94.3437L36.3018 91.6521L34.912 91.5213C34.7309 90.6489 34.3904 89.8029 33.8848 89.0326L34.7725 87.9603L32.8692 86.0569L31.7968 86.9446C31.0263 86.439 30.1805 86.0985 29.3079 85.9174L29.177 84.5273H26.4855L26.3546 85.9171C25.482 86.0982 24.6362 86.4384 23.866 86.9443L22.7936 86.0566L20.8903 87.96L21.7773 89.0326ZM30.4074 90.4217C31.8301 91.8448 31.8304 94.152 30.4074 95.5747C28.9844 96.9977 26.6772 96.9977 25.2541 95.5747C23.8311 94.1517 23.8311 91.8448 25.2541 90.4214C26.6772 88.9987 28.9844 88.9987 30.4074 90.4217Z" fill="#F0F0F0"/>
<path d="M142.054 105.663H84.2157C83.1814 105.663 82.3398 104.822 82.3398 103.788V19.5399C82.3398 18.5057 83.1814 17.6641 84.2157 17.6641H142.054C143.089 17.6641 143.93 18.5053 143.93 19.5399V103.787C143.931 104.822 143.089 105.663 142.054 105.663ZM84.2157 17.7441C83.2253 17.7441 82.4198 18.5498 82.4198 19.5399V103.787C82.4198 104.778 83.2256 105.583 84.2157 105.583H142.054C143.045 105.583 143.85 104.777 143.85 103.787V19.5399C143.85 18.5498 143.044 17.7441 142.054 17.7441H84.2157Z" fill="#E0E0E0"/>
<path d="M75.3577 105.663H17.5187C16.4844 105.663 15.6428 104.822 15.6428 103.788V19.5399C15.6428 18.5057 16.4841 17.6641 17.5187 17.6641H75.3577C76.3919 17.6641 77.2335 18.5053 77.2335 19.5399V103.787C77.2335 104.822 76.3919 105.663 75.3577 105.663ZM17.5187 17.7441C16.5286 17.7441 15.7228 18.5498 15.7228 19.5399V103.787C15.7228 104.778 16.5286 105.583 17.5187 105.583H75.3577C76.3481 105.583 77.1535 104.777 77.1535 103.787V19.5399C77.1535 18.5498 76.3478 17.7441 75.3577 17.7441H17.5187Z" fill="#E0E0E0"/>
<path d="M160 125.206H0V125.286H160V125.206Z" fill="#E0E0E0"/>
<path d="M21.6742 129.77H16.535V129.85H21.6742V129.77Z" fill="#E0E0E0"/>
<path d="M71.6423 128.903H54.5127V128.983H71.6423V128.903Z" fill="#E0E0E0"/>
<path d="M33.5943 132.743H21.9943V132.823H33.5943V132.743Z" fill="#E0E0E0"/>
<path d="M134.893 128.861H121.073V128.941H134.893V128.861Z" fill="#E0E0E0"/>
<path d="M139.77 128.861H137.745V128.941H139.77V128.861Z" fill="#E0E0E0"/>
<path d="M118.433 130.855H101.188V130.935H118.433V130.855Z" fill="#E0E0E0"/>
<path d="M146.84 142.315C146.84 143.399 116.915 144.278 80 144.278C43.0855 144.278 13.16 143.399 13.16 142.315C13.16 141.231 43.0852 140.353 80 140.353C116.915 140.353 146.84 141.231 146.84 142.315Z" fill="#F5F5F5"/>
<path d="M83.3763 74.4028C83.3763 75.2153 82.2464 75.8668 80.8727 75.8451C79.4989 75.823 78.3959 75.1593 78.4055 74.3468C78.4154 73.5344 79.5354 72.8828 80.9066 72.9072C82.2784 72.9312 83.3859 73.5926 83.3763 74.4028Z" fill="#263238"/>
<path d="M84.4499 71.7234C84.5846 71.5954 84.6659 71.421 84.6768 71.2354C84.6768 70.4399 83.0003 69.7714 80.9117 69.7519C78.823 69.7324 77.1219 70.3545 77.1123 71.15C77.1206 71.3343 77.1981 71.5084 77.3296 71.638C77.2902 71.7135 77.2675 71.7967 77.2637 71.8822C77.2688 72.0681 77.3491 72.2441 77.4857 72.3701C77.4413 72.4492 77.4173 72.5381 77.415 72.6287C77.4205 72.8162 77.5037 72.9929 77.6445 73.1167C77.5952 73.1958 77.568 73.2869 77.5664 73.3804C77.5779 73.5653 77.6665 73.7369 77.8102 73.8537C77.7587 73.933 77.7299 74.0249 77.7273 74.1196C77.7273 74.781 79.1206 75.3398 80.8582 75.3545C82.5955 75.3692 84.0086 74.8665 84.016 74.1906C84.0157 74.0956 83.9885 74.0025 83.9379 73.9222C84.0809 73.807 84.1696 73.637 84.1817 73.4537C84.1808 73.3612 84.1565 73.2706 84.111 73.19C84.2525 73.0713 84.3401 72.9007 84.3552 72.7167C84.3545 72.6255 84.3318 72.5362 84.2893 72.4556C84.4304 72.3356 84.5184 72.1644 84.5331 71.9797C84.5251 71.8889 84.4969 71.8012 84.4499 71.7234Z" fill="#263238"/>
<path opacity="0.3" d="M84.4499 71.7234C84.5846 71.5954 84.6659 71.421 84.6768 71.2354C84.6768 70.4399 83.0003 69.7714 80.9117 69.7519C78.823 69.7324 77.1219 70.3545 77.1123 71.15C77.1206 71.3343 77.1981 71.5084 77.3296 71.638C77.2902 71.7135 77.2675 71.7967 77.2637 71.8822C77.2688 72.0681 77.3491 72.2441 77.4857 72.3701C77.4413 72.4492 77.4173 72.5381 77.415 72.6287C77.4205 72.8162 77.5037 72.9929 77.6445 73.1167C77.5952 73.1958 77.568 73.2869 77.5664 73.3804C77.5779 73.5653 77.6665 73.7369 77.8102 73.8537C77.7587 73.933 77.7299 74.0249 77.7273 74.1196C77.7273 74.781 79.1206 75.3398 80.8582 75.3545C82.5955 75.3692 84.0086 74.8665 84.016 74.1906C84.0157 74.0956 83.9885 74.0025 83.9379 73.9222C84.0809 73.807 84.1696 73.637 84.1817 73.4537C84.1808 73.3612 84.1565 73.2706 84.111 73.19C84.2525 73.0713 84.3401 72.9007 84.3552 72.7167C84.3545 72.6255 84.3318 72.5362 84.2893 72.4556C84.4304 72.3356 84.5184 72.1644 84.5331 71.9797C84.5251 71.8889 84.4969 71.8012 84.4499 71.7234Z" fill="white"/>
<path d="M87.5834 64.6956C87.6269 60.9993 84.6656 57.9673 80.969 57.9241C77.2726 57.8805 74.2406 60.8418 74.1971 64.5385C74.1734 66.5445 75.0509 68.4553 76.5875 69.7445C76.8704 69.9778 77.0186 70.3362 76.9827 70.701C76.9814 70.7189 76.9814 70.7369 76.9827 70.7548C76.9827 71.5625 78.6909 72.2383 80.809 72.2629C82.927 72.2873 84.6573 71.6505 84.6669 70.8402C84.6669 70.8233 84.6669 70.806 84.6669 70.789C84.6339 70.4165 84.7907 70.0524 85.0842 69.8204C86.6416 68.5714 87.5584 66.6914 87.5834 64.6956Z" fill="#FFBB00"/>
<path opacity="0.5" d="M87.5875 64.6956C87.631 60.9993 84.6698 57.9673 80.9731 57.9241C77.2768 57.8805 74.2448 60.8418 74.2013 64.5385C74.1776 66.5445 75.055 68.4553 76.5917 69.7445C76.8746 69.9778 77.0227 70.3362 76.9869 70.701C76.9856 70.7189 76.9856 70.7369 76.9869 70.7548C76.9869 71.5625 78.695 72.2383 80.8131 72.2629C82.9312 72.2873 84.6614 71.6505 84.671 70.8402C84.671 70.8233 84.671 70.806 84.671 70.789C84.6381 70.4165 84.7949 70.0524 85.0883 69.8204C86.6461 68.5714 87.5629 66.6914 87.5875 64.6956Z" fill="white"/>
<path opacity="0.2" d="M84.2964 60.8083C84.2964 62.1114 82.7713 63.1706 80.8801 63.1706C78.9889 63.1706 77.4637 62.1114 77.4637 60.8083C77.4637 59.5053 78.9889 58.4438 80.8801 58.4438C82.7713 58.4438 84.2964 59.5031 84.2964 60.8083Z" fill="white"/>
<path d="M75.7901 67.1611C75.2077 66.1624 74.976 64.9634 75.145 63.8197C75.3139 62.676 75.8819 61.595 76.728 60.8069" stroke="white" stroke-width="0.5" stroke-miterlimit="10" stroke-linecap="round" stroke-linejoin="round"/>
<path d="M77.7991 73.8694C79.7383 74.6671 81.9559 74.6937 83.9139 73.9436C81.9988 74.7926 79.6932 74.7641 77.7991 73.8694Z" fill="#263238"/>
<path d="M77.7537 73.1509C79.6929 73.9486 81.9105 73.9752 83.8685 73.2251C81.9533 74.0741 79.6477 74.0456 77.7537 73.1509Z" fill="#263238"/>
<path d="M77.7081 72.4326C79.6473 73.2304 81.8649 73.2569 83.823 72.5069C81.9078 73.3558 79.6022 73.3273 77.7081 72.4326Z" fill="#263238"/>
<path d="M79.4425 70.8443C79.9558 69.0965 80.0461 67.1899 79.7008 65.3893C79.6448 65.0984 79.5136 64.7477 79.2525 64.7413C79.0189 64.7355 78.8653 65.0226 78.815 65.2827C78.6368 66.2027 79.1136 67.1371 79.7238 67.7723C80.0541 68.1163 80.4544 68.4162 80.9014 68.4382C81.3501 68.4603 81.7779 68.1947 82.1027 67.8411C82.7242 67.1646 83.0336 66.1051 82.8086 65.1595C82.7136 64.7598 82.4298 64.3304 82.073 64.4066C81.8579 64.4526 81.7008 64.6798 81.6451 64.9211C81.5898 65.1624 81.617 65.4174 81.6483 65.6642C81.8755 67.4437 82.3101 69.1886 82.9366 70.8389" stroke="#263238" stroke-width="0.5" stroke-miterlimit="10" stroke-linecap="round" stroke-linejoin="round"/>
<path d="M113.438 48.8955C113.637 48.9355 116.446 52.2347 116.446 52.2347L118.854 48.7412L113.438 48.8955Z" fill="#5097F3"/>
<path opacity="0.5" d="M113.438 48.8955C113.637 48.9355 116.446 52.2347 116.446 52.2347L118.854 48.7412L113.438 48.8955Z" fill="white"/>
<path d="M131.284 48.9336H102.697C101.973 48.9336 101.387 48.347 101.387 47.6232V31.723C101.387 30.9995 101.973 30.4126 102.697 30.4126H131.284C132.007 30.4126 132.594 30.9992 132.594 31.723V47.6235C132.594 48.347 132.007 48.9336 131.284 48.9336Z" fill="#5097F3"/>
<path opacity="0.5" d="M131.284 48.9336H102.697C101.973 48.9336 101.387 48.347 101.387 47.6232V31.723C101.387 30.9995 101.973 30.4126 102.697 30.4126H131.284C132.007 30.4126 132.594 30.9992 132.594 31.723V47.6235C132.594 48.347 132.007 48.9336 131.284 48.9336Z" fill="white"/>
<path d="M106.079 40.7003C106.214 40.5784 109.867 36.972 109.867 36.972L113.469 38.7451L116.991 34.6021L120.593 39.7931L124.107 37.5003" stroke="#263238" stroke-width="0.5" stroke-miterlimit="10"/>
<path d="M107.207 42.3237H105.518V46.0658H107.207V42.3237Z" fill="#5097F3"/>
<path d="M110.685 39.8511H108.996V46.0661H110.685V39.8511Z" fill="#5097F3"/>
<path d="M114.228 40.4761H112.539V46.0662H114.228V40.4761Z" fill="#5097F3"/>
<path d="M117.835 36.9717H116.146V46.0661H117.835V36.9717Z" fill="#5097F3"/>
<path d="M121.481 41.7939H119.792V46.0659H121.481V41.7939Z" fill="#5097F3"/>
<path d="M107.27 40.2762C107.27 40.7773 106.864 41.1837 106.363 41.1837C105.861 41.1837 105.455 40.7776 105.455 40.2762C105.455 39.7747 105.861 39.3687 106.363 39.3687C106.864 39.3687 107.27 39.7751 107.27 40.2762Z" fill="#5097F3"/>
<path d="M110.747 36.9717C110.747 37.4729 110.341 37.8793 109.84 37.8793C109.339 37.8793 108.932 37.4729 108.932 36.9717C108.932 36.4706 109.339 36.0642 109.84 36.0642C110.341 36.0645 110.747 36.4706 110.747 36.9717Z" fill="#5097F3"/>
<path d="M114.377 38.4615C114.377 38.9626 113.97 39.369 113.469 39.369C112.968 39.369 112.562 38.9626 112.562 38.4615C112.562 37.9604 112.968 37.554 113.469 37.554C113.97 37.554 114.377 37.9604 114.377 38.4615Z" fill="#5097F3"/>
<path d="M117.898 34.6016C117.898 35.1027 117.492 35.5091 116.99 35.5091C116.489 35.5091 116.083 35.1027 116.083 34.6016C116.083 34.1005 116.489 33.6941 116.99 33.6941C117.492 33.6941 117.898 34.1005 117.898 34.6016Z" fill="#5097F3"/>
<path d="M121.5 39.7928C121.5 40.2939 121.094 40.7003 120.593 40.7003C120.092 40.7003 119.685 40.2939 119.685 39.7928C119.685 39.2917 120.092 38.8853 120.593 38.8853C121.094 38.8853 121.5 39.2917 121.5 39.7928Z" fill="#5097F3"/>
<path d="M125.09 39.6523H123.401V46.0661H125.09V39.6523Z" fill="#5097F3"/>
<path opacity="0.3" d="M110.685 39.8511H108.996V46.0661H110.685V39.8511Z" fill="black"/>
<path opacity="0.3" d="M117.835 36.9717H116.146V46.0661H117.835V36.9717Z" fill="black"/>
<path opacity="0.3" d="M125.09 39.6523H123.401V46.0661H125.09V39.6523Z" fill="black"/>
<path d="M128.827 41.7939H127.138V46.0659H128.827V41.7939Z" fill="#5097F3"/>
<path d="M124.106 37.5L127.982 39.6523" stroke="#263238" stroke-width="0.5" stroke-miterlimit="10"/>
<path d="M125.216 37.5C125.216 38.0012 124.81 38.4076 124.309 38.4076C123.807 38.4076 123.401 38.0012 123.401 37.5C123.401 36.9989 123.807 36.5925 124.309 36.5925C124.81 36.5928 125.216 36.9989 125.216 37.5Z" fill="#5097F3"/>
<path d="M128.89 39.6523C128.89 40.1534 128.483 40.5598 127.982 40.5598C127.481 40.5598 127.075 40.1538 127.075 39.6523C127.075 39.1512 127.481 38.7451 127.982 38.7451C128.483 38.7448 128.89 39.1512 128.89 39.6523Z" fill="#5097F3"/>
<path d="M106.626 123.078V108.189C106.626 107.511 107.407 107.131 107.94 107.55L117.404 114.995C117.817 115.32 117.817 115.946 117.404 116.271L107.94 123.716C107.407 124.135 106.626 123.756 106.626 123.078Z" fill="#0BD02F"/>
<path d="M108.161 111.208H63.5165V120.06H108.161V111.208Z" fill="#0BD02F"/>
<path d="M71.3421 120.074H29.4733L34.2531 115.566L29.4733 111.001H71.3421C89.3161 111.001 103.94 96.3778 103.94 78.4034C103.94 60.4293 89.3165 45.8059 71.3421 45.8059V36.7327C94.3193 36.7327 113.013 55.4261 113.013 78.4034C113.013 101.381 94.3193 120.074 71.3421 120.074Z" fill="#0BD02F"/>
<g opacity="0.4">
<path d="M71.3421 120.074H29.4733L34.2531 115.566L29.4733 111.001H71.3421C89.3161 111.001 103.94 96.3778 103.94 78.4034C103.94 60.4293 89.3165 45.8059 71.3421 45.8059V36.7327C94.3193 36.7327 113.013 55.4261 113.013 78.4034C113.013 101.381 94.3193 120.074 71.3421 120.074Z" fill="white"/>
</g>
<path d="M40.279 107.521C33.2457 99.7209 29.3724 89.6364 29.3724 79.1257C29.3724 59.8687 42.3641 42.9996 60.9657 38.1033L57.84 42.0274L63.3168 47.0348C48.7686 50.8642 38.6083 64.0604 38.6083 79.1257C38.6083 87.3481 41.6374 95.2357 47.1379 101.336L40.279 107.521Z" fill="#0BD02F"/>
<path d="M41.1907 108.049C41.5334 107.964 52.8394 108.049 52.8394 108.049L47.1383 101.336L40.2791 107.521L41.1907 108.049Z" fill="#0BD02F"/>
<path d="M71.519 33.4261L72.357 48.2921C72.3951 48.9689 71.6364 49.3919 71.0809 49.0034L61.2134 42.1033C60.7823 41.8018 60.7471 41.1765 61.1414 40.8287L70.1708 32.8629C70.679 32.4143 71.4806 32.7493 71.519 33.4261Z" fill="#0BD02F"/>
<path opacity="0.4" d="M71.519 33.4261L72.357 48.2921C72.3951 48.9689 71.6364 49.3919 71.0809 49.0034L61.2134 42.1033C60.7823 41.8018 60.7471 41.1765 61.1414 40.8287L70.1708 32.8629C70.679 32.4143 71.4806 32.7493 71.519 33.4261Z" fill="white"/>
<path d="M66.8601 65.1627C68.6034 66.3265 69.1014 67.9995 69.079 69.2107C68.8626 70.8462 68.2956 72.004 67.854 73.5937L63.5167 64.0212C64.5298 64.2222 64.9858 64.0142 66.8601 65.1627Z" fill="#263238"/>
<path d="M64.6854 64.317C62.9865 63.5269 61.3193 64.4591 60.3474 65.1071C59.2838 66.0095 58.6569 67.3237 58.6249 68.7183C58.6249 70.0219 58.6249 71.6024 59.415 72.2818C59.8578 72.6754 60.4457 72.8645 61.0348 72.8034L67.4825 66.8533C66.781 65.7842 65.8182 64.9109 64.6854 64.317Z" fill="#263238"/>
<path d="M64.7955 81.9422C64.2998 82.4536 63.847 82.283 63.1855 82.0123C59.2483 80.5963 60.4134 78.6951 60.4134 78.6951C61.1603 77.8187 61.1929 76.7703 60.9209 75.1726C60.9155 75.1259 60.9135 75.0791 60.9148 75.0321C60.9174 74.8187 60.9859 74.6116 61.111 74.4388C61.4399 73.9575 62.0969 73.8343 62.5782 74.1633L62.5795 74.1643L64.342 74.6679C64.3468 74.6923 64.3516 74.7163 64.3571 74.7435C64.3619 75.6174 64.3369 76.2961 64.343 76.8299C64.3558 76.8935 64.3443 76.9617 64.3471 77.0241C64.3599 77.0878 64.3551 77.1579 64.3551 77.2209C64.3974 77.9521 65.6345 79.0257 66.1385 79.2807C66.4441 79.4555 66.4777 80.2177 64.7955 81.9422Z" fill="#B97964"/>
<path opacity="0.2" d="M64.3408 74.6619C64.3417 74.6888 64.3472 74.7153 64.3564 74.7406C64.3612 75.6145 64.3363 76.2933 64.3424 76.827C64.3388 76.8917 64.3404 76.9566 64.3465 77.0213C64.3504 77.0894 64.3584 77.1569 64.3715 77.2241C63.032 76.86 61.8364 76.0939 60.9456 75.0293C60.9472 74.819 61.0102 74.6142 61.1267 74.4392C61.4512 73.955 62.1059 73.8241 62.5913 74.1464L64.3408 74.6619Z" fill="black"/>
<path d="M59.5899 69.0997C59.6574 72.1141 59.6194 73.3868 61.0514 75.0236C63.2078 77.4818 66.819 76.8258 67.6501 73.8677C68.3765 71.2047 68.1589 66.7314 65.3173 65.3484C62.4757 63.9653 59.525 66.0818 59.5899 69.0997Z" fill="#B97964"/>
<path d="M58.2553 71.6816C58.5602 72.3321 59.1077 72.7708 59.629 72.9494C60.4127 73.2179 60.9353 71.9654 60.7298 71.1398C60.5449 70.3968 59.7983 69.8521 59.0057 69.9436C58.2249 70.0342 57.9068 70.9376 58.2553 71.6816Z" fill="#B97964"/>
<path opacity="0.2" d="M59.9615 71.6635C59.9666 71.3752 59.8534 71.0869 59.6537 70.8792C59.4537 70.6715 59.1698 70.5473 58.8818 70.5413" stroke="black" stroke-width="0.5" stroke-miterlimit="10" stroke-linecap="round" stroke-linejoin="round"/>
<path d="M63.517 70.3975C63.5049 70.7188 63.6559 70.9963 63.8546 71.0174C64.0534 71.0382 64.2239 70.795 64.2364 70.4734C64.2486 70.1521 64.0975 69.8747 63.8988 69.8535C63.7001 69.8327 63.5295 70.0763 63.517 70.3975Z" fill="#263238"/>
<path d="M66.5013 70.6406C66.4901 70.952 66.6418 71.2214 66.8396 71.2425C67.0376 71.2633 67.2072 71.0278 67.2184 70.7164C67.2296 70.4051 67.078 70.1356 66.8802 70.1148C66.6821 70.0937 66.5125 70.3292 66.5013 70.6406Z" fill="#263238"/>
<path d="M62.98 69.2291C63.0181 69.2368 63.0581 69.2288 63.0904 69.2038C63.5932 68.8118 64.1052 69.0077 64.1109 69.0099C64.1868 69.039 64.2693 69.0019 64.2936 68.9238C64.318 68.8461 64.2757 68.7587 64.1989 68.728C64.172 68.7177 63.5298 68.471 62.9061 68.9581C62.844 69.0067 62.8348 69.1011 62.8856 69.1689C62.9103 69.2016 62.9445 69.2221 62.98 69.2291Z" fill="#263238"/>
<path d="M67.6332 69.2073C67.6645 69.1996 67.6917 69.1791 67.7081 69.1471C67.7413 69.0809 67.7151 68.991 67.6495 68.9465C66.9909 68.4991 66.4533 68.7513 66.4306 68.7628C66.3666 68.7938 66.3449 68.8783 66.3817 68.9519C66.4185 69.0255 66.5001 69.0598 66.5637 69.029C66.5845 69.0188 67.0047 68.8303 67.5285 69.1858C67.5625 69.2089 67.6002 69.2156 67.6332 69.2073Z" fill="#263238"/>
<path d="M65.7023 70.4246C65.7023 70.4246 66.0799 71.597 66.5541 72.3481C66.637 72.4793 66.564 72.6546 66.4143 72.6956C66.029 72.8015 65.6024 72.6402 65.6024 72.6402L65.7023 70.4246Z" fill="#A24E3F"/>
<path d="M63.7838 69.8572L64.492 69.752C64.492 69.752 64.0683 70.2374 63.7838 69.8572Z" fill="#263238"/>
<path d="M66.8082 70.1158L67.5164 70.0105C67.5164 70.0105 67.093 70.4959 66.8082 70.1158Z" fill="#263238"/>
<path d="M65.4057 73.4675C65.1558 73.7478 64.8201 74.3139 64.8201 74.3139C64.7632 74.2928 64.7065 74.2717 64.6508 74.2474C63.8883 73.9411 63.6355 73.5469 63.5868 73.2029C63.5609 73.0147 63.5984 72.84 63.6467 72.7046C63.7008 72.5475 63.7753 72.448 63.7753 72.448C64.0825 72.8518 64.7715 73.1923 65.1472 73.3587C65.304 73.4304 65.4057 73.4675 65.4057 73.4675Z" fill="#263238"/>
<path d="M65.1472 73.359L64.968 73.6041C64.2502 73.3138 63.784 73.013 63.6467 72.7049C63.7008 72.5478 63.7754 72.4482 63.7754 72.4482C64.0826 72.8521 64.7715 73.1926 65.1472 73.359Z" fill="white"/>
<path d="M64.6508 74.2476C63.8882 73.9414 63.6354 73.5471 63.5868 73.2031C63.8425 73.3174 64.1385 73.4841 64.3663 73.7113C64.541 73.8841 64.6185 74.0738 64.6508 74.2476Z" fill="#DE5753"/>
<path d="M60.6339 69.8342C60.6339 69.8342 62.3561 67.8669 62.4095 66.1837C62.4095 66.1837 68.5708 64.8166 68.0028 70.1344C68.0028 70.1344 69.3347 65.5357 64.3007 64.785C59.2668 64.0342 58.2281 70.6086 60.5097 72.8998C60.5183 72.8765 59.5686 71.0669 60.6339 69.8342Z" fill="#263238"/>
<path d="M55.2636 65.8295C55.3813 67.2011 56.5884 68.2177 57.9599 68.1003C59.3314 67.9828 60.3481 66.7755 60.2306 65.4039C60.1202 64.1147 59.0415 63.1243 57.7474 63.1243C56.317 63.1911 55.2082 64.3988 55.2636 65.8295Z" fill="#263238"/>
<path d="M66.5894 65.4436C67.2518 66.0794 67.6947 66.9098 67.8537 67.8141C67.8537 68.4698 66.9609 68.9441 66.9609 68.9441L65.8704 67.514V68.7703C64.0848 68.5745 63.0521 67.6263 62.4409 66.2577L63.4364 64.4797C63.4364 64.4797 65.9968 64.93 66.5894 65.4436Z" fill="#263238"/>
<path d="M58.0796 67.2667C57.926 67.978 57.5052 68.628 56.9193 69.0593C57.2345 69.0856 57.5577 69.0078 57.8265 68.8404C57.8137 69.0974 57.7568 69.3521 57.6585 69.5899C58.3811 68.9883 58.808 68.0468 58.7833 67.1067L58.0796 67.2667Z" fill="#263238"/>
<path d="M93.3488 132.144L90.3613 132.23C90.3613 132.23 85.0285 121.963 82.4675 116.205C79.4416 109.402 80.1078 107.211 79.2003 107.171C77.5248 107.098 60.4266 114.959 56.1434 110.599C51.8602 106.239 58.0563 95.7316 58.0563 95.7316C58.0563 95.7316 67.6003 94.2577 68.3789 96.586C68.5696 97.274 68.9853 97.985 69.0854 98.6919C69.2006 99.3901 69.433 100.422 69.433 100.422C69.6592 100.365 76.2 99.7322 80.2598 99.825C82.7056 99.881 84.8841 101.366 85.8573 103.611C89.527 112.074 93.3488 132.144 93.3488 132.144Z" fill="#263238"/>
<path d="M63.2522 111.649C63.2522 111.649 63.9504 111.649 74.7719 111.161C74.7719 111.161 73.2861 114.67 72.8727 121.896C72.7024 124.869 73.177 134.497 72.8048 138.759C72.9933 139.024 74.9821 139.905 76.1949 139.015C76.1949 139.015 83.216 113.678 83.1463 110.239C83.0765 106.801 79.09 105.788 79.09 105.788C79.09 105.788 71.4103 110.239 63.2522 111.649Z" fill="#263238"/>
<path opacity="0.2" d="M73.3181 108.815C74.7994 108.218 76.2544 107.559 77.68 106.84C80.1533 105.593 83.1946 107.198 83.4269 109.958C83.4346 110.05 83.4397 110.143 83.4419 110.239C83.4768 111.636 82.2304 116.872 80.4464 122.566C80.4925 122.229 80.5568 121.894 80.6384 121.564C82.4083 114.453 83.295 110.759 82.4083 109.039C81.8118 107.969 80.865 107.138 79.7274 106.686L70.0576 111.398C64.7306 111.632 63.9347 111.643 63.8403 111.643C67.089 111.032 70.2656 110.084 73.3181 108.815Z" fill="black"/>
<path d="M76.7011 137.577C76.713 137.423 76.5812 137.296 76.4272 137.296H75.5172C75.2874 137.291 75.0375 137.7 74.8973 137.883C74.2925 138.668 73.8599 138.355 73.241 137.588C72.8375 137.531 72.7172 137.993 72.681 138.117L71.8554 140.859C71.784 141.089 71.9114 141.332 72.1405 141.403C72.1811 141.416 72.2237 141.423 72.2663 141.423C73.4992 141.453 74.0826 141.467 75.617 141.504L80.3098 141.618C81.5892 141.648 81.8855 140.366 81.3613 140.234C79.0042 139.653 77.3431 138.915 76.6272 138.208C76.5274 138.114 76.6794 137.859 76.7011 137.577Z" fill="#006D14"/>
<path d="M77.1053 138.501C76.7545 138.54 76.4249 138.741 76.2297 139.035" stroke="white" stroke-width="0.5" stroke-miterlimit="10" stroke-linecap="round" stroke-linejoin="round"/>
<path d="M77.7642 138.91C77.4132 138.949 77.0839 139.15 76.8887 139.445" stroke="white" stroke-width="0.5" stroke-miterlimit="10" stroke-linecap="round" stroke-linejoin="round"/>
<path d="M78.5786 139.328C78.2279 139.368 77.8983 139.569 77.7031 139.863" stroke="white" stroke-width="0.5" stroke-miterlimit="10" stroke-linecap="round" stroke-linejoin="round"/>
<path d="M93.2038 130.143L92.2483 130.487C92.0323 130.565 91.8716 130.746 91.8067 130.967C91.527 131.918 91.0105 131.783 90.1561 131.291C89.7593 131.384 89.8144 131.858 89.8256 131.987L90.0476 134.842C90.064 135.082 90.271 135.263 90.5104 135.247C90.5529 135.244 90.5949 135.235 90.6349 135.219C91.7952 134.801 92.344 134.603 93.7881 134.083L98.2045 132.491C99.4083 132.057 99.2205 130.754 98.6841 130.82C96.2768 131.131 94.4611 131.044 93.5379 130.644C93.3689 130.577 93.4694 130.445 93.2038 130.143Z" fill="#006D14"/>
<path d="M94.1328 130.769C93.8199 130.933 93.5856 131.239 93.5098 131.584" stroke="white" stroke-width="0.5" stroke-miterlimit="10" stroke-linecap="round" stroke-linejoin="round"/>
<path d="M94.8877 130.874C94.5747 131.038 94.3405 131.344 94.2646 131.689" stroke="white" stroke-width="0.5" stroke-miterlimit="10" stroke-linecap="round" stroke-linejoin="round"/>
<path d="M95.7618 130.983C95.4489 131.147 95.2146 131.453 95.1388 131.798" stroke="white" stroke-width="0.5" stroke-miterlimit="10" stroke-linecap="round" stroke-linejoin="round"/>
<path d="M71.1449 100.247L69.7715 100.379C69.7715 100.379 69.6585 99.4344 69.5433 98.7361C69.4432 98.0292 68.6665 95.6526 68.4761 94.9646C64.5465 95.3547 57.88 95.1185 57.88 95.1185C57.88 95.1185 51.8636 106.246 56.1398 110.596C58.7091 113.203 66.2771 111.677 71.8806 109.386L71.1449 100.247Z" fill="#263238"/>
<path opacity="0.3" d="M69.7715 100L63.7462 101.257C63.7462 101.257 67.0438 99.4685 69.5433 98.7424C69.6585 99.4548 69.7715 100 69.7715 100Z" fill="black"/>
<path d="M78.6086 85.8372C78.6418 85.3066 77.0716 88.3418 77.0716 88.3418L74.4204 86.4701L76.5311 84.3469C76.5311 84.3469 78.6742 85.7463 78.6415 85.7917" fill="#B97964"/>
<path d="M67.9667 78.966C69.3869 79.662 70.464 80.9004 70.9654 82.4006C71.8646 85.0911 72.255 88.3225 72.255 88.3225L75.6045 85.3395L78.0995 87.1929C78.0995 87.1929 74.8224 92.1593 72.6169 94.0959C70.7856 95.7039 68.7097 92.5846 68.7097 92.5846L67.808 78.8879L67.9667 78.966Z" fill="#006D14"/>
<path opacity="0.2" d="M61.4924 96.7485L60.7721 108.041L54.3138 107.271V106.11L61.4924 96.7485Z" fill="black"/>
<path d="M58.3683 97.0308C58.1158 94.1661 57.0986 88.9162 55.3469 83.4029C54.777 81.61 56.8131 79.6279 56.8131 79.6279C56.8131 79.6279 58.1274 79.5242 58.3683 79.4973C58.6323 79.4663 58.9037 79.4394 59.1754 79.4164C61.2214 79.2468 62.8966 79.1233 64.721 79.2276C65.1798 79.2545 65.6502 79.2932 66.113 79.3316C66.2621 79.3469 67.2304 79.3617 67.3757 79.377C67.3757 79.377 69.9987 82.4465 70.1402 84.6132C70.2166 85.8237 70.8016 86.3447 70.7366 89.2404C70.7251 91.2068 69.2979 94.0714 69.168 96.8359L58.3683 97.0308Z" fill="white"/>
<path d="M61.9439 87.4044C61.8063 82.9087 61.2754 80.054 61.0341 78.9628C60.9708 78.6761 60.7004 78.4863 60.4088 78.5222L58.6719 78.8879C56.9708 79.3414 56.0584 79.0966 55.1116 80.3609C54.9282 80.6057 54.7746 82.4886 54.7884 82.7468C54.8114 83.2095 55.1327 84.6284 55.5609 86.3401C55.8553 87.5276 56.2034 88.8617 56.5362 90.1186C56.9631 91.7209 57.3192 92.1382 57.4568 92.6518L53.0517 105.647C52.9276 105.994 53.1618 106.366 53.5285 106.404L59.8511 107.065C60.1605 107.097 60.4383 106.877 60.4754 106.568C60.7909 103.929 62.1023 92.5718 61.9439 87.4044Z" fill="#006D14"/>
<path d="M70.2521 96.2126C70.2521 96.2126 71.5791 87.9912 71.2261 85.9336C70.8732 83.876 67.8073 78.8881 67.8073 78.8881L66.4079 78.7918L64.7516 78.1201C64.7516 78.1201 68.5749 82.7336 69.5138 86.0622C70.1314 88.251 68.9001 95.1694 69.0421 96.8382L69.7538 100.293L71.5125 100.215L70.2521 96.2126Z" fill="#006D14"/>
<path d="M60.798 77.8135C60.798 77.8135 62.5177 81.2078 61.8672 89.7489L59.0099 83.609L60.0441 81.9313L58.6716 79.1889C58.6716 79.1889 60.1398 78.2446 60.7568 77.7454L60.798 77.8135Z" fill="#006D14"/>
<g opacity="0.2">
<path d="M60.798 77.8135C60.798 77.8135 62.5177 81.2078 61.8672 89.7489L59.0099 83.609L60.0441 81.9313L58.6716 79.1889C58.6716 79.1889 60.1398 78.2446 60.7568 77.7454L60.798 77.8135Z" fill="black"/>
</g>
<path d="M69.6028 89.7988C69.6028 89.7988 70.2428 87.9153 70.1257 86.1767C70.0089 84.4385 69.9817 83.1415 69.9817 83.1415L68.0092 81.6839L68.2687 79.907C68.2687 79.907 67.3177 79.323 66.4342 78.7246C65.8303 78.3159 64.646 77.6974 64.4905 77.745C64.4905 77.745 69.5273 84.1191 69.5529 86.7271C69.5772 89.243 69.6028 89.7988 69.6028 89.7988Z" fill="#006D14"/>
<path opacity="0.3" d="M69.6028 89.7988C69.6028 89.7988 70.2428 87.9153 70.1257 86.1767C70.0089 84.4385 69.9817 83.1415 69.9817 83.1415L68.0092 81.6839L68.2687 79.907C68.2687 79.907 67.3177 79.323 66.4342 78.7246C65.8303 78.3159 64.646 77.6974 64.4905 77.745C64.4905 77.745 69.5273 84.1191 69.5529 86.7271C69.5772 89.243 69.6028 89.7988 69.6028 89.7988Z" fill="black"/>
<path opacity="0.3" d="M70.5714 94.1694L71.2585 87.8286L71.5125 94.3752C71.5125 94.3752 70.853 94.3425 70.5714 94.1694Z" fill="black"/>
<path d="M65.7619 79.4451L64.4076 77.5843L63.7628 78.6919L61.0892 77.0813L60.7571 77.7453L61.7068 80.5315C61.7068 80.5315 64.0806 81.5031 64.2064 81.5031C64.3321 81.5031 65.7619 79.4451 65.7619 79.4451Z" fill="white"/>
<path opacity="0.3" d="M65.8242 79.5322L65.27 80.9031L63.8921 79.5322L62.9542 81.1421L61.5538 80.4561L63.0466 81.6381L63.9103 79.8743L65.4905 81.3626L65.8242 79.5322Z" fill="black"/>
<path opacity="0.3" d="M58.4435 92.4779L57.9033 86.4219L57.4877 93.0171L63.7462 95.5617L58.4435 92.4779Z" fill="black"/>
<path d="M55.9667 79.5322C55.9667 79.5322 53.9791 80.0199 53.5971 82.1905C53.215 84.361 52.7087 95.2116 53.1407 95.8986C53.5727 96.5857 65.6659 100.475 65.6659 100.475L66.9606 97.1162L57.8252 92.697C57.8252 92.697 57.8998 89.5965 57.9743 87.1805C58.0137 85.9031 58.0531 84.8173 58.0815 84.4823C58.1638 83.5137 55.9667 79.5322 55.9667 79.5322Z" fill="#006D14"/>
<path d="M66.9152 97.3257C66.9152 97.3257 70.7165 98.2383 71.5981 98.9974C71.9891 99.3343 71.9782 99.8854 71.9782 99.8854L65.8224 100.16L66.9152 97.3257Z" fill="#B97964"/>
<path opacity="0.3" d="M55.9318 97.1511C56.0537 97.1966 61.2825 99.058 61.2825 99.058V99.7143L55.6646 97.9393L55.9318 97.1511Z" fill="black"/>
<path opacity="0.2" d="M63.9104 79.8743C66.7587 84.8416 66.6013 91.3018 66.7587 96.7872" stroke="black" stroke-width="0.5" stroke-miterlimit="10" stroke-linecap="round" stroke-linejoin="round"/>
<path d="M76.6706 84.6581C76.6706 84.6581 76.1545 83.8363 76.3423 83.0565C76.5301 82.2763 76.4722 81.6037 76.6521 81.0334C76.8319 80.4632 77.1516 81.204 77.2415 81.6328C77.3317 82.0613 77.4383 82.5464 77.7493 82.4264C78.0604 82.3067 79.8674 80.0821 80.3177 79.965C80.7676 79.8478 80.5877 80.299 80.5877 80.299C80.5877 80.299 81.0412 79.7704 81.2994 79.8933C81.3666 79.925 81.4709 80.108 81.302 80.3813C80.9218 80.996 80.0581 82.245 80.0581 82.245C80.1061 82.1723 81.2828 80.7067 81.4876 80.5102C81.7554 80.2536 82.0124 80.269 82.1564 80.429C82.3612 80.6568 80.9644 82.5234 80.9605 82.6434C80.9605 82.6434 81.7285 81.5419 82.1215 81.5845C82.5145 81.627 82.0687 82.347 81.5551 82.907C81.0844 83.4203 80.2953 84.5509 79.766 85.0261C79.1138 85.612 78.5445 85.859 77.7913 85.5294C77.038 85.1992 76.6706 84.6581 76.6706 84.6581Z" fill="#B97964"/>
<path opacity="0.3" d="M80.5147 80.3562C80.1621 80.7888 79.829 81.2375 79.517 81.7005" stroke="black" stroke-width="0.5" stroke-miterlimit="10" stroke-linecap="round" stroke-linejoin="round"/>
<path opacity="0.3" d="M80.677 83.0811C80.2575 82.4946 79.6617 82.036 78.9874 81.78" stroke="black" stroke-width="0.5" stroke-miterlimit="10" stroke-linecap="round" stroke-linejoin="round"/>
<path opacity="0.3" d="M77.8402 82.7742C78.038 82.9918 78.1567 83.2791 78.1701 83.5729C78.1836 83.8663 78.0914 84.1636 77.9144 84.3982" stroke="black" stroke-width="0.5" stroke-miterlimit="10" stroke-linecap="round" stroke-linejoin="round"/>
<path d="M82.3055 99.9899H72.4444C72.2742 99.9887 72.1375 99.8773 72.1388 99.7407C72.1391 99.7151 72.1442 99.6894 72.1545 99.6651L76.5414 89.6079C76.6521 89.3205 76.9823 89.1243 77.357 89.123H87.2242C87.391 89.123 87.5263 89.2319 87.5263 89.3656C87.5263 89.3938 87.5202 89.4216 87.5084 89.4479L83.1215 99.5051C83.0089 99.7912 82.6796 99.9871 82.3055 99.9899Z" fill="#263238"/>
<path opacity="0.7" d="M87.2243 89.1228H77.357C76.9823 89.1241 76.6521 89.3206 76.5414 89.6079L72.1545 99.6652C72.1446 99.6895 72.1391 99.7151 72.1388 99.7407C72.1372 99.8774 72.2742 99.989 72.4444 99.99H82.3055C82.6796 99.9871 83.0089 99.7913 83.1212 99.5052L87.5081 89.4479C87.5199 89.4217 87.526 89.3935 87.526 89.3657C87.5263 89.2316 87.391 89.1228 87.2243 89.1228Z" fill="white"/>
<path d="M81.1129 94.7805C80.8997 95.263 80.4677 95.5946 80.1458 95.527C79.8239 95.4595 79.7378 95.0198 79.9449 94.5357C80.1516 94.0518 80.5887 93.728 80.9106 93.7952C81.2325 93.863 81.3285 94.2851 81.1129 94.7805Z" fill="white"/>
<path opacity="0.3" d="M77.4156 89.1228H77.357C76.9823 89.1241 76.6521 89.3206 76.5414 89.6079L72.1545 99.6652C72.1446 99.6895 72.1391 99.7151 72.1388 99.7407C72.1372 99.8774 72.2742 99.989 72.4444 99.99H72.7602L77.4156 89.1228Z" fill="black"/>
<path d="M64.4453 100.078V100.892L72.3013 100.091L72.4191 99.0579L64.4453 100.078Z" fill="#263238"/>
<path opacity="0.7" d="M64.4453 100.078V100.892L72.3013 100.091L72.4191 99.0579L64.4453 100.078Z" fill="white"/>
<path opacity="0.3" d="M43.0381 47.9328H48.8093C49.5283 47.9328 50.111 47.3501 50.111 46.6311V42.6519C50.111 42.6519 45.1846 45.8058 43.0381 47.9328Z" fill="black"/>
<path opacity="0.2" d="M108.883 65.3347C108.883 65.3347 108.137 65.7187 108.139 66.583C108.141 67.4474 109.226 68.9248 109.169 69.4138C109.112 69.9027 109.055 71.3738 109.569 72.0086C110.082 72.6435 112.685 73.1693 112.682 73.1507C112.68 73.1322 112.392 71.3312 112.036 69.4134C111.68 67.496 108.883 65.3347 108.883 65.3347Z" fill="black"/>
<path d="M32.1937 97.3262C27.5946 102.706 26.2513 110.669 28.8314 117.26C31.698 114.702 33.7165 110.802 33.8442 107.391C33.9719 103.98 33.0791 100.622 32.1937 97.3262Z" fill="#098C44"/>
<path d="M31.3914 117.881C29.8308 120.272 29.0839 123.184 29.3005 126.031C31.7869 125.166 33.9786 122.358 35.2925 120.076C36.6065 117.795 37.3412 115.233 38.01 112.687C35.3165 113.634 32.9517 115.49 31.3914 117.881Z" fill="#098C44"/>
<path d="M30.7933 106.714C28.9453 113.361 28.0026 120.253 28.0093 127.153C28.0112 129.11 28.0909 131.066 28.2436 133.016C28.2554 133.169 28.4957 133.171 28.4836 133.016C27.9456 126.134 28.3456 119.186 29.6839 112.413C30.0583 110.518 30.5076 108.639 31.0247 106.778C31.066 106.629 30.8346 106.565 30.7933 106.714Z" fill="#263238"/>
<path d="M28.345 128.287C30.233 123.796 32.7133 119.59 35.5799 115.656C35.6711 115.531 35.4628 115.411 35.3725 115.535C32.4925 119.487 30.0103 123.711 28.1137 128.223C28.0538 128.366 28.2858 128.428 28.345 128.287Z" fill="#263238"/>
<path d="M25.6436 121.607C26.9447 123.601 27.5677 126.029 27.3869 128.403C25.3136 127.681 23.4861 125.34 22.3904 123.437C21.2948 121.535 20.682 119.399 20.1245 117.275C22.3706 118.066 24.3421 119.614 25.6436 121.607Z" fill="#098C44"/>
<path d="M28.2886 129.969C26.7379 126.284 24.6928 122.868 22.3408 119.641C22.2506 119.517 22.0422 119.637 22.1334 119.762C24.472 122.971 26.5152 126.368 28.057 130.033C28.1162 130.174 28.3488 130.112 28.2886 129.969Z" fill="#263238"/>
<path d="M28.3549 131.218C31.2806 128.208 34.2675 125.259 37.1933 122.249C37.3011 122.138 37.1315 121.968 37.0237 122.079C34.0979 125.089 31.111 128.038 28.1853 131.048C28.0774 131.159 28.247 131.329 28.3549 131.218Z" fill="#263238"/>
<path d="M37.2851 120.848C34.7469 123.296 32.4342 125.978 30.3862 128.848H30.8505C32.7824 128.758 34.6579 127.805 35.8698 126.297C37.0816 124.79 37.6112 122.754 37.2851 120.848Z" fill="#098C44"/>
<path d="M25.2484 115.023C26.3383 116.806 27.3652 118.626 28.3271 120.48C28.3981 120.617 28.6055 120.496 28.5345 120.359C27.5725 118.504 26.5457 116.684 25.4557 114.902C25.3751 114.771 25.1674 114.891 25.2484 115.023Z" fill="#263238"/>
<path d="M22.642 106.012C22.2263 107.881 21.8141 110.312 21.81 112.259C21.8058 114.206 22.3997 116.105 23.506 117.41C24.6122 118.714 26.8452 119.286 27.7456 118.539L22.642 106.012Z" fill="#098C44"/>
<path d="M33.673 132.069H22.585V134.124H33.673V132.069Z" fill="#263238"/>
<path d="M31.8772 141.444H24.992L23.7408 133.653H32.8656L31.8772 141.444Z" fill="#263238"/>
<path opacity="0.2" d="M23.8228 134.162H32.801L32.6893 135.044H23.9642L23.8228 134.162Z" fill="black"/>
<path d="M47.2479 46.5415H25.3542C24.4819 46.5415 23.7747 45.8343 23.7747 44.962V27.0541C23.7747 26.1818 24.4819 25.4746 25.3542 25.4746H47.2479C48.1203 25.4746 48.8275 26.1818 48.8275 27.0541V44.962C48.8275 45.8343 48.1203 46.5415 47.2479 46.5415Z" fill="#EE9454"/>
<path opacity="0.5" d="M47.2479 46.5415H25.3542C24.4819 46.5415 23.7747 45.8343 23.7747 44.962V27.0541C23.7747 26.1818 24.4819 25.4746 25.3542 25.4746H47.2479C48.1203 25.4746 48.8275 26.1818 48.8275 27.0541V44.962C48.8275 45.8343 48.1203 46.5415 47.2479 46.5415Z" fill="white"/>
<path d="M48.8275 29.1482H23.7747V26.9552C23.7747 26.1376 24.4374 25.4746 25.2553 25.4746H47.3731C48.1766 25.4746 48.8278 26.1258 48.8278 26.9293V29.1482H48.8275Z" fill="#EE9454"/>
<path opacity="0.5" d="M47.4128 27.5793C47.4128 28.0221 47.0538 28.3812 46.6109 28.3812C46.168 28.3812 45.809 28.0221 45.809 27.5793C45.809 27.1364 46.168 26.7773 46.6109 26.7773C47.0538 26.7773 47.4128 27.1364 47.4128 27.5793Z" fill="white"/>
<path opacity="0.5" d="M45.1337 27.5793C45.1337 28.0221 44.7747 28.3812 44.3318 28.3812C43.8889 28.3812 43.5299 28.0221 43.5299 27.5793C43.5299 27.1364 43.8889 26.7773 44.3318 26.7773C44.7747 26.7773 45.1337 27.1364 45.1337 27.5793Z" fill="white"/>
<path opacity="0.5" d="M42.8547 27.5793C42.8547 28.0221 42.4957 28.3812 42.0528 28.3812C41.6099 28.3812 41.2509 28.0221 41.2509 27.5793C41.2509 27.1364 41.6099 26.7773 42.0528 26.7773C42.4957 26.7773 42.8547 27.1364 42.8547 27.5793Z" fill="white"/>
<path d="M35.9071 37.7863L38.0799 31.8174C38.8892 32.1121 39.6303 32.5681 40.2581 33.1582C40.8857 33.7483 41.3868 34.4596 41.7308 35.2494L35.9071 37.7863Z" fill="#F5F5F5"/>
<path d="M35.9071 37.7864L37.7586 43.8629C37.1586 44.0456 36.5346 44.1387 35.9071 44.1387C32.4223 44.1387 29.5548 41.2712 29.5548 37.7864C29.5548 34.3016 32.4223 31.4341 35.9071 31.4341C36.638 31.4341 37.3635 31.5602 38.0514 31.8069L35.9071 37.7864Z" fill="#EE9454"/>
<path d="M35.9071 37.7863L41.7426 35.2769C42.0834 36.0695 42.2594 36.9236 42.2594 37.7863C42.2594 40.5645 40.437 43.0353 37.7826 43.8554L35.9071 37.7863Z" fill="#EE9454"/>
<path opacity="0.3" d="M35.9071 37.7863L41.7426 35.2769C42.0834 36.0695 42.2594 36.9236 42.2594 37.7863C42.2594 40.5645 40.437 43.0353 37.7826 43.8554L35.9071 37.7863Z" fill="black"/>
<path d="M124.263 58.9553C123.189 59.1707 122.763 60.0337 121.686 62.2843C120.328 65.1211 118.349 70.2353 117.9 70.2782C117.27 70.3384 109.212 67.1979 109.212 67.1979L107.958 68.6142C107.958 68.6142 112.179 74.258 118.86 76.0497C120.06 76.372 121.575 75.0123 123.02 73.1534C123.303 72.7921 123.579 72.41 123.855 72.0168C125.342 69.8132 126.675 67.5099 127.846 65.1233L124.263 58.9553Z" fill="#119391"/>
<path opacity="0.2" d="M123.924 62.5547C123.612 63.931 122.883 65.9972 122.307 67.4638C122.121 67.9384 122.039 68.4526 122.126 68.955C122.374 70.4024 122.715 71.62 123.131 72.7736C123.364 73.4497 124.408 73.4008 124.441 74.115C124.724 73.7537 125 73.3713 125.276 72.9784L125.892 70.5425L123.924 62.5547Z" fill="black"/>
<path d="M119.238 71.3826C119.615 71.276 119.833 70.8847 119.727 70.5083L117.032 59.1784C116.872 58.6415 116.389 58.2658 115.829 58.2437L107.193 58.0632C107.099 58.0517 107.004 58.0587 106.913 58.0847C106.537 58.1912 106.318 58.5826 106.425 58.9589L109.119 70.2888C109.279 70.8264 109.763 71.2034 110.323 71.2271L118.958 71.404C119.052 71.4158 119.148 71.4085 119.238 71.3826Z" fill="#263238"/>
<path opacity="0.2" d="M119.238 71.3826C119.615 71.276 119.833 70.8847 119.727 70.5083L117.032 59.1784C116.872 58.6415 116.389 58.2658 115.829 58.2437L107.193 58.0632C107.099 58.0517 107.004 58.0587 106.913 58.0847C106.537 58.1912 106.318 58.5826 106.425 58.9589L109.119 70.2888C109.279 70.8264 109.763 71.2034 110.323 71.2271L118.958 71.404C119.052 71.4158 119.148 71.4085 119.238 71.3826Z" fill="white"/>
<path d="M118.353 71.3646C118.729 71.2584 118.948 70.867 118.842 70.4907L116.147 59.1608C115.987 58.6248 115.506 58.2488 114.947 58.2225L106.308 58.0456C106.214 58.0341 106.119 58.0414 106.028 58.067C105.652 58.1736 105.433 58.5649 105.54 58.9413L108.237 70.2712C108.398 70.8072 108.879 71.1832 109.438 71.2094L118.077 71.3864C118.169 71.3973 118.263 71.3899 118.353 71.3646Z" fill="#263238"/>
<path opacity="0.3" d="M118.353 71.3646C118.729 71.2584 118.948 70.867 118.842 70.4907L116.147 59.1608C115.987 58.6248 115.506 58.2488 114.947 58.2225L106.308 58.0456C106.214 58.0341 106.119 58.0414 106.028 58.067C105.652 58.1736 105.433 58.5649 105.54 58.9413L108.237 70.2712C108.398 70.8072 108.879 71.1832 109.438 71.2094L118.077 71.3864C118.169 71.3973 118.263 71.3899 118.353 71.3646Z" fill="white"/>
<path opacity="0.2" d="M111.071 63.8921C111.105 63.5347 111.423 63.2723 111.78 63.3062C112.286 63.334 112.719 63.6819 112.854 64.1705C112.878 64.2515 112.886 64.3359 112.877 64.4201C112.842 64.7747 112.525 65.0329 112.171 64.9967C111.664 64.9699 111.231 64.623 111.094 64.135C111.071 64.0563 111.064 63.9737 111.071 63.8921Z" fill="white"/>
<path d="M107.639 65.2256C107.809 65.2116 108.531 65.569 108.871 65.3319C109.211 65.0948 108.892 64.8999 108.892 64.8999C108.269 64.7476 107.586 63.9687 107.207 64.1917C106.828 64.4148 106.201 64.6944 106.293 65.0487C106.397 65.3764 106.523 65.697 106.668 66.0084C106.57 66.1661 106.556 66.3629 106.633 66.5325C106.711 66.7284 106.883 66.8708 107.09 66.9114C106.971 67.0314 106.909 67.1962 106.92 67.3645C106.948 67.6336 107.656 67.9876 107.656 67.9876C107.656 67.9876 107.518 68.4087 107.681 68.5719C107.957 68.7994 108.324 68.8832 108.672 68.7984C109.086 68.6992 109.37 68.5578 109.341 68.1399C109.313 67.722 108.566 67.722 108.566 67.722C108.566 67.722 109.968 67.297 109.67 67.0314C109.373 66.7658 108.254 66.7978 108.254 66.7978C108.254 66.7978 110.152 66.4224 109.851 66.033C109.55 65.6436 107.659 65.7498 107.659 65.7498C107.659 65.7498 107.469 65.2397 107.639 65.2256Z" fill="#E9B376"/>
<path d="M123.774 132.441L124.581 139.316L122.115 139.657L119.521 133.196L123.774 132.441Z" fill="#E9B376"/>
<path d="M120.157 137.974C120.118 137.555 120.148 137.204 120.639 137.179L121.334 137.143C121.596 137.143 121.784 137.304 121.995 137.439C123.588 138.455 124.242 137.143 124.86 137.143C125.655 137.143 125.143 139.472 125.181 139.595L126.049 142.298C126.125 142.524 125.972 143.011 125.708 143.075C125.661 143.087 125.613 143.092 125.564 143.092C124.154 143.092 123.486 143.092 121.731 143.092H116.363C114.899 143.092 114.882 141.448 115.485 141.331C118.196 140.819 119.265 140.005 120.158 139.41C120.158 139.41 120.216 138.619 120.157 137.974Z" fill="#119391"/>
<path opacity="0.4" d="M116.363 143.092H121.731C123.487 143.092 124.154 143.092 125.564 143.092C125.613 143.093 125.662 143.087 125.708 143.076C125.888 143.032 126.013 142.794 126.053 142.574L126.049 142.368H115.188C115.332 142.751 115.696 143.092 116.363 143.092Z" fill="white"/>
<path d="M118.721 140.406C118.833 140.501 118.937 140.605 119.03 140.718C119.041 140.732 119.052 140.745 119.062 140.759C119.054 140.749 119.061 140.757 119.065 140.762C119.071 140.77 119.076 140.778 119.082 140.786C119.104 140.815 119.125 140.845 119.146 140.876C119.186 140.936 119.223 140.999 119.258 141.063C119.288 141.118 119.369 141.14 119.422 141.106C119.479 141.07 119.497 141.001 119.465 140.942C119.321 140.674 119.123 140.433 118.89 140.237C118.842 140.196 118.767 140.186 118.721 140.237C118.68 140.281 118.67 140.363 118.721 140.406Z" fill="#263238"/>
<path d="M119.567 139.935C119.67 140.025 119.766 140.122 119.854 140.227C119.864 140.24 119.875 140.252 119.885 140.265C119.89 140.271 119.894 140.277 119.899 140.283C119.904 140.289 119.914 140.302 119.904 140.289C119.924 140.315 119.943 140.341 119.962 140.368C120.002 140.424 120.039 140.482 120.074 140.542C120.106 140.596 120.184 140.62 120.238 140.585C120.293 140.55 120.316 140.479 120.282 140.421C120.136 140.175 119.951 139.953 119.737 139.765C119.69 139.724 119.613 139.715 119.567 139.765C119.525 139.811 119.517 139.891 119.567 139.935Z" fill="#263238"/>
<path d="M120.192 139.544C120.242 139.569 120.289 139.597 120.334 139.628C120.345 139.636 120.356 139.644 120.367 139.652C120.379 139.661 120.347 139.636 120.363 139.65C120.369 139.654 120.375 139.659 120.381 139.664C120.401 139.681 120.421 139.699 120.441 139.718C120.46 139.736 120.479 139.756 120.497 139.776C120.505 139.785 120.513 139.794 120.52 139.804C120.525 139.809 120.529 139.816 120.534 139.821C120.531 139.817 120.528 139.812 120.524 139.808C120.527 139.812 120.53 139.816 120.533 139.82C120.565 139.862 120.592 139.907 120.617 139.954C120.646 140.01 120.728 140.031 120.781 139.997C120.838 139.96 120.855 139.892 120.824 139.833C120.713 139.619 120.528 139.444 120.314 139.337C120.258 139.308 120.181 139.32 120.149 139.38C120.12 139.434 120.132 139.514 120.192 139.544Z" fill="#263238"/>
<path d="M120.253 138.702C120.316 138.702 120.379 138.705 120.441 138.712C120.493 138.717 120.535 138.723 120.595 138.735C120.713 138.757 120.829 138.791 120.941 138.833C121 138.856 121.075 138.809 121.088 138.75C121.104 138.681 121.068 138.626 121.005 138.602C120.765 138.511 120.509 138.465 120.253 138.462C120.19 138.461 120.13 138.518 120.133 138.582C120.136 138.648 120.186 138.701 120.253 138.702Z" fill="#263238"/>
<g opacity="0.3">
<path d="M122.844 138.788C122.859 139.03 122.951 139.295 123.185 139.407C123.33 139.476 123.501 139.473 123.665 139.469C124.153 139.456 124.641 139.443 125.13 139.43L125.136 139.417C125.213 138.781 125.42 137.229 124.814 137.229C124.338 137.229 123.838 138.12 122.842 137.86C122.85 138.197 122.835 138.626 122.844 138.788Z" fill="black"/>
</g>
<path d="M116.156 111.088C116.595 107.112 122.136 86.0099 122.136 86.0099L129.179 85.8387L140.017 85.5325C140.017 85.5325 140.643 91.1885 140.651 98.5958C140.651 98.5958 140.126 130.222 139.697 137.749L133.745 137.979C133.069 132.064 132.173 113.611 132.173 113.611C131.765 110.268 131.397 100.399 131.105 97.5808C130.983 96.9571 130.864 96.3286 130.747 95.7027C129.592 98.759 124.287 111.835 123.877 113.71L126.054 138.581L119.652 138.336C119.652 138.337 115.717 115.064 116.156 111.088Z" fill="#263238"/>
<path d="M125.86 86.8298C125.208 88.8596 123.464 90.49 121.312 91.0826C121.196 91.1146 121.245 91.2868 121.362 91.2544C123.577 90.6442 125.371 88.9664 126.042 86.8772C126.077 86.7674 125.896 86.7204 125.86 86.8298Z" fill="black"/>
<path d="M131.259 87.1271C131.132 88.9028 131.008 90.6813 130.881 92.457C130.875 92.5716 130.687 92.5716 130.693 92.457C130.76 91.5463 130.823 90.6327 130.887 89.7188C130.424 90.0567 129.882 89.6471 129.731 89.1946C129.483 88.4615 129.577 87.5908 129.77 86.8577C129.801 86.746 129.982 86.7946 129.952 86.9034C129.815 87.4189 129.758 87.946 129.797 88.4759C129.816 88.745 129.843 89.0545 129.976 89.3009C130.124 89.5757 130.5 89.8077 130.799 89.5588C130.832 89.5329 130.868 89.53 130.899 89.5444C130.956 88.7396 131.014 87.9319 131.071 87.1271C131.077 87.0125 131.265 87.0125 131.259 87.1271Z" fill="black"/>
<path d="M135.674 86.7999C135.647 89.1539 137.562 91.1254 140.037 91.3103C140.156 91.3193 140.155 91.1439 140.037 91.1353C137.662 90.9577 135.833 89.0527 135.859 86.7999C135.86 86.6873 135.675 86.687 135.674 86.7999Z" fill="black"/>
<path d="M134.776 132.774L135.824 139.83L138.331 139.947L139.142 133.144L134.776 132.774Z" fill="#263238"/>
<path d="M140.465 143.106H134.858C134.858 143.106 134.736 142.89 134.876 142.315C134.897 142.225 134.925 142.127 134.961 142.02C134.963 142.014 134.964 142.009 134.966 142.004C135.019 141.844 135.079 141.649 135.143 141.437C135.4 140.576 135.575 138.595 135.575 138.595C135.575 138.595 136.635 137.619 137.726 138.076C138.684 138.477 138.535 138.986 138.535 138.986C138.535 138.986 138.55 140.3 139.276 140.895C139.725 141.262 140.172 141.547 140.387 142.004C140.427 142.089 140.458 142.18 140.481 142.278C140.483 142.29 140.486 142.303 140.488 142.315C140.532 142.535 140.53 142.794 140.465 143.106Z" fill="#119391"/>
<path opacity="0.4" d="M134.876 142.315C134.736 142.89 134.858 143.107 134.858 143.107H140.465C140.53 142.794 140.532 142.536 140.488 142.315H134.876Z" fill="white"/>
<path d="M138.231 139.915C137.915 139.689 137.502 139.718 137.218 139.972C137.142 140.04 137.025 139.933 137.101 139.865C137.455 139.548 137.96 139.53 138.347 139.807C138.432 139.867 138.314 139.974 138.231 139.915Z" fill="#263238"/>
<path d="M138.389 140.395C138.073 140.17 137.659 140.199 137.376 140.453C137.3 140.521 137.183 140.413 137.259 140.345C137.613 140.029 138.118 140.011 138.506 140.288C138.59 140.348 138.472 140.454 138.389 140.395Z" fill="#263238"/>
<path d="M138.548 140.837C138.232 140.611 137.819 140.64 137.535 140.894C137.459 140.962 137.342 140.855 137.418 140.787C137.772 140.47 138.277 140.453 138.665 140.729C138.749 140.789 138.631 140.896 138.548 140.837Z" fill="#263238"/>
<path d="M122.182 84.3641C121.184 86.0041 121.184 87.3213 122.136 87.6569C122.136 87.6569 130.785 89.1235 139.632 88.1184C141.763 88.2358 140.72 86.2611 140.72 86.2611L140.767 58.9552C134.044 57.528 125.91 58.847 124.263 58.9552L122.182 84.3641Z" fill="#119391"/>
<path opacity="0.2" d="M140.74 74.8326V65.8013C140.74 65.8013 142.063 75.0576 141.397 77.3539L140.74 74.8326Z" fill="black"/>
<path d="M128.521 46.8746C128.521 46.8746 125.255 45.0353 127.194 43.0621C128.723 41.506 130.076 41.7329 132.122 42.1053C137.136 43.0183 136.844 45.1076 136.844 45.1076L128.521 46.8746Z" fill="#263238"/>
<path d="M134.906 57.3946C134.906 57.3946 134.638 55.4714 135.764 52.1379C135.764 52.1344 135.589 52.0477 135.589 52.0442C135.745 51.5779 135.907 51.1479 136.059 50.7754C136.063 50.7645 136.063 50.761 136.063 50.761L131.321 53.4141C131.382 54.4986 130.904 56.568 130.634 57.4387C130.634 57.4387 129.982 59.009 132.101 59.1712C133.65 59.2893 134.906 57.3946 134.906 57.3946Z" fill="#E9B376"/>
<path opacity="0.2" d="M131.175 54.9283L133.859 54.4448C133.582 55.2608 132.808 56.209 130.954 56.2083C130.954 56.2083 131.179 55.2912 131.175 54.9283Z" fill="black"/>
<path d="M136.196 48.5188C135.757 51.433 135.569 53.0855 133.954 54.4452C131.525 56.49 128.103 54.8685 127.661 51.873C127.264 49.1767 128.048 44.8637 131.023 43.9793C133.953 43.1073 136.635 45.6045 136.196 48.5188Z" fill="#E9B376"/>
<path d="M136.879 45.0283C133.301 41.5822 129.661 43.5154 128.268 45.4046L134.51 45.4785C134.783 45.4737 134.938 45.7579 134.879 46.2776C134.879 46.2776 132.715 50.1585 135.698 52.3368C136.765 51.9282 136.982 50.1528 137.398 49.1211C138.018 47.5835 138.802 45.3211 136.879 45.0283Z" fill="#263238"/>
<path d="M137.138 51.0639C136.837 51.7977 136.224 52.3206 135.617 52.558C134.704 52.9151 134.463 51.9302 134.627 51.0143C134.775 50.19 135.107 49.1993 136.066 49.2335C137.011 49.2674 137.482 50.2249 137.138 51.0639Z" fill="#E9B376"/>
<path d="M131.668 49.0712C131.642 49.3711 131.461 49.5986 131.265 49.5794C131.069 49.5602 130.931 49.3013 130.958 49.0015C130.984 48.7016 131.165 48.4741 131.361 48.4933C131.557 48.5125 131.694 48.7714 131.668 49.0712Z" fill="#263238"/>
<path d="M128.869 48.9301C128.843 49.2299 128.662 49.4574 128.466 49.4382C128.27 49.419 128.132 49.1602 128.159 48.8603C128.186 48.5605 128.366 48.333 128.562 48.3525C128.758 48.3717 128.896 48.6302 128.869 48.9301Z" fill="#263238"/>
<path d="M129.953 48.7112C129.953 48.7112 128.872 50.1173 128.514 50.6971C128.898 51.1109 129.632 51.0008 129.632 51.0008L129.953 48.7112Z" fill="#D58745"/>
<path d="M132.785 47.6455C132.738 47.6599 132.685 47.6496 132.646 47.6132C132.184 47.1828 131.678 47.298 131.673 47.2992C131.598 47.3175 131.521 47.2708 131.502 47.1956C131.483 47.12 131.53 47.0442 131.605 47.026C131.631 47.0196 132.266 46.8749 132.838 47.409C132.895 47.4624 132.898 47.5511 132.845 47.6074C132.828 47.6263 132.807 47.6388 132.785 47.6455Z" fill="#263238"/>
<path d="M130.531 52.0433C131.017 52.09 131.415 51.8807 131.824 51.5518" stroke="#263238" stroke-width="0.75" stroke-miterlimit="10" stroke-linecap="round" stroke-linejoin="round"/>
<path opacity="0.2" d="M136.54 50.1944C136.437 50.0091 136.202 49.9233 135.993 49.9557C135.783 49.988 135.6 50.1195 135.46 50.2782C135.292 50.4689 135.175 50.7045 135.124 50.9537" stroke="black" stroke-width="0.5" stroke-miterlimit="10" stroke-linecap="round" stroke-linejoin="round"/>
<path d="M127.795 47.4126C127.769 47.4046 127.746 47.3893 127.728 47.3669C127.678 47.3064 127.687 47.2171 127.746 47.1678C128.345 46.6731 128.963 46.8693 128.992 46.8744C129.066 46.8984 129.107 46.9778 129.084 47.052C129.061 47.1259 128.983 47.1669 128.909 47.1438C128.884 47.1346 128.406 46.9899 127.925 47.3867C127.888 47.4184 127.839 47.4264 127.795 47.4126Z" fill="#263238"/>
<path opacity="0.3" d="M137.84 47.9035L134.258 47.9915C134.258 47.9915 134.386 47.3857 134.642 46.7803H138.08C138.08 46.7803 138.056 47.211 137.84 47.9035Z" fill="white"/>
<g opacity="0.2">
<path d="M132.059 50.8735C132.317 51.1532 132.455 51.5404 132.432 51.9206C132.432 51.9206 132.606 51.6195 132.529 51.3014C132.452 50.983 132.059 50.8735 132.059 50.8735Z" fill="black"/>
</g>
<path d="M130.741 56.6183L128.894 58.28L131.978 62.0189L136.432 58.2634L135.112 56.3223L132.328 58.6477L130.741 56.6183Z" fill="#119391"/>
<path opacity="0.8" d="M130.741 56.6183L128.894 58.28L131.978 62.0189L136.432 58.2634L135.112 56.3223L132.328 58.6477L130.741 56.6183Z" fill="white"/>
<path opacity="0.2" d="M140.651 78.6832V81.8931C140.651 81.8931 133.549 79.8202 129.365 76.0791C126.386 73.4154 126.852 72.2935 126.852 72.2935L130.226 72.6192L140.651 78.6832Z" fill="black"/>
<path opacity="0.2" d="M138.422 66.583L138.876 74.1289C140.136 74.9305 140.97 73.8195 141.162 72.6713V70.4988L138.422 66.583Z" fill="black"/>
<path d="M138.414 67.0683C138.414 67.0683 140.696 73.0222 140.126 73.3831C139.556 73.7441 130.276 71.9867 130.276 71.9867L128.842 74.0436C129.15 75.3963 144.848 83.9169 146.13 76.7895C146.798 73.0795 144.212 64.3182 143.236 61.5956C142.962 60.8334 141.586 59.2055 140.811 58.9707C140.52 58.8823 140.241 58.8548 140.011 58.898C137.045 59.4535 138.414 67.0683 138.414 67.0683Z" fill="#119391"/>
<path d="M128.705 74.244C127.63 74.3291 127.592 72.7089 127.032 72.6453C126.707 72.6139 126.388 72.5326 126.087 72.4046C126.087 72.4046 126.441 73.3784 126.087 73.3003C125.733 73.2225 124.596 73.1656 124.317 72.2382C124.037 71.3105 125.05 69.3278 125.28 69.0517C125.51 68.7755 126.721 68.8603 126.721 68.8603C126.721 68.8603 125.418 68.524 124.703 68.4248C123.988 68.3256 123.852 67.5083 124.85 67.6891C125.26 67.7633 128.495 67.7873 128.845 68.1205C129.196 68.4533 130.495 71.724 130.495 71.724C130.977 72.0001 129.753 74.7432 128.705 74.244Z" fill="#E9B376"/>
<g opacity="0.3">
<path d="M126.733 68.7577C127.065 68.7347 127.398 68.7561 127.725 68.8214C127.773 68.8349 127.803 68.8854 127.789 68.9344C127.778 68.9773 127.737 69.0057 127.693 69.0019C127.384 68.9401 127.069 68.9187 126.754 68.9382C126.638 68.9382 126.616 68.7648 126.733 68.7577Z" fill="black"/>
<path d="M125.066 69.7386C124.963 69.7917 124.857 69.6429 124.959 69.5898C125.565 69.2676 126.202 69.448 126.815 69.6535C126.925 69.689 126.847 69.8554 126.737 69.8199C126.199 69.6394 125.604 69.466 125.066 69.7386Z" fill="black"/>
<path d="M124.591 70.5386C125.113 70.2266 125.758 70.1988 126.305 70.4644C126.348 70.4916 126.361 70.5482 126.334 70.5914C126.312 70.626 126.27 70.642 126.23 70.6308C125.741 70.3921 125.165 70.4135 124.694 70.6874C124.595 70.7476 124.488 70.5988 124.591 70.5386Z" fill="black"/>
<path d="M125.461 71.8965C125.414 71.8015 125.376 71.702 125.351 71.5973C125.326 71.484 125.496 71.4204 125.524 71.5336C125.6 71.8821 125.816 72.1832 126.123 72.3656C126.225 72.4223 126.148 72.5887 126.048 72.532H126.059C125.867 72.4236 125.707 72.2722 125.582 72.0956C125.57 72.0962 125.559 72.102 125.545 72.0965C125.355 72.0296 125.143 72.086 125.011 72.2383C124.933 72.3269 124.795 72.2098 124.873 72.1215C125.022 71.95 125.242 71.8722 125.461 71.8965Z" fill="black"/>
</g>
</svg>
