<svg width="160" height="160" viewBox="0 0 160 160" fill="none" xmlns="http://www.w3.org/2000/svg">
<path d="M147.558 36.0633C147.051 35.2034 146.519 34.3599 145.962 33.5343C138.544 22.5436 125.78 15.0261 113.222 11.6277C107.724 10.1394 102.045 9.35926 96.3549 9.1663C59.0384 7.90134 44.175 37.3119 31.8416 44.9017C19.5082 52.4914 0.533432 65.4575 1.79839 92.6543C3.06335 119.851 22.6704 145.467 60.6195 147.048C98.5686 148.629 101.099 131.552 122.287 125.227C136.309 121.042 146.271 106.904 151.15 93.839C157.798 76.0338 157.485 52.9061 147.558 36.0633Z" fill="#74D5FF"/>
<path opacity="0.7" d="M147.558 36.0633C147.051 35.2034 146.519 34.3599 145.962 33.5343C138.544 22.5436 125.78 15.0261 113.222 11.6277C107.724 10.1394 102.045 9.35926 96.3549 9.1663C59.0384 7.90134 44.175 37.3119 31.8416 44.9017C19.5082 52.4914 0.533432 65.4575 1.79839 92.6543C3.06335 119.851 22.6704 145.467 60.6195 147.048C98.5686 148.629 101.099 131.552 122.287 125.227C136.309 121.042 146.271 106.904 151.15 93.839C157.798 76.0338 157.485 52.9061 147.558 36.0633Z" fill="white"/>
<path d="M10.1315 143.433H155.012" stroke="#263238" stroke-miterlimit="10" stroke-linecap="round" stroke-linejoin="round"/>
<path opacity="0.3" d="M155.032 79.0905V74.1663H151.761C151.503 73.0182 151.056 71.9442 150.46 70.9698L152.825 68.6041L149.343 65.1222L146.989 67.4761C146.033 66.8815 144.977 66.4354 143.85 66.1676V62.75H138.926V66.1676C137.822 66.4297 136.787 66.8633 135.846 67.4393L133.364 64.957L129.882 68.439L132.352 70.9094C131.779 71.8329 131.344 72.8489 131.074 73.9324H127.51V78.8562H131.014C131.26 79.9474 131.675 80.9718 132.228 81.9074L129.717 84.4182L133.199 87.8998L135.641 85.4578C136.569 86.0553 137.596 86.5078 138.692 86.7945V90.2722H143.616V86.9145C144.751 86.6726 145.814 86.2434 146.784 85.671L149.178 88.0652L152.66 84.5836L150.334 82.2582C150.953 81.2969 151.417 80.2297 151.701 79.0898H155.032V79.0905ZM141.388 82.1231C138.289 82.1231 135.777 79.6108 135.777 76.5119C135.777 73.413 138.289 70.9007 141.388 70.9007C144.487 70.9007 146.999 73.413 146.999 76.5119C146.999 79.6108 144.487 82.1231 141.388 82.1231Z" stroke="black" stroke-miterlimit="10" stroke-linecap="round" stroke-linejoin="round"/>
<g opacity="0.3">
<path d="M36.8262 126.885V121.961H33.5552C33.2966 120.813 32.8499 119.739 32.2534 118.764L34.6192 116.399L31.1373 112.917L28.7837 115.271C27.8269 114.676 26.7712 114.23 25.6438 113.963V110.545H20.7197V113.963C19.6157 114.225 18.5808 114.658 17.64 115.234L15.1578 112.752L11.6758 116.234L14.1462 118.704C13.5725 119.627 13.1382 120.643 12.8678 121.727H9.30368V126.651H12.808C13.0538 127.742 13.4688 128.766 14.0214 129.702L11.5107 132.213L14.9926 135.694L17.4346 133.252C18.3629 133.85 19.3901 134.302 20.4861 134.589V138.067H25.4102V134.709C26.5456 134.467 27.6086 134.038 28.5782 133.466L30.9722 135.859L34.4541 132.378L32.1286 130.052C32.7472 129.091 33.2109 128.024 33.495 126.884H36.8262V126.885ZM23.1818 129.917C20.0829 129.917 17.5706 127.405 17.5706 124.306C17.5706 121.207 20.0829 118.695 23.1818 118.695C26.2806 118.695 28.793 121.207 28.793 124.306C28.793 127.405 26.2806 129.917 23.1818 129.917Z" stroke="black" stroke-miterlimit="10" stroke-linecap="round" stroke-linejoin="round"/>
<path d="M22.2768 101.926V98.6806H20.1213C19.9507 97.9241 19.6566 97.2163 19.2634 96.574L20.8224 95.015L18.528 92.7206L16.977 94.272C16.3462 93.8803 15.6506 93.5862 14.9078 93.4099V91.1577H11.6624V93.4099C10.9347 93.5827 10.2528 93.8684 9.63297 94.2479L7.99713 92.6121L5.70273 94.9065L7.33089 96.5347C6.95265 97.1433 6.66657 97.8128 6.48865 98.527H4.13953V101.772H6.44897C6.61089 102.491 6.88449 103.166 7.24865 103.783L5.59393 105.438L7.88833 107.732L9.49761 106.123C10.1094 106.516 10.7862 106.815 11.5088 107.003V109.295H14.7536V107.083C15.5018 106.923 16.2026 106.64 16.8413 106.263L18.4189 107.841L20.7136 105.546L19.1811 104.014C19.5888 103.38 19.8944 102.677 20.0816 101.926H22.2768ZM13.2848 103.924C11.2426 103.924 9.58689 102.268 9.58689 100.226C9.58689 98.184 11.2426 96.5283 13.2848 96.5283C15.327 96.5283 16.9827 98.184 16.9827 100.226C16.9827 102.269 15.327 103.924 13.2848 103.924Z" stroke="black" stroke-miterlimit="10" stroke-linecap="round" stroke-linejoin="round"/>
</g>
<g opacity="0.2">
<path d="M105.804 17.6772C106.755 18.6861 109.643 19.8401 109.645 19.841C109.675 19.8529 109.828 17.7069 109.822 17.5703C109.754 15.9901 108.692 12.9773 106.985 12.5076C105.755 12.1693 104.612 13.058 104.408 14.265C104.199 15.4977 104.993 16.8177 105.804 17.6772Z" fill="black"/>
<path d="M134.464 30.6303C134.482 30.6569 135.794 28.9513 135.864 28.8342C136.679 27.4787 137.456 24.3804 136.291 23.0463C135.451 22.0857 134.008 22.1961 133.172 23.0905C132.318 24.0038 132.252 25.5427 132.453 26.7065C132.691 28.0729 134.463 30.6284 134.464 30.6303Z" fill="black"/>
<path d="M147.416 23.903C145.87 23.0387 142.999 24.4387 141.841 25.5155C141.741 25.6086 140.343 27.2441 140.373 27.2566C140.373 27.2566 140.401 27.2681 140.407 27.271C139.952 27.4883 139.467 27.727 138.942 27.998C137.977 28.5065 136.891 29.0902 135.752 29.8047C134.612 30.5158 133.392 31.3209 132.185 32.2844C130.973 33.2486 129.748 34.3247 128.629 35.5971C128.617 35.6115 128.605 35.6281 128.593 35.6425C128.804 35.1689 129.352 33.8246 129.382 33.7164C129.81 32.1939 129.742 29.0003 128.266 28.0214C127.202 27.3164 125.839 27.8041 125.269 28.8876C124.687 29.9942 125.029 31.4956 125.531 32.5651C126.097 33.7708 128.298 35.6425 128.473 35.791C127.419 37.0121 126.436 38.3513 125.516 39.7609C124.989 40.5663 124.483 41.3939 123.986 42.23C124.156 41.8147 124.305 41.4419 124.32 41.3875C124.748 39.8649 124.679 36.6713 123.203 35.6927C122.14 34.9875 120.777 35.4755 120.207 36.5587C119.624 37.6652 119.967 39.1667 120.469 40.2361C120.978 41.3209 122.822 42.9545 123.316 43.3801C123.129 43.703 122.938 44.0233 122.753 44.3465C121.86 45.8985 120.977 47.4511 120.064 48.9475C119.742 49.4751 119.406 49.9827 119.072 50.4918C119.222 50.1225 119.346 49.8105 119.36 49.7609C119.788 48.238 119.719 45.0447 118.243 44.0659C117.179 43.3606 115.816 43.8486 115.246 44.9321C114.664 46.038 115.006 47.5401 115.508 48.6092C115.995 49.6444 117.683 51.1673 118.268 51.6761C117.909 52.1868 117.552 52.6995 117.181 53.1785C116.921 53.4998 116.693 53.8275 116.414 54.1356C116.144 54.4467 115.877 54.7545 115.612 55.0595C115.08 55.6281 114.536 56.2179 114.003 56.7593C113.636 57.1388 113.279 57.4937 112.92 57.8521C113.247 57.3311 113.864 56.2969 113.905 56.2047C114.34 55.2476 114.666 53.5302 114.453 52.1347C114.518 51.9939 114.571 51.8476 114.608 51.6969C114.903 50.5087 114.21 49.2377 112.947 49.0566C111.194 48.8051 109.018 51.1433 108.324 52.5647C108.283 52.6486 107.941 53.6079 107.735 54.2166C107.802 53.8403 107.87 53.4758 107.934 53.0876C108.066 52.3209 108.175 51.5519 108.295 50.7247C108.339 50.3235 108.383 49.918 108.428 49.5087C108.481 49.1036 108.485 48.6691 108.517 48.2451C108.568 47.2611 108.572 46.2614 108.554 45.2537C109.226 45.3673 111.617 45.7363 112.766 45.4406C113.91 45.1465 115.285 44.4534 115.767 43.2998C116.239 42.1702 115.747 40.8089 114.526 40.4383C112.831 39.9241 110.326 41.9059 109.425 43.2057C109.368 43.2867 108.827 44.2921 108.54 44.8502C108.524 44.2444 108.512 43.6403 108.476 43.0284C108.373 41.262 108.214 39.4771 108.063 37.6956C108.017 37.15 107.977 36.606 107.935 36.0611C108.174 36.1043 111.006 36.6041 112.293 36.2732C113.437 35.9791 114.813 35.2863 115.295 34.1324C115.767 33.0028 115.275 31.6415 114.053 31.271C112.358 30.7567 109.853 32.7385 108.952 34.038C108.884 34.1359 108.107 35.5836 107.927 35.9615C107.836 34.7622 107.755 33.5657 107.724 32.3833C107.679 30.7516 107.724 29.1484 107.884 27.5983C107.995 27.6185 110.948 28.1539 112.267 27.815C113.411 27.5209 114.787 26.8281 115.268 25.6742C115.74 24.5446 115.248 23.183 114.027 22.8127C112.332 22.2985 109.827 24.2803 108.926 25.5798C108.867 25.6652 108.273 26.7683 108.003 27.2988C107.95 27.2825 107.959 27.2857 107.906 27.2694C108.097 25.6105 108.49 24.0281 108.931 22.5647C109.185 21.7167 109.475 20.9203 109.775 20.1519C110.315 20.3081 112.79 20.9942 114.011 20.8201C115.18 20.6534 116.623 20.1158 117.229 19.022C117.822 17.951 117.482 16.5436 116.309 16.0415C114.681 15.3446 111.973 17.039 110.935 18.2319C110.879 18.2966 110.378 19.0198 110.02 19.5516C110.161 19.207 110.3 18.8486 110.441 18.5209C110.968 17.2899 111.526 16.1948 112.029 15.2291C112.319 14.6822 112.592 14.1935 112.853 13.7388C113.463 13.6156 115.914 13.0883 116.899 12.3843C117.86 11.6972 118.893 10.5551 118.926 9.30555C118.959 8.08155 118.009 6.98939 116.737 7.08411C114.97 7.21595 113.348 9.96731 112.976 11.5046C112.944 11.6374 112.68 13.7727 112.712 13.7667C112.712 13.7667 112.742 13.7609 112.749 13.7593C112.49 14.1916 112.217 14.6585 111.928 15.174C111.404 16.1305 110.82 17.2166 110.263 18.4412C109.705 19.6633 109.132 21.0073 108.657 22.4767C108.178 23.9494 107.75 25.5228 107.518 27.2012C107.516 27.2201 107.516 27.2403 107.513 27.2591C107.428 26.7471 107.143 25.3238 107.109 25.2169C106.626 23.711 104.807 21.0854 103.036 21.0831C101.76 21.0815 100.892 22.2403 101.014 23.4588C101.139 24.7027 102.253 25.7663 103.261 26.3814C104.399 27.0748 107.267 27.422 107.495 27.4489C107.289 29.0492 107.208 30.7084 107.218 32.3916C107.223 33.3542 107.258 34.3235 107.305 35.2947C107.217 34.8543 107.136 34.4614 107.118 34.4076C106.635 32.9017 104.816 30.2761 103.045 30.2739C101.769 30.2723 100.901 31.431 101.024 32.6492C101.148 33.8934 102.262 34.9571 103.271 35.5718C104.294 36.1955 106.733 36.5407 107.38 36.6236C107.402 36.9961 107.42 37.3683 107.443 37.7404C107.556 39.527 107.675 41.3094 107.739 43.0611C107.762 43.6787 107.761 44.2873 107.764 44.8966C107.685 44.5055 107.616 44.1769 107.601 44.1279C107.117 42.622 105.299 39.9964 103.527 39.9942C102.251 39.9929 101.384 41.1516 101.506 42.3699C101.631 43.6137 102.745 44.6774 103.753 45.2921C104.73 45.8876 106.978 46.2262 107.746 46.3283C107.729 46.9519 107.714 47.5769 107.669 48.1807C107.629 48.5923 107.62 48.9913 107.557 49.4025C107.503 49.8108 107.451 50.215 107.398 50.6156C107.268 51.383 107.139 52.1756 106.994 52.9209C106.897 53.4399 106.795 53.9331 106.693 54.43C106.678 53.8153 106.622 52.6124 106.606 52.5123C106.357 50.9507 104.957 48.0796 103.206 47.8092C101.945 47.6147 100.912 48.6284 100.848 49.8511C100.783 51.0998 101.723 52.3196 102.627 53.0803C103.622 53.9174 106.291 54.6771 106.626 54.7699C106.455 55.5913 106.281 56.3891 106.105 57.1388C105.507 59.7155 104.911 61.8412 104.47 63.3311L105.574 63.8015C105.584 63.7673 105.592 63.7369 105.602 63.7017C106.016 62.1823 106.576 60.0054 107.129 57.3657C107.306 56.5321 107.478 55.6377 107.646 54.7177C107.869 54.7231 109.136 54.7465 110.321 54.6195C110.77 55.8777 112.457 57.8454 112.676 58.0975C112.081 58.6886 111.496 59.2579 110.935 59.7865C109.014 61.6054 107.345 63.0495 106.156 64.0492L107.368 64.5657C108.505 63.5558 109.99 62.1974 111.664 60.5411C112.272 59.9433 112.909 59.2924 113.556 58.6175C113.836 58.8124 116.126 60.3903 117.408 60.6243C118.57 60.8364 120.109 60.7836 121.03 59.9379C121.932 59.1097 122.055 57.6675 121.101 56.8195C119.778 55.6425 116.673 56.3923 115.31 57.1951C115.23 57.2425 114.415 57.8537 113.907 58.2479C114.171 57.9711 114.429 57.7049 114.696 57.4166C115.229 56.8499 115.744 56.2681 116.3 55.6447C116.558 55.3343 116.819 55.0204 117.082 54.7036C117.35 54.3951 117.594 54.0351 117.853 53.6988C118.439 52.9062 118.994 52.0748 119.535 51.2246C120.032 51.6899 121.823 53.3167 122.945 53.7043C124.061 54.0899 125.591 54.271 126.629 53.5743C127.645 52.8924 127.986 51.4854 127.172 50.5027C126.042 49.1388 122.859 49.4095 121.39 49.9967C121.299 50.0332 120.292 50.5731 119.745 50.8799C120.066 50.3663 120.389 49.8553 120.697 49.3254C121.586 47.7951 122.438 46.2188 123.295 44.6499C123.557 44.1689 123.824 43.6934 124.09 43.2159C124.265 43.3833 126.351 45.3631 127.608 45.7971C128.724 46.183 130.254 46.3638 131.292 45.6675C132.309 44.9855 132.649 43.5785 131.835 42.5961C130.705 41.2323 127.522 41.503 126.054 42.0899C125.943 42.134 124.496 42.9126 124.138 43.1289C124.723 42.0777 125.316 41.0358 125.942 40.0323C126.805 38.6463 127.727 37.334 128.715 36.1292C128.796 36.2076 130.965 38.2838 132.252 38.7283C133.368 39.1139 134.898 39.295 135.936 38.5983C136.953 37.9164 137.293 36.5094 136.479 35.527C135.349 34.1631 132.166 34.4339 130.698 35.0211C130.602 35.0595 129.499 35.6515 128.98 35.9452C128.945 35.9023 128.952 35.91 128.916 35.8671C129.99 34.5891 131.191 33.4863 132.366 32.5094C133.045 31.9423 133.726 31.438 134.4 30.9625C134.764 31.3907 136.451 33.3286 137.564 33.8566C138.632 34.3625 140.132 34.7107 141.241 34.1324C142.326 33.566 142.819 32.2051 142.118 31.1388C141.144 29.6591 137.951 29.5788 136.427 30.0009C136.344 30.0239 135.528 30.3507 134.936 30.5967C135.244 30.3868 135.557 30.1644 135.855 29.9689C136.974 29.2329 138.044 28.6278 138.996 28.0995C139.54 27.8035 140.037 27.5465 140.505 27.311C141.082 27.5446 143.417 28.4569 144.627 28.4131C145.807 28.3702 147.299 27.9878 148.017 26.9635C148.719 25.9612 148.53 24.5257 147.416 23.903Z" fill="black"/>
</g>
<g opacity="0.2">
<path d="M54.697 18.2958C53.7456 19.3048 50.8579 20.4587 50.8557 20.4597C50.8256 20.4715 50.6727 18.3256 50.6784 18.189C50.7469 16.6088 51.808 13.596 53.5155 13.1262C54.7456 12.788 55.8887 13.6766 56.0925 14.8837C56.3011 16.1166 55.5075 17.4363 54.697 18.2958Z" fill="black"/>
<path d="M26.0365 31.2492C26.0182 31.2758 24.7066 29.5702 24.6362 29.4531C23.8218 28.0976 23.0445 24.9993 24.2099 23.6652C25.0493 22.7046 26.4925 22.815 27.3286 23.7094C28.1827 24.6227 28.249 26.1616 28.047 27.3254C27.8096 28.6918 26.0378 31.2473 26.0365 31.2492Z" fill="black"/>
<path d="M13.0845 24.522C14.6304 23.6577 17.5011 25.0577 18.6595 26.1345C18.7597 26.2276 20.1578 27.8631 20.1277 27.8756C20.1277 27.8756 20.0999 27.8871 20.0931 27.89C20.5482 28.1073 21.0333 28.346 21.5581 28.617C22.5235 29.1255 23.6096 29.7092 24.7488 30.4237C25.889 31.1348 27.1082 31.9399 28.3155 32.9034C29.5271 33.8676 30.7523 34.9437 31.8711 36.2161C31.8839 36.2305 31.8951 36.2471 31.9079 36.2615C31.6963 35.7879 31.1485 34.4436 31.1181 34.3354C30.6903 32.8129 30.7587 29.6193 32.2349 28.6404C33.2986 27.9354 34.6615 28.4231 35.2317 29.5066C35.8141 30.6132 35.4717 32.1146 34.9696 33.1841C34.4035 34.3898 32.2032 36.2615 32.0275 36.41C33.0819 37.6311 34.065 38.9703 34.9853 40.3799C35.512 41.1853 36.0179 42.0129 36.5146 42.849C36.3447 42.4337 36.1959 42.0609 36.1808 42.0065C35.753 40.4839 35.8218 37.2903 37.2976 36.3117C38.3613 35.6065 39.7239 36.0945 40.2941 37.1777C40.8765 38.2842 40.5341 39.7857 40.032 40.8551C39.5226 41.9399 37.6787 43.5735 37.185 43.9991C37.3722 44.322 37.5626 44.6423 37.7482 44.9658C38.6403 46.5178 39.5239 48.0705 40.4371 49.5668C40.7587 50.0945 41.0947 50.602 41.4291 51.1111C41.2787 50.7418 41.1549 50.4298 41.1411 50.3802C40.7133 48.8573 40.7818 45.6641 42.2583 44.6852C43.3216 43.9799 44.6845 44.4679 45.2547 45.5514C45.8371 46.6577 45.4944 48.1594 44.9923 49.2285C44.5063 50.2637 42.8176 51.7866 42.2333 52.2954C42.5917 52.8061 42.9495 53.3188 43.3194 53.7978C43.5795 54.1191 43.8077 54.4465 44.0867 54.7549C44.3568 55.066 44.624 55.3738 44.889 55.6788C45.4205 56.2474 45.9651 56.8372 46.4976 57.3786C46.865 57.7581 47.2221 58.113 47.5805 58.4714C47.2541 57.9505 46.6371 56.9162 46.5955 56.8241C46.1613 55.8669 45.8352 54.1495 46.0477 52.754C45.9827 52.6132 45.9303 52.4669 45.8928 52.3162C45.5978 51.1281 46.2906 49.857 47.5536 49.6759C49.3069 49.4244 51.4829 51.7626 52.1767 53.1841C52.2176 53.2679 52.5597 54.2273 52.7661 54.8359C52.6992 54.4596 52.6304 54.0951 52.5664 53.7069C52.4349 52.9402 52.3261 52.1713 52.2058 51.3441C52.1619 50.9428 52.1175 50.5373 52.073 50.1281C52.0195 49.7229 52.0154 49.2884 51.984 48.8644C51.9328 47.8804 51.9286 46.8807 51.9466 45.8733C51.2749 45.9869 48.8839 46.3559 47.7344 46.0602C46.5907 45.7661 45.2151 45.073 44.7331 43.9194C44.2615 42.7898 44.7533 41.4285 45.9747 41.058C47.6695 40.5437 50.1747 42.5255 51.0759 43.8253C51.1322 43.9063 51.6739 44.9117 51.9607 45.4698C51.9763 44.8641 51.9888 44.2599 52.0247 43.6481C52.1274 41.8813 52.2864 40.0967 52.4371 38.3153C52.4839 37.7697 52.5232 37.2257 52.5655 36.6807C52.3267 36.7239 49.4941 37.2237 48.2071 36.8929C47.0631 36.5988 45.6874 35.906 45.2055 34.7521C44.7338 33.6225 45.2259 32.2612 46.4471 31.8906C48.1421 31.3764 50.6471 33.3581 51.5482 34.6577C51.616 34.7556 52.3933 36.2033 52.5731 36.5812C52.6647 35.3818 52.7453 34.1853 52.7763 33.0029C52.8218 31.3713 52.7763 29.7681 52.617 28.218C52.5059 28.2381 49.552 28.7735 48.2336 28.4346C47.0896 28.1405 45.7139 27.4477 45.2323 26.2938C44.7603 25.1642 45.2528 23.8026 46.4739 23.4324C48.169 22.9181 50.6739 24.8999 51.5751 26.1994C51.6343 26.2849 52.2282 27.3879 52.4979 27.9185C52.5511 27.9021 52.5415 27.9053 52.5946 27.889C52.4042 26.2301 52.0109 24.6477 51.5696 23.1844C51.3155 22.3364 51.0256 21.5399 50.7261 20.7716C50.1863 20.9277 47.7107 21.6138 46.4903 21.4397C45.321 21.273 43.8775 20.7354 43.2717 19.6417C42.6787 18.5706 43.0186 17.1633 44.1917 16.6612C45.8199 15.9642 48.5274 17.6586 49.5658 18.8516C49.6221 18.9162 50.1232 19.6394 50.481 20.1713C50.3405 19.8266 50.2016 19.4682 50.0605 19.1405C49.5335 17.9095 48.9747 16.8145 48.4723 15.8487C48.1821 15.3018 47.9088 14.8132 47.6483 14.3585C47.0384 14.2353 44.5872 13.7079 43.6026 13.0039C42.6416 12.3172 41.6083 11.1748 41.5747 9.92518C41.5421 8.70118 42.4922 7.60902 43.7645 7.70374C45.5309 7.83526 47.153 10.5869 47.5248 12.1242C47.5568 12.257 47.8208 14.3924 47.7888 14.3863C47.7888 14.3863 47.7591 14.3805 47.752 14.3789C48.0115 14.8113 48.2845 15.2781 48.5728 15.7937C49.0973 16.7505 49.6816 17.8362 50.2378 19.0609C50.7965 20.2829 51.3693 21.6269 51.8445 23.0964C52.3229 24.569 52.7514 26.1425 52.9827 27.8209C52.9853 27.8397 52.9856 27.8599 52.9882 27.8788C53.0727 27.3668 53.3578 25.9434 53.392 25.8365C53.8752 24.3306 55.6941 21.705 57.4653 21.7028C58.7415 21.7012 59.609 22.8599 59.4871 24.0785C59.3623 25.3223 58.2483 26.386 57.2397 27.001C56.1021 27.6945 53.2343 28.0417 53.0061 28.0685C53.2119 29.6689 53.2931 31.3281 53.2829 33.0113C53.2784 33.9738 53.2435 34.9431 53.1965 35.9143C53.2839 35.474 53.3655 35.081 53.3827 35.0273C53.8663 33.5213 55.6851 30.8957 57.456 30.8935C58.7322 30.8919 59.5997 32.0506 59.4775 33.2689C59.353 34.513 58.2387 35.5767 57.2301 36.1914C56.2067 36.8151 53.7677 37.1604 53.121 37.2433C53.0989 37.6157 53.0813 37.9879 53.0579 38.3601C52.9456 40.1466 52.8259 41.929 52.7623 43.6807C52.7395 44.2983 52.7399 44.9069 52.7376 45.5162C52.8157 45.1252 52.8848 44.7965 52.9005 44.7476C53.3837 43.2417 55.2026 40.6161 56.9738 40.6138C58.2499 40.6125 59.1175 41.7713 58.9952 42.9895C58.8704 44.2333 57.7565 45.297 56.7479 45.9117C55.7712 46.5073 53.5229 46.8461 52.7549 46.9479C52.7719 47.5716 52.7875 48.1965 52.832 48.8004C52.8717 49.2119 52.8813 49.6109 52.944 50.0221C52.9975 50.4305 53.0506 50.8346 53.1034 51.2353C53.233 52.0026 53.3619 52.7953 53.5072 53.5405C53.6042 54.0596 53.7063 54.5527 53.8077 55.0497C53.8231 54.4349 53.8791 53.2321 53.8951 53.1319C54.1443 51.5703 55.5443 48.6993 57.2951 48.4289C58.5562 48.2343 59.5891 49.2481 59.6531 50.4708C59.7184 51.7194 58.7786 52.9393 57.8746 53.6999C56.8794 54.537 54.2099 55.2967 53.8755 55.3895C54.0464 56.2109 54.2199 57.0087 54.3962 57.7585C54.9946 60.3351 55.5904 62.4609 56.0311 63.9508L54.9267 64.4212C54.9174 64.3869 54.9088 64.3565 54.8992 64.3213C54.4855 62.802 53.9248 60.625 53.3719 57.9853C53.1952 57.1517 53.0231 56.2573 52.8547 55.3373C52.6323 55.3428 51.3655 55.3661 50.1805 55.2388C49.7312 56.497 48.0445 58.4647 47.825 58.7169C48.4205 59.3079 49.0055 59.8772 49.5661 60.4055C51.4867 62.2244 53.1565 63.6685 54.3456 64.6682L53.1335 65.1847C51.9959 64.1748 50.5114 62.8164 48.8368 61.1601C48.2295 60.5623 47.5923 59.9114 46.9447 59.2365C46.6656 59.4314 44.3747 61.0093 43.0935 61.2433C41.9312 61.4554 40.392 61.4026 39.4714 60.5569C38.5696 59.7287 38.4464 58.2865 39.4 57.4385C40.7235 56.2615 43.8285 57.0113 45.1911 57.8138C45.2714 57.8612 46.0861 58.4724 46.5939 58.8666C46.3306 58.5898 46.072 58.3236 45.8048 58.0353C45.272 57.4685 44.7571 56.8868 44.2007 56.2634C43.9427 55.953 43.6819 55.6391 43.4189 55.3223C43.1511 55.0138 42.9072 54.6538 42.6477 54.3175C42.0621 53.5249 41.5069 52.6935 40.9664 51.8433C40.4688 52.3085 38.6781 53.9354 37.5565 54.3229C36.44 54.7085 34.9104 54.8897 33.8723 54.193C32.8557 53.5111 32.5152 52.1041 33.3293 51.1213C34.4592 49.7575 37.6419 50.0282 39.1107 50.6154C39.2023 50.6519 40.2087 51.1917 40.7559 51.4986C40.4349 50.985 40.1117 50.4743 39.8042 49.9441C38.9152 48.4141 38.0634 46.8375 37.2064 45.2685C36.9443 44.7876 36.6771 44.3121 36.4115 43.8346C36.2365 44.002 34.1498 45.9818 32.8935 46.4157C31.777 46.8017 30.2474 46.9825 29.209 46.2861C28.1923 45.6042 27.8522 44.1972 28.6663 43.2148C29.7962 41.8509 32.9789 42.1217 34.4474 42.7085C34.5581 42.7527 36.0051 43.5313 36.3635 43.7476C35.7783 42.6964 35.1853 41.6545 34.5591 40.6509C33.6967 39.265 32.7744 37.9527 31.7866 36.7479C31.7053 36.8263 29.5367 38.9025 28.2499 39.3469C27.1335 39.7325 25.6039 39.9137 24.5655 39.217C23.5488 38.5351 23.2083 37.1281 24.0224 36.1457C25.1527 34.7818 28.3351 35.0525 29.8035 35.6397C29.9002 35.6781 31.0026 36.2701 31.521 36.5639C31.5565 36.521 31.5498 36.5287 31.5853 36.4858C30.5117 35.2077 29.3107 34.1047 28.1357 33.1281C27.456 32.561 26.7751 32.0567 26.1011 31.5812C25.737 32.0093 24.0506 33.9473 22.937 34.4753C21.8695 34.9812 20.3693 35.3293 19.2608 34.7511C18.1754 34.1847 17.6826 32.8237 18.3837 31.7575C19.3571 30.2778 22.5504 30.1975 24.0743 30.6196C24.1571 30.6426 24.9738 30.9693 25.5655 31.2154C25.2579 31.0055 24.9447 30.7831 24.6464 30.5876C23.5274 29.8516 22.4576 29.2465 21.5056 28.7181C20.9616 28.4221 20.4643 28.1652 19.9962 27.9297C19.4195 28.1633 17.0842 29.0756 15.8746 29.0317C14.6941 28.9889 13.2023 28.6065 12.4848 27.5821C11.7811 26.5799 11.9709 25.1447 13.0845 24.522Z" fill="black"/>
</g>
<path d="M114.117 143.467H46.905C45.8307 143.467 44.9597 142.596 44.9597 141.522V40.1325C44.9597 39.0583 45.8307 38.1873 46.905 38.1873H114.117C115.191 38.1873 116.062 39.0583 116.062 40.1325V141.522C116.062 142.597 115.191 143.467 114.117 143.467Z" fill="#263238" stroke="#263238" stroke-width="0.5" stroke-miterlimit="10" stroke-linecap="round" stroke-linejoin="round"/>
<path d="M112.449 40.564H48.5728V139.414H112.449V40.564Z" fill="white" stroke="#263238" stroke-width="0.5" stroke-miterlimit="10" stroke-linecap="round" stroke-linejoin="round"/>
<path d="M89.431 66.2068H94.391" stroke="#263238" stroke-width="0.5" stroke-miterlimit="10"/>
<path d="M55.031 66.2068H85.591" stroke="#263238" stroke-width="0.5" stroke-miterlimit="10"/>
<path d="M82.071 70.0469H94.391" stroke="#263238" stroke-width="0.5" stroke-miterlimit="10"/>
<path d="M63.191 70.0469H78.711" stroke="#263238" stroke-width="0.5" stroke-miterlimit="10"/>
<path d="M55.031 70.0469H60.311" stroke="#263238" stroke-width="0.5" stroke-miterlimit="10"/>
<path d="M70.391 73.8867H94.391" stroke="#263238" stroke-width="0.5" stroke-miterlimit="10"/>
<path d="M55.031 73.8867H65.1107" stroke="#263238" stroke-width="0.5" stroke-miterlimit="10"/>
<path d="M105.751 73.8869C108.049 73.8869 109.911 72.0244 109.911 69.7269C109.911 67.4294 108.049 65.5669 105.751 65.5669C103.453 65.5669 101.591 67.4294 101.591 69.7269C101.591 72.0244 103.453 73.8869 105.751 73.8869Z" stroke="#263238" stroke-width="0.5" stroke-miterlimit="10"/>
<path d="M59.991 83.3267H55.031" stroke="#263238" stroke-width="0.5" stroke-miterlimit="10"/>
<path d="M94.391 83.3267H63.831" stroke="#263238" stroke-width="0.5" stroke-miterlimit="10"/>
<path d="M67.351 87.1667H55.031" stroke="#263238" stroke-width="0.5" stroke-miterlimit="10"/>
<path d="M86.231 87.1667H70.711" stroke="#263238" stroke-width="0.5" stroke-miterlimit="10"/>
<path d="M94.391 87.1667H89.111" stroke="#263238" stroke-width="0.5" stroke-miterlimit="10"/>
<path d="M79.031 91.0066H55.031" stroke="#263238" stroke-width="0.5" stroke-miterlimit="10"/>
<path d="M94.391 91.0066H84.311" stroke="#263238" stroke-width="0.5" stroke-miterlimit="10"/>
<path d="M105.751 91.0068C108.049 91.0068 109.911 89.1443 109.911 86.8468C109.911 84.5493 108.049 82.6868 105.751 82.6868C103.453 82.6868 101.591 84.5493 101.591 86.8468C101.591 89.1443 103.453 91.0068 105.751 91.0068Z" stroke="#263238" stroke-width="0.5" stroke-miterlimit="10"/>
<path d="M89.431 100.447H94.391" stroke="#263238" stroke-width="0.5" stroke-miterlimit="10"/>
<path d="M55.031 100.447H85.591" stroke="#263238" stroke-width="0.5" stroke-miterlimit="10"/>
<path d="M82.071 104.287H94.391" stroke="#263238" stroke-width="0.5" stroke-miterlimit="10"/>
<path d="M63.191 104.287H78.711" stroke="#263238" stroke-width="0.5" stroke-miterlimit="10"/>
<path d="M55.031 104.287H60.311" stroke="#263238" stroke-width="0.5" stroke-miterlimit="10"/>
<path d="M70.391 108.127H94.391" stroke="#263238" stroke-width="0.5" stroke-miterlimit="10"/>
<path d="M55.031 108.127H65.1107" stroke="#263238" stroke-width="0.5" stroke-miterlimit="10"/>
<path d="M105.751 108.127C108.049 108.127 109.911 106.264 109.911 103.967C109.911 101.669 108.049 99.8069 105.751 99.8069C103.453 99.8069 101.591 101.669 101.591 103.967C101.591 106.264 103.453 108.127 105.751 108.127Z" stroke="#263238" stroke-width="0.5" stroke-miterlimit="10"/>
<path d="M85.8887 29.8958C85.5888 29.8958 85.3459 29.6529 85.3459 29.353V26.2973C85.3459 25.6586 84.8282 25.1409 84.1895 25.1409H79.264C78.6253 25.1409 78.1075 25.6586 78.1075 26.2973V29.353C78.1075 29.6529 77.8647 29.8958 77.5648 29.8958C77.2653 29.8958 77.0221 30.1386 77.0221 30.4385V38.7162H86.4307V30.4385C86.4314 30.1389 86.1885 29.8958 85.8887 29.8958ZM81.7271 29.6109C80.889 29.6109 80.2096 28.9316 80.2096 28.0935C80.2096 27.2554 80.889 26.5761 81.7271 26.5761C82.5651 26.5761 83.2445 27.2554 83.2445 28.0935C83.2445 28.9316 82.5651 29.6109 81.7271 29.6109Z" fill="#263238" stroke="#263238" stroke-width="0.5" stroke-miterlimit="10" stroke-linecap="round" stroke-linejoin="round"/>
<path d="M96.4192 41.299H67.0349V38.8532C67.0349 37.3249 68.2739 36.0862 69.8019 36.0862H93.6518C95.1802 36.0862 96.4189 37.3252 96.4189 38.8532V41.299H96.4192Z" fill="white" stroke="#263238" stroke-width="0.5" stroke-miterlimit="10" stroke-linecap="round" stroke-linejoin="round"/>
<path d="M67.7626 36.9874H95.6912C95.1853 36.4347 94.4602 36.0859 93.6518 36.0859H69.8019C68.9936 36.0859 68.2685 36.4347 67.7626 36.9874Z" fill="#263238" stroke="#263238" stroke-width="0.5" stroke-miterlimit="10" stroke-linecap="round" stroke-linejoin="round"/>
<path d="M96.4192 41.2747H67.0349V42.9883H96.4192V41.2747Z" fill="white" stroke="#263238" stroke-width="0.5" stroke-miterlimit="10" stroke-linecap="round" stroke-linejoin="round"/>
<path d="M104.166 86.1569L105.296 88.1672L109.568 84.0212" stroke="#119391" stroke-width="0.5" stroke-miterlimit="10" stroke-linecap="round"/>
<path d="M104.166 68.8556L105.296 70.8659L109.568 66.72" stroke="#119391" stroke-width="0.5" stroke-miterlimit="10" stroke-linecap="round"/>
<path d="M103.567 102.482L104.698 104.492L108.969 100.346" stroke="#119391" stroke-width="0.5" stroke-miterlimit="10" stroke-linecap="round"/>
<path d="M141.372 131.379C144.689 131.379 147.378 128.69 147.378 125.373C147.378 122.056 144.689 119.367 141.372 119.367C138.055 119.367 135.366 122.056 135.366 125.373C135.366 128.69 138.055 131.379 141.372 131.379Z" fill="#4394FF"/>
<path d="M139.476 124.248H137.552C137.382 124.248 137.245 124.386 137.245 124.555V128.253C137.245 128.422 137.382 128.56 137.552 128.56H139.476C139.646 128.56 139.783 128.422 139.783 128.253V124.555C139.784 124.386 139.646 124.248 139.476 124.248Z" fill="white"/>
<path d="M145.002 124.873C145.647 123.926 144.76 123.644 144.76 123.644H142.443L142.484 123.442C142.484 123.442 142.685 121.871 142.423 121.387C142.161 120.903 141.214 120.702 141.174 120.883C141.133 121.064 141.194 121.871 141.113 122.314C141.033 122.757 140.327 124.248 140.227 124.43C140.203 124.471 140.152 124.521 140.087 124.572V128.159C140.351 128.323 140.609 128.298 140.609 128.298H143.974C144.74 127.996 144.498 127.311 144.498 127.311C145.204 126.807 144.941 126.163 144.941 126.163C145.748 125.477 145.002 124.873 145.002 124.873Z" fill="white"/>
<path d="M17.8906 57.0443C23.2567 56.1734 26.9008 51.1173 26.0299 45.7512C25.159 40.3851 20.1029 36.741 14.7368 37.6118C9.37067 38.4827 5.72656 43.5388 6.59745 48.9049C7.46834 54.2711 12.5244 57.9152 17.8906 57.0443Z" fill="#4394FF"/>
<path d="M13.2058 45.4839H10.0522C9.77409 45.4839 9.54849 45.7095 9.54849 45.9876V52.0474C9.54849 52.3255 9.77409 52.5511 10.0522 52.5511H13.2058C13.4839 52.5511 13.7095 52.3255 13.7095 52.0474V45.9876C13.7095 45.7095 13.4839 45.4839 13.2058 45.4839Z" fill="white"/>
<path d="M22.2624 46.5076C23.3191 44.9556 21.8663 44.4932 21.8663 44.4932H18.0685L18.1344 44.1629C18.1344 44.1629 18.4647 41.5873 18.0352 40.7946C17.6058 40.002 16.0538 39.6717 15.9879 39.969C15.9219 40.2663 16.0208 41.5873 15.8887 42.3137C15.7565 43.0401 14.6007 45.4839 14.4355 45.7812C14.3975 45.85 14.313 45.9309 14.2064 46.0151V51.8932C14.64 52.162 15.0631 52.1217 15.0631 52.1217H20.5779C21.833 51.6263 21.4365 50.5034 21.4365 50.5034C22.5923 49.6778 22.1629 48.6212 22.1629 48.6212C23.4842 47.4983 22.2624 46.5076 22.2624 46.5076Z" fill="white"/>
<path d="M91.2477 24.1623C94.5647 24.1623 97.2537 21.4733 97.2537 18.1562C97.2537 14.8392 94.5647 12.1501 91.2477 12.1501C87.9306 12.1501 85.2416 14.8392 85.2416 18.1562C85.2416 21.4733 87.9306 24.1623 91.2477 24.1623Z" fill="#4394FF"/>
<path d="M89.3517 17.0312H87.4275C87.2579 17.0312 87.1203 17.1688 87.1203 17.3384V21.036C87.1203 21.2056 87.2579 21.3432 87.4275 21.3432H89.3517C89.5213 21.3432 89.6589 21.2056 89.6589 21.036V17.3384C89.6589 17.1688 89.5213 17.0312 89.3517 17.0312Z" fill="white"/>
<path d="M94.8777 17.656C95.5225 16.7088 94.6358 16.4269 94.6358 16.4269H92.3187L92.359 16.2253C92.359 16.2253 92.5606 14.6537 92.2985 14.1699C92.0365 13.6864 91.0896 13.4848 91.0493 13.6662C91.0089 13.8477 91.0694 14.6534 90.9888 15.0969C90.9081 15.5401 90.2029 17.0313 90.1021 17.2128C90.0787 17.2547 90.0272 17.3043 89.9622 17.3555V20.9421C90.2269 21.1062 90.4848 21.0816 90.4848 21.0816H93.8499C94.6157 20.7792 94.3737 20.0944 94.3737 20.0944C95.079 19.5907 94.8169 18.9459 94.8169 18.9459C95.6233 18.2605 94.8777 17.656 94.8777 17.656Z" fill="white"/>
<path d="M61.7526 127.631L58.4995 147.368L63.4877 141.728L68.9101 147.584L66.9581 127.197L61.7526 127.631Z" fill="#FFC422" stroke="#263238" stroke-miterlimit="10"/>
<path d="M64.5805 127.798L65.4083 147.784L69.1459 141.248L75.6454 145.879L69.5888 126.315L64.5805 127.798Z" fill="#FFC422" stroke="#263238" stroke-miterlimit="10"/>
<path d="M76.7286 123.51C76.7286 122.933 77.9613 122.276 77.8822 121.721C77.8013 121.153 76.4323 120.868 76.2742 120.328C76.1133 119.779 77.1101 118.8 76.8752 118.287C76.6378 117.768 75.2445 117.882 74.9379 117.406C74.6298 116.928 75.3098 115.707 74.9382 115.279C74.5661 114.849 73.2608 115.35 72.8317 114.978C72.4032 114.606 72.7142 113.243 72.2355 112.935C71.76 112.629 70.6483 113.476 70.1296 113.238C69.6166 113.004 69.5302 111.608 68.9811 111.447C68.4416 111.289 67.6157 112.415 67.047 112.335C66.4925 112.255 66.0157 110.941 65.4394 110.941C64.8627 110.941 64.3862 112.255 63.8314 112.335C63.263 112.415 62.4371 111.289 61.8973 111.447C61.3482 111.608 61.2618 113.004 60.7485 113.239C60.2298 113.476 59.1181 112.629 58.6426 112.935C58.1642 113.244 58.4749 114.607 58.0464 114.978C57.6173 115.35 56.312 114.85 55.9398 115.279C55.5683 115.707 56.2486 116.928 55.9405 117.407C55.6342 117.882 54.2406 117.768 54.0035 118.287C53.769 118.8 54.7658 119.779 54.6048 120.328C54.4467 120.868 53.0778 121.153 52.9968 121.721C52.9178 122.276 54.1504 122.933 54.1504 123.51C54.1504 124.087 52.9178 124.744 52.9968 125.298C53.0778 125.867 54.4467 126.152 54.6048 126.692C54.7658 127.241 53.769 128.22 54.0038 128.733C54.2413 129.252 55.6346 129.138 55.9411 129.614C56.2493 130.092 55.5693 131.313 55.9408 131.741C56.313 132.17 57.6179 131.67 58.0474 132.042C58.4758 132.414 58.1648 133.776 58.6435 134.085C59.119 134.391 60.2307 133.544 60.7494 133.782C61.2624 134.016 61.3488 135.412 61.8979 135.573C62.4374 135.731 63.2634 134.604 63.832 134.685C64.3866 134.764 64.8634 136.079 65.4397 136.079C66.0163 136.079 66.4928 134.764 67.0477 134.685C67.6163 134.604 68.4419 135.731 68.9818 135.573C69.5309 135.412 69.6173 134.016 70.1306 133.781C70.6493 133.544 71.761 134.391 72.2365 134.084C72.7149 133.776 72.4042 132.413 72.8326 132.042C73.2618 131.67 74.567 132.17 74.9392 131.741C75.3107 131.312 74.6304 130.092 74.9386 129.613C75.2448 129.138 76.6384 129.252 76.8755 128.733C77.1101 128.22 76.1133 127.241 76.2742 126.692C76.4323 126.152 77.8013 125.867 77.8822 125.298C77.9613 124.744 76.7286 124.087 76.7286 123.51Z" fill="#263238"/>
<path d="M65.4397 132.473C70.3899 132.473 74.4029 128.46 74.4029 123.51C74.4029 118.56 70.3899 114.547 65.4397 114.547C60.4894 114.547 56.4765 118.56 56.4765 123.51C56.4765 128.46 60.4894 132.473 65.4397 132.473Z" fill="white" stroke="#263238" stroke-miterlimit="10" stroke-linecap="round" stroke-linejoin="round"/>
<path d="M69.8633 127.934C72.3071 125.491 72.3071 121.528 69.8633 119.085C67.4195 116.641 63.4572 116.641 61.0134 119.085C58.5695 121.528 58.5695 125.491 61.0134 127.934C63.4572 130.378 67.4195 130.378 69.8633 127.934Z" fill="white" stroke="#263238" stroke-miterlimit="10" stroke-linecap="round" stroke-linejoin="round"/>
<path d="M65.4509 128.416C68.1692 128.416 70.3728 126.213 70.3728 123.494C70.3728 120.776 68.1692 118.573 65.4509 118.573C62.7326 118.573 60.529 120.776 60.529 123.494C60.529 126.213 62.7326 128.416 65.4509 128.416Z" fill="#FFC422"/>
<path d="M63.8969 122.572H62.32C62.1808 122.572 62.0681 122.685 62.0681 122.824V125.854C62.0681 125.993 62.1808 126.106 62.32 126.106H63.8969C64.0361 126.106 64.1488 125.993 64.1488 125.854V122.824C64.1488 122.685 64.0361 122.572 63.8969 122.572Z" fill="white"/>
<path d="M68.4259 123.084C68.9542 122.308 68.2278 122.077 68.2278 122.077H66.3289L66.3619 121.912C66.3619 121.912 66.527 120.624 66.3123 120.227C66.0976 119.831 65.3216 119.666 65.2886 119.814C65.2557 119.963 65.3053 120.624 65.239 120.987C65.1731 121.35 64.5949 122.572 64.5123 122.721C64.4931 122.755 64.4512 122.795 64.3977 122.837V125.777C64.6147 125.911 64.8262 125.891 64.8262 125.891H67.584C68.2115 125.643 68.0134 125.082 68.0134 125.082C68.5913 124.669 68.3766 124.14 68.3766 124.14C69.0368 123.579 68.4259 123.084 68.4259 123.084Z" fill="white"/>
<path d="M122.82 96.2552C122.82 96.2552 122.641 104.433 122.911 107.038C123.18 109.642 124.741 122.907 125.351 127.53C125.962 132.153 126.224 140.964 126.224 140.964C126.224 140.964 125.526 141.138 125.526 141.749C125.526 142.359 125.438 142.883 125.438 142.883C125.438 142.883 124.654 143.842 124.13 144.191C123.607 144.54 120.728 145.238 121.164 145.936C121.6 146.634 128.491 146.285 128.491 146.285C128.491 146.285 126.223 147.331 124.915 147.593C123.606 147.855 124.043 148.989 125.7 149.076C127.357 149.163 129.364 149.338 131.195 149.338C133.027 149.338 133.812 148.64 135.295 148.553C136.778 148.465 137.302 148.465 137.563 148.291C137.825 148.117 137.999 145.587 137.999 145.587L137.65 143.057C137.65 143.057 139.373 133.949 138.697 127.792C137.598 117.789 139.134 108.966 139.134 108.966C139.134 108.966 140.821 103.077 140.552 100.472C140.282 97.8676 139.827 95.1016 139.827 95.1016L123.251 95.6468L122.82 96.2552Z" fill="#263238" stroke="#263238" stroke-width="0.5" stroke-miterlimit="10" stroke-linecap="round" stroke-linejoin="round"/>
<path d="M128.568 71.2324C128.568 71.2324 125.534 73.531 124.664 75.0913C123.795 76.6516 123.749 85.3025 123.657 87.7214C123.565 90.1403 122.679 93.3319 122.71 94.699C122.74 96.066 122.663 97.7668 127.423 97.7604C132.182 97.754 138.894 96.7636 139.697 96.1207C140.5 95.4779 140.819 95.3902 141.178 93.996C141.537 92.6017 144.018 83.3 144.268 80.3483C144.518 77.3966 144.423 76.0587 141.876 72.259C139.328 68.4596 136.095 67.9028 136.095 67.9028L130.196 70.2708L128.568 71.2324Z" fill="#FF4E4E" stroke="#263238" stroke-width="0.5" stroke-miterlimit="10" stroke-linecap="round" stroke-linejoin="round"/>
<path d="M128.568 71.2325L128.707 74.157L124.997 92.9093L126.498 96.6517L129.739 92.6434L129.542 73.9685L130.912 72.1122L130.196 70.2712L128.568 71.2325Z" fill="#263238" stroke="#263238" stroke-width="0.5" stroke-miterlimit="10" stroke-linecap="round" stroke-linejoin="round"/>
<path d="M129.781 68.9963L128.464 69.7403L127.115 72.8338L128.568 71.2325L129.24 71.5119L130.943 69.7627L129.781 68.9963Z" fill="white" stroke="#263238" stroke-width="0.5" stroke-miterlimit="10" stroke-linecap="round" stroke-linejoin="round"/>
<path d="M125.628 55.7287C125.628 55.7287 125.608 59.7556 125.733 60.4615C125.857 61.1675 125.772 62.6407 126.412 63.7246C127.052 64.8084 127.616 66.9511 128.088 67.2567C128.561 67.5623 129.358 67.6571 129.358 67.6571L129.725 70.754L135.36 66.3351L135.095 63.0807C135.095 63.0807 135.947 62.3441 135.97 61.0635C135.993 59.7828 135.866 59.0391 135.249 58.819C134.632 58.5988 134.149 58.1435 134.149 58.1435L134.633 55.9278C134.633 55.9278 135.834 54.2638 132.329 53.6433C128.825 53.0225 125.889 54.6193 125.628 55.7287Z" fill="white" stroke="#263238" stroke-width="0.5" stroke-miterlimit="10" stroke-linecap="round" stroke-linejoin="round"/>
<path d="M124.352 54.6892C124.352 54.6892 124.187 55.566 127.221 56.445C130.254 57.324 131.901 57.2092 131.901 57.2092C131.901 57.2092 131.47 57.5026 131.828 57.7784C132.186 58.0543 132.568 58.1407 132.568 58.1407C132.568 58.1407 132.703 60.6143 132.974 60.708C133.244 60.8021 133.749 60.5036 133.749 60.5036C133.749 60.5036 133.681 59.5301 134.222 59.1916C134.763 58.8527 135.249 58.8188 135.249 58.8188C135.249 58.8188 136.186 54.9912 135.004 53.6821C133.821 52.373 132.292 52.028 128.684 52.6184C125.076 53.2092 124.021 54.261 124.352 54.6892Z" fill="#263238" stroke="#263238" stroke-width="0.5" stroke-miterlimit="10" stroke-linecap="round" stroke-linejoin="round"/>
<path d="M128.801 63.4451L127.605 63.5664L127.487 60.264L126.59 59.2733L125.936 59.0557" stroke="#263238" stroke-width="0.5" stroke-miterlimit="10" stroke-linecap="round" stroke-linejoin="round"/>
<path d="M128.106 64.8105C128.106 64.8105 128.71 64.8435 129.194 64.7721C129.678 64.7007 130.232 64.5491 130.232 64.5491C130.232 64.5491 129.418 65.2832 128.824 65.4C128.23 65.5164 128.106 64.8105 128.106 64.8105Z" stroke="#263238" stroke-width="0.5" stroke-miterlimit="10" stroke-linecap="round" stroke-linejoin="round"/>
<path d="M129.358 67.6571C129.358 67.6571 129.404 67.7669 130.099 67.4926C130.795 67.2184 131.718 66.4392 131.718 66.4392" stroke="#263238" stroke-width="0.5" stroke-miterlimit="10" stroke-linecap="round" stroke-linejoin="round"/>
<path d="M130.928 58.895C130.233 58.6425 128.46 59.1049 128.46 59.1049" stroke="#263238" stroke-width="0.5" stroke-miterlimit="10" stroke-linecap="round" stroke-linejoin="round"/>
<path d="M130.245 60.4287C130.263 60.6873 130.16 60.9049 130.016 60.9151C129.871 60.9254 129.739 60.7238 129.721 60.4655C129.703 60.207 129.806 59.9894 129.95 59.9791C130.095 59.9689 130.227 60.1702 130.245 60.4287Z" fill="#263238"/>
<path d="M127.212 60.6216C127.23 60.8801 127.127 61.0977 126.982 61.108C126.838 61.1182 126.705 60.9166 126.687 60.6584C126.67 60.3998 126.772 60.1822 126.917 60.172C127.062 60.1621 127.193 60.3633 127.212 60.6216Z" fill="#263238"/>
<path d="M129.599 70.1174L131.096 72.8819L136.907 67.3904L135.769 66.0352L129.599 70.1174Z" fill="white" stroke="#263238" stroke-width="0.5" stroke-miterlimit="10" stroke-linecap="round" stroke-linejoin="round"/>
<path d="M113.834 78.7097L124.555 80.4771L126.204 94.3792L116.543 92.8473L113.834 78.7097Z" fill="#119391" stroke="#263238" stroke-width="0.5" stroke-miterlimit="10"/>
<path d="M114.291 81.8228C114.291 81.8228 113.593 81.881 113.419 82.4042C113.245 82.9274 113.361 83.4506 113.593 83.7412C113.826 84.0317 114.93 84.3805 115.512 84.2061C116.093 84.0317 116.267 83.5668 115.861 83.2762C115.454 82.9856 114.64 82.8112 114.64 82.8112L114.291 81.8228Z" fill="white" stroke="#263238" stroke-width="0.5" stroke-miterlimit="10" stroke-linecap="round" stroke-linejoin="round"/>
<path d="M113.593 83.7412C113.593 83.7412 113.361 84.497 113.768 84.9038C114.175 85.3108 115.279 85.427 115.628 85.0199C115.977 84.6129 115.512 84.2062 115.512 84.2062C115.512 84.2062 114 84.09 113.593 83.7412Z" fill="white" stroke="#263238" stroke-width="0.5" stroke-miterlimit="10" stroke-linecap="round" stroke-linejoin="round"/>
<path d="M113.942 85.427C113.942 85.427 113.884 86.6478 114.349 87.171C114.814 87.6942 115.337 87.4036 115.221 86.9384C115.105 86.4734 114.872 86.1246 114.872 86.1246L113.942 85.427Z" fill="white" stroke="#263238" stroke-width="0.5" stroke-miterlimit="10" stroke-linecap="round" stroke-linejoin="round"/>
<path d="M113.768 84.9038C113.768 84.9038 113.652 85.4852 114.175 85.834C114.698 86.1828 115.454 86.5316 115.686 86.0084C115.919 85.4852 115.628 85.0203 115.628 85.0203C115.628 85.0203 114.465 85.3108 113.768 84.9038Z" fill="white" stroke="#263238" stroke-width="0.5" stroke-miterlimit="10" stroke-linecap="round" stroke-linejoin="round"/>
<path d="M116.584 79.5136L116.674 80.0787L121.964 81.0086V80.1462C121.964 79.8291 121.759 79.5484 121.456 79.4531L120.86 79.2646L120.737 78.8374C120.67 78.6012 120.473 78.4246 120.23 78.3836L118.291 78.0544C117.902 77.9881 117.546 78.2883 117.546 78.6835L117.34 78.6726C116.878 78.6486 116.511 79.0566 116.584 79.5136Z" fill="#263238" stroke="#263238" stroke-width="0.5" stroke-miterlimit="10" stroke-linecap="round" stroke-linejoin="round"/>
<path d="M128.296 86.8785C128.296 86.8785 127.575 86.0919 127.247 85.8295C126.919 85.5671 125.149 85.5671 125.149 85.5671V86.6817C125.149 86.6817 122.396 86.8785 121.609 87.0094C120.822 87.1406 120.691 87.5339 120.888 87.8615C121.085 88.1892 123.051 87.9927 123.051 87.9927L124.035 88.1239C124.035 88.1239 122.527 88.5172 122.068 88.5828C121.609 88.6484 120.691 88.5828 120.691 88.9105C120.691 89.2382 120.822 89.435 121.543 89.5006C122.265 89.5662 123.445 89.5662 124.231 89.763C125.018 89.9598 122.92 90.0907 122.33 90.0907C121.74 90.0907 121.675 90.6151 122.068 90.7463C122.462 90.8775 123.707 91.074 123.707 91.074C123.707 91.074 124.232 91.4017 125.215 91.6641C126.198 91.9265 125.543 91.7953 127.706 91.6641C129.87 91.5329 130.853 91.2052 130.853 91.2052L130.919 88.1895L128.886 87.5339L128.296 86.8785Z" fill="white" stroke="#263238" stroke-width="0.5" stroke-miterlimit="10" stroke-linecap="round" stroke-linejoin="round"/>
<path d="M125.149 86.6816L126.329 86.8128" stroke="#263238" stroke-width="0.5" stroke-miterlimit="10" stroke-linecap="round" stroke-linejoin="round"/>
<path d="M123.707 91.074L125.674 91.1396" stroke="#263238" stroke-width="0.5" stroke-miterlimit="10" stroke-linecap="round" stroke-linejoin="round"/>
<path d="M130.918 88.1895L130.656 91.9264L132.033 91.9917L132.164 88.255L130.918 88.1895Z" fill="white" stroke="#263238" stroke-width="0.5" stroke-miterlimit="10" stroke-linecap="round" stroke-linejoin="round"/>
<path d="M138.873 69.4243C139.856 69.752 145.403 72.9283 145.403 75.7472C145.403 78.5661 144.62 89.1728 144.358 91.664C144.096 94.1552 143.309 93.6307 140.49 93.6307C137.671 93.6307 133.41 93.4995 132.623 93.1718C131.837 92.8442 132.033 91.9917 132.033 91.9917L132.164 88.2547C132.164 88.2547 132.361 87.337 133.016 87.2058C133.672 87.0746 137.933 87.6646 137.933 87.6646C137.933 87.6646 138.72 80.5187 138.851 79.1421C138.982 77.7654 138.487 75.3075 139.536 74.7174" fill="#FF4E4E"/>
<path d="M138.873 69.4243C139.856 69.752 145.403 72.9283 145.403 75.7472C145.403 78.5661 144.62 89.1728 144.358 91.664C144.096 94.1552 143.309 93.6307 140.49 93.6307C137.671 93.6307 133.41 93.4995 132.623 93.1718C131.837 92.8442 132.033 91.9917 132.033 91.9917L132.164 88.2547C132.164 88.2547 132.361 87.337 133.016 87.2058C133.672 87.0746 137.933 87.6646 137.933 87.6646C137.933 87.6646 138.72 80.5187 138.851 79.1421C138.982 77.7654 138.487 75.3075 139.536 74.7174" stroke="#263238" stroke-width="0.5" stroke-miterlimit="10" stroke-linecap="round" stroke-linejoin="round"/>
<path d="M141.015 89.763C140.031 89.3697 137.933 87.665 137.933 87.665C137.933 87.665 140.424 88.3207 140.752 88.2551" stroke="#263238" stroke-width="0.5" stroke-miterlimit="10" stroke-linecap="round" stroke-linejoin="round"/>
<path d="M25.4838 69.1119C25.4838 69.1119 26.0816 69.9231 26.2525 70.8197C26.4233 71.7164 26.0816 72.2713 25.3987 72.2287C24.7155 72.1861 24.4595 71.5029 24.4595 71.5029C24.4595 71.5029 24.5875 72.9545 25.0998 73.6377C25.6121 74.3209 25.9965 74.2354 28.9849 74.5769C31.9734 74.9183 36.4566 74.5769 37.6947 74.406C38.9328 74.2351 39.744 74.0217 40.1709 73.3813C40.5977 72.741 41.1955 71.4601 41.1955 71.4601C41.1955 71.4601 39.9145 72.3993 39.2317 72.1858C38.5485 71.9724 38.5485 70.606 38.7619 70.0511C38.9753 69.4959 39.3168 68.8985 39.3168 68.8985C39.3168 68.8985 39.7865 67.5321 39.7865 66.4649C39.7865 65.3973 39.4022 64.2876 38.719 61.8111C38.0358 59.3349 35.944 57.1573 34.3641 55.5775C32.7843 53.9977 31.0768 55.0652 29.1555 56.0473C27.2342 57.0293 25.0569 62.366 24.6726 64.5436C24.2883 66.7209 25.4838 69.1119 25.4838 69.1119Z" fill="#263238" stroke="#263238" stroke-width="0.5" stroke-miterlimit="10"/>
<path d="M28.9709 73.1849L32.5725 70.5603L36.3568 73.1849L32.7555 81.9139L28.9709 73.1849Z" fill="white" stroke="#263238" stroke-width="0.5" stroke-miterlimit="10"/>
<path d="M31.3757 73.8083L32.5283 75.6867L31.5037 79.9562L32.9126 82.4752L34.407 79.5722L33.2115 75.6867L34.0656 73.9363L32.6992 71.8445L31.3757 73.8083Z" fill="#263238" stroke="#263238" stroke-width="0.5" stroke-miterlimit="10"/>
<path d="M30.3085 66.8918C30.3085 66.8918 30.351 70.4355 30.4365 70.7344C30.5219 71.0333 32.2298 72.7837 32.5712 72.912C32.9126 73.0403 34.4496 70.7344 34.5779 70.5638C34.7059 70.393 34.6205 66.9776 34.6205 66.9776L30.3085 66.8918Z" fill="white" stroke="#263238" stroke-width="0.5" stroke-miterlimit="10"/>
<path d="M33.2115 55.4496C33.2115 55.4496 31.76 57.1574 30.0522 58.8224C28.3443 60.4873 26.3376 62.622 25.5693 64.7568C24.8006 66.8915 25.4838 69.1116 25.4838 69.1116C25.4838 69.1116 23.8614 67.1904 23.904 64.6288C23.9466 62.0672 24.4163 57.3705 26.6365 54.6809C28.8566 51.991 32.3574 51.863 33.9798 52.2473C35.6022 52.6316 37.5661 54.5955 38.4627 56.9865C39.3594 59.3772 40.2131 63.9459 40.1277 65.8672C40.0422 67.7884 39.3165 68.8985 39.3165 68.8985C39.3165 68.8985 39.6579 65.8672 38.1638 63.0067C36.6694 60.1462 35.175 58.9081 34.0653 57.8406C32.9555 56.7731 33.2115 55.4496 33.2115 55.4496Z" fill="#263238" stroke="#263238" stroke-width="0.5" stroke-miterlimit="10"/>
<path d="M32.5712 72.9116L30.607 75.6867L28.9062 71.686L30.4365 70.3926L32.5712 72.9116Z" fill="white" stroke="#263238" stroke-width="0.5" stroke-miterlimit="10"/>
<path d="M32.5712 72.9116L34.5779 75.9004L36.1574 71.759L34.5779 70.5635L32.5712 72.9116Z" fill="white" stroke="#263238" stroke-width="0.5" stroke-miterlimit="10"/>
<path d="M22.4291 73.6421C22.4291 73.6421 14.4374 84.3995 14.0029 85.0517C13.5683 85.7038 13.2205 85.7038 13.4377 86.2254C13.655 86.747 15.1331 88.3554 16.2198 88.3989C17.3065 88.4424 17.6109 88.0946 18.0889 87.3992C18.567 86.7035 24.5136 79.3467 24.5136 79.3467C24.5136 79.3467 22.9072 73.8594 22.4291 73.6421Z" fill="#0073DE" stroke="#263238" stroke-width="0.5" stroke-miterlimit="10"/>
<path d="M31.9357 142.943L31.64 149.007H31.048L30.9001 145.276L31.9357 142.943Z" fill="#263238" stroke="#263238" stroke-width="0.5" stroke-miterlimit="10"/>
<path d="M26.0909 113.888C26.0909 113.888 26.7568 118.353 26.6086 121.152C26.4605 123.951 26.2387 125.75 26.5347 128.282C26.8307 130.815 28.3843 139.678 28.3843 141.677C28.3843 143.676 27.7184 145.542 27.2745 146.209C26.8307 146.875 24.3149 148.541 24.167 149.274C24.0192 150.007 25.9427 149.807 27.7184 149.541C29.4941 149.274 30.5299 149.208 30.752 148.941C30.9741 148.674 30.6781 147.075 31.1958 145.209C31.7139 143.343 32.2317 143.41 32.0096 142.277C31.7875 141.144 30.8998 139.878 30.8998 138.012C30.8998 136.146 32.0838 125.017 31.7878 122.152C31.4918 119.286 31.344 113.955 31.344 113.955L26.0909 113.888Z" fill="white" stroke="#263238" stroke-width="0.5" stroke-miterlimit="10"/>
<path d="M30.0121 147.009C30.0121 147.009 29.4201 146.742 28.0144 146.542C27.5997 146.483 27.2707 146.483 27.0102 146.511C26.2237 147.287 24.296 148.635 24.167 149.274C24.0192 150.007 25.9427 149.807 27.7184 149.541C29.4941 149.274 30.5299 149.208 30.752 148.941C30.9741 148.675 30.6781 147.075 31.1958 145.209C31.7139 143.343 32.2317 143.41 32.0096 142.277C31.4915 143.477 31.1216 143.61 30.6038 144.61C30.0861 145.609 30.0121 147.009 30.0121 147.009Z" fill="#263238" stroke="#263238" stroke-width="0.5" stroke-miterlimit="10"/>
<path d="M41.801 143.435L42.423 149.479L43.007 149.452L42.9498 145.719L41.801 143.435Z" fill="#263238" stroke="#263238" stroke-width="0.5" stroke-miterlimit="10"/>
<path d="M40.2176 113.822C40.2176 113.822 40.583 117.221 42.2378 121.309C43.3018 123.938 43.4333 125.513 43.945 128.016C44.4464 130.468 44.0291 138.999 44.1642 141.477C44.273 143.474 46.103 145.842 46.5773 146.488C47.0515 147.134 49.6243 148.685 49.8102 149.411C49.9962 150.136 48.0874 150.022 46.321 149.836C44.5546 149.649 43.529 149.628 43.2954 149.372C43.0618 149.116 43.2669 147.505 42.6541 145.665C42.0413 143.824 41.5341 143.914 41.6915 142.772C41.8489 141.631 41.6061 140.077 41.2406 138.345C40.8541 136.513 38.2627 126.42 37.6467 123.597C37.0307 120.774 34.8822 114.021 34.8822 114.021L40.2176 113.822Z" fill="white" stroke="#263238" stroke-width="0.5" stroke-miterlimit="10"/>
<path d="M43.9203 147.409C43.9203 147.409 44.4899 147.116 45.8659 146.854C46.2717 146.777 46.5965 146.762 46.855 146.778C47.6733 147.518 49.6486 148.778 49.8106 149.411C49.9965 150.136 48.0877 150.023 46.3213 149.836C44.5549 149.649 43.5293 149.629 43.2957 149.372C43.0621 149.116 43.2672 147.506 42.6544 145.665C42.0416 143.824 41.5344 143.914 41.6918 142.773C42.2682 143.948 42.6403 144.064 43.2058 145.039C43.7712 146.015 43.9203 147.409 43.9203 147.409Z" fill="#263238" stroke="#263238" stroke-width="0.5" stroke-miterlimit="10"/>
<path d="M23.359 96.2953C23.359 96.2953 22.6259 98.6943 22.4928 101.293C22.3597 103.892 22.7593 118.488 22.7593 118.488C22.7593 118.488 25.2915 119.288 30.0899 119.421C34.888 119.554 43.6845 118.555 43.6845 118.555C43.6845 118.555 43.2845 103.759 42.2851 100.027C41.2854 96.295 40.6857 95.2287 40.6857 95.2287C40.6857 95.2287 30.9561 88.765 23.359 96.2953Z" fill="#263238" stroke="#263238" stroke-width="0.5" stroke-miterlimit="10"/>
<path d="M42.1834 73.8416C42.1834 73.8416 49.8554 84.7913 50.2928 85.4416C50.7302 86.0918 51.0781 86.0902 50.8627 86.6128C50.6474 87.1353 49.1763 88.7497 48.0896 88.7977C47.0032 88.8457 46.6973 88.4992 46.2163 87.8057C45.7354 87.1123 39.7472 79.7516 39.7472 79.7516C39.7472 79.7516 41.7062 74.0611 42.1834 73.8416Z" fill="#0073DE" stroke="#263238" stroke-width="0.5" stroke-miterlimit="10"/>
<path d="M28.9062 71.686L32.7315 80.6409L36.1574 71.759L42.1517 73.8377L37.3392 87.7264L42.6861 98.9417C42.6861 98.9417 40.3274 100.172 36.1542 100.694C31.9811 101.215 28.3411 100.854 26.559 100.289C24.7766 99.7241 22.2554 98.3766 22.3859 98.3766C22.5165 98.3766 26.9069 87.2048 26.9069 87.2048L22.4294 73.6422L28.9062 71.686Z" fill="#0073DE" stroke="#263238" stroke-width="0.5" stroke-miterlimit="10"/>
<path d="M32.7917 82.9654L37.0781 77.7724L35.8825 76.0416L38.3968 75.0112L37.5533 72.3782L36.1574 71.759L32.7315 80.6409L28.9062 71.686L27.6025 72.0796L26.9392 75.5468L29.783 76.1238L28.5878 78.0198L32.7917 82.9654Z" fill="#0073DE" stroke="#263238" stroke-width="0.5" stroke-miterlimit="10"/>
<path d="M23.559 94.696C23.559 94.696 24.2921 94.5625 25.2249 94.2294C26.1581 93.8963 26.6243 94.096 27.2243 94.5625C27.824 95.0291 29.3555 96.008 29.1555 96.3414C28.9555 96.6745 28.8233 96.8285 28.4902 96.6285C28.1571 96.4285 26.4912 95.0957 26.1577 95.0957C25.8246 95.0957 24.9581 95.4957 24.9581 95.4957C24.9581 95.4957 25.9577 95.5622 26.5574 95.9622C27.1571 96.3622 28.4899 97.3616 28.4233 97.6947C28.3568 98.0278 28.0937 98.0771 27.7606 98.0105C27.4275 97.944 26.0909 96.7616 25.8909 96.7616C25.6909 96.7616 24.4246 96.7616 24.4246 96.7616C24.4246 96.7616 25.7843 97.4237 26.0509 97.6902C26.3174 97.9568 26.6739 98.2265 26.6739 98.4265C26.6739 98.6265 26.5542 99.1366 26.1545 99.0035C25.7549 98.8701 24.6246 97.8944 24.6246 97.8944C24.6246 97.8944 25.6896 99.0246 25.6262 99.2147C25.5318 99.4973 25.3574 99.4937 25.1577 99.3603C24.9577 99.2272 23.5155 98.3731 23.0489 97.9734C22.7094 97.6825 22.7587 97.6278 22.3587 97.5613C21.9587 97.4947 21.559 96.6281 21.559 96.6281L23.559 94.696Z" fill="white" stroke="#263238" stroke-width="0.5" stroke-miterlimit="10"/>
<path d="M24.6253 97.8946C24.6253 97.8946 23.9558 97.2373 23.5594 97.2373" stroke="#263238" stroke-width="0.5" stroke-miterlimit="10"/>
<path d="M41.6131 94.696C41.6131 94.696 40.88 94.5625 39.9472 94.2294C39.0144 93.8963 38.5478 94.096 37.9482 94.5625C37.3485 95.0291 35.817 96.008 36.0166 96.3414C36.2166 96.6745 36.3488 96.8285 36.6819 96.6285C37.015 96.4285 38.6813 95.0957 39.0144 95.0957C39.3475 95.0957 40.2138 95.4957 40.2138 95.4957C40.2138 95.4957 39.2141 95.5622 38.6144 95.9622C38.0147 96.3622 36.6819 97.3616 36.7485 97.6947C36.815 98.0278 37.0781 98.0771 37.4112 98.0105C37.7443 97.944 39.081 96.7616 39.2806 96.7616C39.4806 96.7616 40.1546 96.5574 40.1546 96.5574C40.1546 96.5574 39.345 97.367 39.0784 97.6336C38.8118 97.9001 38.4554 98.3398 38.4554 98.5398C38.4554 98.7398 38.617 99.1366 39.0166 99.0035C39.4166 98.8701 40.551 97.4637 40.551 97.4637C40.551 97.4637 39.4816 99.0246 39.545 99.2147C39.6394 99.4973 39.8138 99.4937 40.0134 99.3603C40.2134 99.2272 41.3462 98.2941 41.8128 97.8941C42.1523 97.6032 42.4125 97.6275 42.8125 97.5609C43.2122 97.4944 43.6121 96.6278 43.6121 96.6278L41.6131 94.696Z" fill="white" stroke="#263238" stroke-width="0.5" stroke-miterlimit="10"/>
<path d="M40.5514 97.4639C40.5514 97.4639 40.8346 96.8975 41.4576 96.7275" stroke="#263238" stroke-width="0.5" stroke-miterlimit="10"/>
<path d="M42.887 93.2278L41.2803 94.6959L43.4793 97.3615L45.1949 95.742L42.887 93.2278Z" fill="white" stroke="#263238" stroke-width="0.5" stroke-miterlimit="10"/>
<path d="M47.0758 85.7461L42.2438 93.5909L44.7709 96.8492C44.7709 96.8492 47.048 93.8344 48.1741 92.2303C49.3002 90.6261 51.0787 86.8623 51.0102 86.396C50.9418 85.9298 49.3357 84.3372 49.3357 84.3372" fill="#0073DE"/>
<path d="M47.0758 85.7461L42.2438 93.5909L44.7709 96.8492C44.7709 96.8492 47.048 93.8344 48.1741 92.2303C49.3002 90.6261 51.0787 86.8623 51.0102 86.396C50.9418 85.9298 49.3357 84.3372 49.3357 84.3372" stroke="#263238" stroke-width="0.5" stroke-miterlimit="10"/>
<path d="M21.9523 93.2278L23.559 94.6959L21.36 97.3615L19.6445 95.742L21.9523 93.2278Z" fill="white" stroke="#263238" stroke-width="0.5" stroke-miterlimit="10"/>
<path d="M17.2208 85.343L22.2928 93.4966L19.8947 96.5254C19.8947 96.5254 16.328 92.2905 15.1949 90.6911C14.0621 89.0918 13.2221 86.4761 13.2889 86.0095C13.3555 85.543 14.9549 83.9436 14.9549 83.9436" fill="#0073DE"/>
<path d="M17.2208 85.343L22.2928 93.4966L19.8947 96.5254C19.8947 96.5254 16.328 92.2905 15.1949 90.6911C14.0621 89.0918 13.2221 86.4761 13.2889 86.0095C13.3555 85.543 14.9549 83.9436 14.9549 83.9436" stroke="#263238" stroke-width="0.5" stroke-miterlimit="10"/>
<path d="M33.0841 56.9558C33.0841 56.9558 31.1158 59.686 30.2269 60.6384C29.3379 61.5907 29.3379 61.5907 29.3379 61.5907L27.4333 61.9715C27.4333 61.9715 27.6873 62.8605 27.9411 63.3049C28.1952 63.7494 28.8934 63.8765 28.8934 63.8765C28.8934 63.8765 29.0829 65.4781 29.6534 66.2912C30.224 67.1043 31.7712 68.4089 34.0998 68.8288C34.7984 68.9545 36.2499 67.9952 36.9485 64.8204C37.647 61.6457 36.9571 60.7017 36.5763 59.6224C36.1955 58.543 33.9097 56.9558 33.0841 56.9558Z" fill="white" stroke="#263238" stroke-width="0.5" stroke-miterlimit="10"/>
<path d="M36.7465 61.032C36.7465 61.032 35.9193 60.264 35.5059 61.4454C35.3574 61.8701 36.2147 63.9264 35.9193 64.1037C35.624 64.281 35.5059 64.0445 35.0925 64.3398" stroke="#263238" stroke-width="0.5" stroke-miterlimit="10"/>
<path d="M35.5651 65.5808C35.5651 65.5808 33.9702 66.0535 33.3203 64.9309" stroke="#263238" stroke-width="0.5" stroke-miterlimit="10"/>
<path d="M34.0291 60.5594C34.0291 60.5594 32.7296 60.0867 31.9616 60.7955" stroke="#263238" stroke-width="0.5" stroke-miterlimit="10"/>
<path d="M33.7929 62.1174C33.7929 62.4313 33.631 62.686 33.4317 62.686C33.232 62.686 33.0704 62.4316 33.0704 62.1174C33.0704 61.8035 33.2323 61.5491 33.4317 61.5491C33.631 61.5491 33.7929 61.8035 33.7929 62.1174Z" fill="#263238"/>
<path d="M36.6285 62.2134C36.6285 62.5273 36.4666 62.7821 36.2672 62.7821C36.0675 62.7821 35.9059 62.5277 35.9059 62.2134C35.9059 61.8995 36.0678 61.6448 36.2672 61.6448C36.4666 61.6451 36.6285 61.8995 36.6285 62.2134Z" fill="#263238"/>
</svg>
